# MagicaVoxel @ Ephtracy

# group
o 

# material
mtllib NeutralArt3.mtl
usemtl palette

# normals
vn -1 0 0
vn 1 0 0
vn 0 0 1
vn 0 0 -1
vn 0 -1 0
vn 0 1 0

# texcoords
vt 0.310547 0.5
vt 0.556641 0.5
vt 0.591797 0.5
vt 0.748047 0.5

# verts
v -1.1 0 1.1
v -1.1 0 0.8
v -1.1 0 0.7
v -1.1 0 -0.4
v -1.1 0.1 1.1
v -1.1 0.1 0.9
v -1.1 0.1 0.7
v -1.1 0.1 -0.4
v -1.1 0.2 0.9
v -1.1 0.2 0.8
v -1 0 1.5
v -1 0 1.1
v -1 0 0.8
v -1 0 0.7
v -1 0 -0.4
v -1 0 -0.7
v -1 0.1 1.5
v -1 0.1 1.1
v -1 0.1 0.8
v -1 0.1 0.7
v -1 0.1 -0.4
v -1 0.1 -0.7
v -0.8 0 1.6
v -0.8 0 1.5
v -0.8 0.1 1.6
v -0.8 0.1 1.5
v -0.5 0 -0.7
v -0.5 0 -0.8
v -0.5 0.1 -0.7
v -0.5 0.1 -0.8
v -0.3 0 1.7
v -0.3 0 1.6
v -0.3 0.1 1.7
v -0.3 0.1 1.6
v -0.1 0 -0.8
v -0.1 0 -0.9
v -0.1 0.1 0.7
v -0.1 0.1 0.6
v -0.1 0.1 -0.8
v -0.1 0.1 -0.9
v -0.1 0.3 0.7
v -0.1 0.3 0.6
v -1 0.1 0.9
v -1 0.1 0.8
v -1 0.2 0.9
v -1 0.2 0.8
v 0 0 1.7
v 0 0 1.6
v 0 0.1 1.7
v 0 0.1 1.6
v 0 0.1 0.7
v 0 0.1 0.6
v 0 0.3 0.7
v 0 0.3 0.6
v 0.1 0 -0.8
v 0.1 0 -0.9
v 0.1 0.1 -0.8
v 0.1 0.1 -0.9
v 0.5 0 1.6
v 0.5 0 1.5
v 0.5 0.1 1.6
v 0.5 0.1 1.5
v 0.7 0 -0.7
v 0.7 0 -0.8
v 0.7 0.1 -0.7
v 0.7 0.1 -0.8
v 1 0 1.5
v 1 0 1.2
v 1 0 -0.4
v 1 0 -0.7
v 1 0.1 1.5
v 1 0.1 1.2
v 1 0.1 -0.4
v 1 0.1 -0.7
v 1.1 0 1.2
v 1.1 0 0.6
v 1.1 0 -1.19209e-007
v 1.1 0 -0.4
v 1.1 0.1 1.2
v 1.1 0.1 0.6
v 1.1 0.1 -1.19209e-007
v 1.1 0.1 -0.4
v 1.2 0 0.6
v 1.2 0 -1.19209e-007
v 1.2 0.1 0.6
v 1.2 0.1 -1.19209e-007
v -0.3 0 1.7
v -0.3 0.1 1.7
v 0 0 1.7
v 0 0.1 1.7
v -0.8 0 1.6
v -0.8 0.1 1.6
v -0.3 0 1.6
v -0.3 0.1 1.6
v 0 0 1.6
v 0 0.1 1.6
v 0.5 0 1.6
v 0.5 0.1 1.6
v -1 0 1.5
v -1 0.1 1.5
v -0.8 0 1.5
v -0.8 0.1 1.5
v 0.5 0 1.5
v 0.5 0.1 1.5
v 1 0 1.5
v 1 0.1 1.5
v 1 0 1.2
v 1 0.1 1.2
v 1.1 0 1.2
v 1.1 0.1 1.2
v -1.1 0 1.1
v -1.1 0.1 1.1
v -1 0 1.1
v -1 0.1 1.1
v -1.1 0.1 0.9
v -1.1 0.2 0.9
v -1 0.1 0.9
v -1 0.2 0.9
v -1.1 0 0.7
v -1.1 0.1 0.7
v -1 0 0.7
v -1 0.1 0.7
v -0.1 0.1 0.7
v -0.1 0.3 0.7
v 0 0.1 0.7
v 0 0.3 0.7
v 1.1 0 0.6
v 1.1 0.1 0.6
v 1.2 0 0.6
v 1.2 0.1 0.6
v -1.1 0 0.8
v -1.1 0.2 0.8
v -1 0 0.8
v -1 0.1 0.8
v -1 0.2 0.8
v -0.1 0.1 0.6
v -0.1 0.3 0.6
v 0 0.1 0.6
v 0 0.3 0.6
v 1.1 0 -1.19209e-007
v 1.1 0.1 -1.19209e-007
v 1.2 0 -1.19209e-007
v 1.2 0.1 -1.19209e-007
v -1.1 0 -0.4
v -1.1 0.1 -0.4
v -1 0 -0.4
v -1 0.1 -0.4
v 1 0 -0.4
v 1 0.1 -0.4
v 1.1 0 -0.4
v 1.1 0.1 -0.4
v -1 0 -0.7
v -1 0.1 -0.7
v -0.5 0 -0.7
v -0.5 0.1 -0.7
v 0.7 0 -0.7
v 0.7 0.1 -0.7
v 1 0 -0.7
v 1 0.1 -0.7
v -0.5 0 -0.8
v -0.5 0.1 -0.8
v -0.1 0 -0.8
v -0.1 0.1 -0.8
v 0.1 0 -0.8
v 0.1 0.1 -0.8
v 0.7 0 -0.8
v 0.7 0.1 -0.8
v -0.1 0 -0.9
v -0.1 0.1 -0.9
v 0.1 0 -0.9
v 0.1 0.1 -0.9
v -0.3 0 1.7
v 0 0 1.7
v -0.8 0 1.6
v -0.3 0 1.6
v 0 0 1.6
v 0.5 0 1.6
v -1 0 1.5
v -0.8 0 1.5
v -0.6 0 1.5
v 0.3 0 1.5
v 0.5 0 1.5
v 1 0 1.5
v -0.9 0 1.4
v -0.6 0 1.4
v -0.1 0 1.4
v 0.3 0 1.4
v 0.4 0 1.4
v 0.6 0 1.4
v -0.5 0 1.3
v -0.1 0 1.3
v 0.4 0 1.3
v 0.6 0 1.3
v -0.7 0 1.2
v -0.5 0 1.2
v 0.6 0 1.2
v 0.7 0 1.2
v 0.9 0 1.2
v 1 0 1.2
v 1.1 0 1.2
v -1.1 0 1.1
v -1 0 1.1
v 0.7 0 1.1
v 0.8 0 1.1
v -1 0 1
v -0.9 0 1
v -0.8 0 1
v -0.7 0 1
v -0.8 0 0.9
v -0.7 0 0.9
v -0.6 0 0.9
v -0.4 0 0.9
v 0.9 0 0.9
v 1 0 0.9
v -1.1 0 0.8
v -1 0 0.8
v -0.9 0 0.8
v -0.7 0 0.8
v 0.8 0 0.8
v 0.9 0 0.8
v -1.1 0 0.7
v -1 0 0.7
v -0.9 0 0.7
v -0.8 0 0.7
v -0.6 0 0.7
v -0.4 0 0.7
v -0.1 0 0.7
v 0 0 0.7
v -0.9 0 0.6
v -0.8 0 0.6
v -0.1 0 0.6
v 0 0 0.6
v 0.3 0 0.6
v 0.5 0 0.6
v 1.1 0 0.6
v 1.2 0 0.6
v 0.3 0 0.4
v 0.5 0 0.4
v -0.4 0 0.2
v -0.2 0 0.2
v -1 0 0.0999999
v -0.9 0 0.0999999
v -0.9 0 -1.19209e-007
v -0.8 0 -1.19209e-007
v -0.4 0 -1.19209e-007
v -0.2 0 -1.19209e-007
v 0.9 0 -1.19209e-007
v 1 0 -1.19209e-007
v 1.1 0 -1.19209e-007
v 1.2 0 -1.19209e-007
v -1 0 -0.1
v -0.9 0 -0.1
v -0.8 0 -0.1
v -0.7 0 -0.1
v -0.8 0 -0.2
v -0.7 0 -0.2
v 0.8 0 -0.2
v 0.9 0 -0.2
v 0.7 0 -0.3
v 0.8 0 -0.3
v -1.1 0 -0.4
v -1 0 -0.4
v -0.9 0 -0.4
v -0.8 0 -0.4
v -0.6 0 -0.4
v 0.5 0 -0.4
v 0.7 0 -0.4
v 1 0 -0.4
v 1.1 0 -0.4
v -0.8 0 -0.5
v -0.7 0 -0.5
v -0.6 0 -0.5
v -0.4 0 -0.5
v 0.2 0 -0.5
v 0.5 0 -0.5
v 0.7 0 -0.5
v 0.8 0 -0.5
v -0.7 0 -0.6
v -0.5 0 -0.6
v -0.4 0 -0.6
v 0 0 -0.6
v 0.2 0 -0.6
v 0.7 0 -0.6
v -1 0 -0.7
v -0.5 0 -0.7
v 0 0 -0.7
v 0.7 0 -0.7
v 1 0 -0.7
v -0.5 0 -0.8
v -0.1 0 -0.8
v 0.1 0 -0.8
v 0.7 0 -0.8
v -0.1 0 -0.9
v 0.1 0 -0.9
v -0.3 0.1 1.7
v 0 0.1 1.7
v -0.8 0.1 1.6
v -0.3 0.1 1.6
v 0 0.1 1.6
v 0.5 0.1 1.6
v -1 0.1 1.5
v -0.8 0.1 1.5
v -0.6 0.1 1.5
v 0.3 0.1 1.5
v 0.5 0.1 1.5
v 1 0.1 1.5
v -0.9 0.1 1.4
v -0.6 0.1 1.4
v -0.1 0.1 1.4
v 0.3 0.1 1.4
v 0.4 0.1 1.4
v 0.6 0.1 1.4
v -0.5 0.1 1.3
v -0.1 0.1 1.3
v 0.4 0.1 1.3
v 0.6 0.1 1.3
v -0.7 0.1 1.2
v -0.5 0.1 1.2
v 0.6 0.1 1.2
v 0.7 0.1 1.2
v 0.9 0.1 1.2
v 1 0.1 1.2
v 1.1 0.1 1.2
v -1.1 0.1 1.1
v -1 0.1 1.1
v 0.7 0.1 1.1
v 0.8 0.1 1.1
v -1 0.1 1
v -0.9 0.1 1
v -0.8 0.1 1
v -0.7 0.1 1
v -1.1 0.1 0.9
v -1 0.1 0.9
v -0.8 0.1 0.9
v -0.7 0.1 0.9
v -0.6 0.1 0.9
v -0.4 0.1 0.9
v 0.9 0.1 0.9
v 1 0.1 0.9
v -1 0.1 0.8
v -0.9 0.1 0.8
v -0.7 0.1 0.8
v 0.8 0.1 0.8
v 0.9 0.1 0.8
v -1.1 0.1 0.7
v -1 0.1 0.7
v -0.9 0.1 0.7
v -0.8 0.1 0.7
v -0.6 0.1 0.7
v -0.4 0.1 0.7
v -0.1 0.1 0.7
v 0 0.1 0.7
v -0.9 0.1 0.6
v -0.8 0.1 0.6
v -0.1 0.1 0.6
v 0 0.1 0.6
v 0.3 0.1 0.6
v 0.5 0.1 0.6
v 1.1 0.1 0.6
v 1.2 0.1 0.6
v 0.3 0.1 0.4
v 0.5 0.1 0.4
v -0.4 0.1 0.2
v -0.2 0.1 0.2
v -1 0.1 0.0999999
v -0.9 0.1 0.0999999
v -0.9 0.1 -1.19209e-007
v -0.8 0.1 -1.19209e-007
v -0.4 0.1 -1.19209e-007
v -0.2 0.1 -1.19209e-007
v 0.9 0.1 -1.19209e-007
v 1 0.1 -1.19209e-007
v 1.1 0.1 -1.19209e-007
v 1.2 0.1 -1.19209e-007
v -1 0.1 -0.1
v -0.9 0.1 -0.1
v -0.8 0.1 -0.1
v -0.7 0.1 -0.1
v -0.8 0.1 -0.2
v -0.7 0.1 -0.2
v 0.8 0.1 -0.2
v 0.9 0.1 -0.2
v 0.7 0.1 -0.3
v 0.8 0.1 -0.3
v -1.1 0.1 -0.4
v -1 0.1 -0.4
v -0.9 0.1 -0.4
v -0.8 0.1 -0.4
v -0.6 0.1 -0.4
v 0.5 0.1 -0.4
v 0.7 0.1 -0.4
v 1 0.1 -0.4
v 1.1 0.1 -0.4
v -0.8 0.1 -0.5
v -0.7 0.1 -0.5
v -0.6 0.1 -0.5
v -0.4 0.1 -0.5
v 0.2 0.1 -0.5
v 0.5 0.1 -0.5
v 0.7 0.1 -0.5
v 0.8 0.1 -0.5
v -0.7 0.1 -0.6
v -0.5 0.1 -0.6
v -0.4 0.1 -0.6
v 0 0.1 -0.6
v 0.2 0.1 -0.6
v 0.7 0.1 -0.6
v -1 0.1 -0.7
v -0.5 0.1 -0.7
v 0 0.1 -0.7
v 0.7 0.1 -0.7
v 1 0.1 -0.7
v -0.5 0.1 -0.8
v -0.1 0.1 -0.8
v 0.1 0.1 -0.8
v 0.7 0.1 -0.8
v -0.1 0.1 -0.9
v 0.1 0.1 -0.9
v -1.1 0.2 0.9
v -1 0.2 0.9
v -1.1 0.2 0.8
v -1 0.2 0.8
v -0.1 0.3 0.7
v 0 0.3 0.7
v -0.1 0.3 0.6
v 0 0.3 0.6

# faces
f 5/2/1 2/2/1 1/2/1
f 6/2/1 2/2/1 5/2/1
f 7/2/1 4/2/1 3/2/1
f 8/2/1 4/2/1 7/2/1
f 9/2/1 2/2/1 6/2/1
f 10/2/1 2/2/1 9/2/1
f 17/2/1 12/2/1 11/2/1
f 18/2/1 12/2/1 17/2/1
f 19/1/1 14/1/1 13/1/1
f 20/1/1 14/1/1 19/1/1
f 21/2/1 16/2/1 15/2/1
f 22/2/1 16/2/1 21/2/1
f 25/2/1 24/2/1 23/2/1
f 26/2/1 24/2/1 25/2/1
f 29/2/1 28/2/1 27/2/1
f 30/2/1 28/2/1 29/2/1
f 33/2/1 32/2/1 31/2/1
f 34/2/1 32/2/1 33/2/1
f 39/2/1 36/2/1 35/2/1
f 40/2/1 36/2/1 39/2/1
f 41/2/1 38/2/1 37/2/1
f 42/2/1 38/2/1 41/2/1
f 43/2/2 44/2/2 45/2/2
f 45/2/2 44/2/2 46/2/2
f 47/2/2 48/2/2 49/2/2
f 49/2/2 48/2/2 50/2/2
f 51/2/2 52/2/2 53/2/2
f 53/2/2 52/2/2 54/2/2
f 55/2/2 56/2/2 57/2/2
f 57/2/2 56/2/2 58/2/2
f 59/2/2 60/2/2 61/2/2
f 61/2/2 60/2/2 62/2/2
f 63/2/2 64/2/2 65/2/2
f 65/2/2 64/2/2 66/2/2
f 67/2/2 68/2/2 71/2/2
f 71/2/2 68/2/2 72/2/2
f 69/2/2 70/2/2 73/2/2
f 73/2/2 70/2/2 74/2/2
f 75/2/2 76/2/2 79/2/2
f 79/2/2 76/2/2 80/2/2
f 77/2/2 78/2/2 81/2/2
f 81/2/2 78/2/2 82/2/2
f 83/2/2 84/2/2 85/2/2
f 85/2/2 84/2/2 86/2/2
f 89/2/3 88/2/3 87/2/3
f 90/2/3 88/2/3 89/2/3
f 93/2/3 92/2/3 91/2/3
f 94/2/3 92/2/3 93/2/3
f 97/2/3 96/2/3 95/2/3
f 98/2/3 96/2/3 97/2/3
f 101/2/3 100/2/3 99/2/3
f 102/2/3 100/2/3 101/2/3
f 105/2/3 104/2/3 103/2/3
f 106/2/3 104/2/3 105/2/3
f 109/2/3 108/2/3 107/2/3
f 110/2/3 108/2/3 109/2/3
f 113/2/3 112/2/3 111/2/3
f 114/2/3 112/2/3 113/2/3
f 117/2/3 116/2/3 115/2/3
f 118/2/3 116/2/3 117/2/3
f 121/2/3 120/2/3 119/2/3
f 122/2/3 120/2/3 121/2/3
f 125/2/3 124/2/3 123/2/3
f 126/2/3 124/2/3 125/2/3
f 129/2/3 128/2/3 127/2/3
f 130/2/3 128/2/3 129/2/3
f 131/2/4 132/2/4 133/2/4
f 133/2/4 132/2/4 134/2/4
f 134/2/4 132/2/4 135/2/4
f 136/2/4 137/2/4 138/2/4
f 138/2/4 137/2/4 139/2/4
f 140/2/4 141/2/4 142/2/4
f 142/2/4 141/2/4 143/2/4
f 144/2/4 145/2/4 146/2/4
f 146/2/4 145/2/4 147/2/4
f 148/2/4 149/2/4 150/2/4
f 150/2/4 149/2/4 151/2/4
f 152/2/4 153/2/4 154/2/4
f 154/2/4 153/2/4 155/2/4
f 156/2/4 157/2/4 158/2/4
f 158/2/4 157/2/4 159/2/4
f 160/2/4 161/2/4 162/2/4
f 162/2/4 161/2/4 163/2/4
f 164/2/4 165/2/4 166/2/4
f 166/2/4 165/2/4 167/2/4
f 168/2/4 169/2/4 170/2/4
f 170/2/4 169/2/4 171/2/4
f 175/2/5 173/2/5 172/2/5
f 176/2/5 173/2/5 175/2/5
f 179/2/5 175/2/5 174/2/5
f 179/2/5 177/2/5 176/2/5
f 179/2/5 176/2/5 175/2/5
f 180/2/5 177/2/5 179/2/5
f 181/2/5 177/2/5 180/2/5
f 182/2/5 177/2/5 181/2/5
f 184/2/5 179/2/5 178/2/5
f 184/2/5 180/2/5 179/2/5
f 185/1/5 181/1/5 180/1/5
f 185/2/5 180/2/5 184/2/5
f 186/1/5 181/1/5 185/1/5
f 187/2/5 183/2/5 182/2/5
f 187/1/5 181/1/5 186/1/5
f 187/2/5 182/2/5 181/2/5
f 188/2/5 183/2/5 187/2/5
f 189/2/5 183/2/5 188/2/5
f 190/1/5 186/1/5 185/1/5
f 190/1/5 185/1/5 184/1/5
f 191/4/5 187/4/5 186/4/5
f 191/1/5 186/1/5 190/1/5
f 191/4/5 188/4/5 187/4/5
f 192/1/5 189/1/5 188/1/5
f 192/4/5 188/4/5 191/4/5
f 193/2/5 183/2/5 189/2/5
f 193/1/5 189/1/5 192/1/5
f 194/1/5 190/1/5 184/1/5
f 195/4/5 192/4/5 191/4/5
f 195/1/5 190/1/5 194/1/5
f 195/4/5 191/4/5 190/4/5
f 195/4/5 193/4/5 192/4/5
f 196/2/5 183/2/5 193/2/5
f 196/4/5 193/4/5 195/4/5
f 197/2/5 183/2/5 196/2/5
f 198/2/5 183/2/5 197/2/5
f 199/2/5 183/2/5 198/2/5
f 202/2/5 184/2/5 178/2/5
f 203/4/5 195/4/5 194/4/5
f 203/4/5 196/4/5 195/4/5
f 203/4/5 197/4/5 196/4/5
f 203/1/5 198/1/5 197/1/5
f 204/1/5 198/1/5 203/1/5
f 205/2/5 202/2/5 201/2/5
f 205/2/5 184/2/5 202/2/5
f 206/1/5 194/1/5 184/1/5
f 206/2/5 184/2/5 205/2/5
f 207/1/5 194/1/5 206/1/5
f 208/4/5 204/4/5 203/4/5
f 208/1/5 194/1/5 207/1/5
f 208/4/5 203/4/5 194/4/5
f 209/1/5 207/1/5 206/1/5
f 209/1/5 206/1/5 205/1/5
f 209/4/5 208/4/5 207/4/5
f 210/4/5 204/4/5 208/4/5
f 210/4/5 208/4/5 209/4/5
f 211/4/5 204/4/5 210/4/5
f 212/4/5 204/4/5 211/4/5
f 213/1/5 198/1/5 204/1/5
f 213/2/5 200/2/5 199/2/5
f 213/2/5 199/2/5 198/2/5
f 214/2/5 200/2/5 213/2/5
f 215/2/5 205/2/5 201/2/5
f 216/1/5 209/1/5 205/1/5
f 216/2/5 205/2/5 215/2/5
f 216/1/5 210/1/5 209/1/5
f 217/1/5 210/1/5 216/1/5
f 218/4/5 211/4/5 210/4/5
f 218/1/5 210/1/5 217/1/5
f 219/4/5 204/4/5 212/4/5
f 219/1/5 214/1/5 213/1/5
f 219/1/5 213/1/5 204/1/5
f 220/1/5 214/1/5 219/1/5
f 222/1/5 217/1/5 216/1/5
f 223/4/5 218/4/5 217/4/5
f 223/1/5 217/1/5 222/1/5
f 224/4/5 218/4/5 223/4/5
f 225/4/5 211/4/5 218/4/5
f 225/4/5 218/4/5 224/4/5
f 225/3/5 212/3/5 211/3/5
f 226/4/5 220/4/5 219/4/5
f 226/3/5 212/3/5 225/3/5
f 226/4/5 219/4/5 212/4/5
f 227/4/5 220/4/5 226/4/5
f 228/4/5 220/4/5 227/4/5
f 229/1/5 224/1/5 223/1/5
f 229/2/5 223/2/5 222/2/5
f 229/2/5 222/2/5 221/2/5
f 230/4/5 225/4/5 224/4/5
f 230/1/5 224/1/5 229/1/5
f 230/4/5 227/4/5 226/4/5
f 230/4/5 226/4/5 225/4/5
f 231/2/5 228/2/5 227/2/5
f 231/4/5 227/4/5 230/4/5
f 232/4/5 220/4/5 228/4/5
f 232/2/5 228/2/5 231/2/5
f 233/4/5 220/4/5 232/4/5
f 234/4/5 220/4/5 233/4/5
f 235/2/5 200/2/5 214/2/5
f 237/4/5 231/4/5 230/4/5
f 237/4/5 230/4/5 229/4/5
f 237/4/5 232/4/5 231/4/5
f 237/3/5 234/3/5 233/3/5
f 237/4/5 233/4/5 232/4/5
f 238/4/5 220/4/5 234/4/5
f 238/3/5 234/3/5 237/3/5
f 239/4/5 237/4/5 229/4/5
f 239/4/5 238/4/5 237/4/5
f 240/4/5 238/4/5 239/4/5
f 241/2/5 229/2/5 221/2/5
f 242/4/5 239/4/5 229/4/5
f 242/2/5 229/2/5 241/2/5
f 243/1/5 242/1/5 241/1/5
f 243/4/5 239/4/5 242/4/5
f 244/4/5 239/4/5 243/4/5
f 245/3/5 240/3/5 239/3/5
f 245/4/5 239/4/5 244/4/5
f 246/4/5 238/4/5 240/4/5
f 246/3/5 240/3/5 245/3/5
f 247/4/5 220/4/5 238/4/5
f 247/4/5 238/4/5 246/4/5
f 247/1/5 214/1/5 220/1/5
f 248/2/5 236/2/5 235/2/5
f 248/1/5 214/1/5 247/1/5
f 248/2/5 235/2/5 214/2/5
f 249/2/5 236/2/5 248/2/5
f 250/2/5 236/2/5 249/2/5
f 251/1/5 244/1/5 243/1/5
f 251/1/5 243/1/5 241/1/5
f 251/2/5 241/2/5 221/2/5
f 252/1/5 244/1/5 251/1/5
f 253/4/5 246/4/5 245/4/5
f 253/1/5 244/1/5 252/1/5
f 253/4/5 247/4/5 246/4/5
f 253/4/5 245/4/5 244/4/5
f 254/4/5 247/4/5 253/4/5
f 255/1/5 253/1/5 252/1/5
f 255/1/5 254/1/5 253/1/5
f 256/4/5 247/4/5 254/4/5
f 256/1/5 254/1/5 255/1/5
f 257/4/5 247/4/5 256/4/5
f 258/2/5 248/2/5 247/2/5
f 258/4/5 247/4/5 257/4/5
f 258/2/5 249/2/5 248/2/5
f 259/4/5 257/4/5 256/4/5
f 259/4/5 256/4/5 255/4/5
f 260/2/5 258/2/5 257/2/5
f 260/4/5 257/4/5 259/4/5
f 261/2/5 252/2/5 251/2/5
f 261/2/5 251/2/5 221/2/5
f 262/2/5 252/2/5 261/2/5
f 263/1/5 255/1/5 252/1/5
f 263/2/5 252/2/5 262/2/5
f 264/4/5 259/4/5 255/4/5
f 264/1/5 255/1/5 263/1/5
f 265/4/5 259/4/5 264/4/5
f 266/4/5 259/4/5 265/4/5
f 267/1/5 260/1/5 259/1/5
f 267/4/5 259/4/5 266/4/5
f 268/2/5 258/2/5 260/2/5
f 268/2/5 249/2/5 258/2/5
f 269/2/5 249/2/5 268/2/5
f 270/2/5 263/2/5 262/2/5
f 270/2/5 264/2/5 263/2/5
f 270/1/5 265/1/5 264/1/5
f 271/1/5 265/1/5 270/1/5
f 272/4/5 266/4/5 265/4/5
f 272/1/5 265/1/5 271/1/5
f 273/4/5 266/4/5 272/4/5
f 274/4/5 266/4/5 273/4/5
f 275/1/5 267/1/5 266/1/5
f 275/4/5 266/4/5 274/4/5
f 276/1/5 260/1/5 267/1/5
f 276/1/5 267/1/5 275/1/5
f 277/2/5 268/2/5 260/2/5
f 277/1/5 260/1/5 276/1/5
f 278/2/5 271/2/5 270/2/5
f 278/1/5 272/1/5 271/1/5
f 278/1/5 273/1/5 272/1/5
f 279/1/5 273/1/5 278/1/5
f 280/4/5 274/4/5 273/4/5
f 280/1/5 273/1/5 279/1/5
f 281/4/5 274/4/5 280/4/5
f 282/1/5 275/1/5 274/1/5
f 282/4/5 274/4/5 281/4/5
f 282/1/5 276/1/5 275/1/5
f 283/2/5 277/2/5 276/2/5
f 283/1/5 276/1/5 282/1/5
f 284/2/5 279/2/5 278/2/5
f 284/2/5 270/2/5 262/2/5
f 284/2/5 278/2/5 270/2/5
f 285/1/5 281/1/5 280/1/5
f 285/2/5 279/2/5 284/2/5
f 285/1/5 280/1/5 279/1/5
f 286/2/5 282/2/5 281/2/5
f 286/1/5 281/1/5 285/1/5
f 286/2/5 283/2/5 282/2/5
f 287/2/5 277/2/5 283/2/5
f 287/2/5 283/2/5 286/2/5
f 288/2/5 268/2/5 277/2/5
f 288/2/5 277/2/5 287/2/5
f 289/2/5 287/2/5 286/2/5
f 289/2/5 286/2/5 285/2/5
f 290/2/5 287/2/5 289/2/5
f 291/2/5 287/2/5 290/2/5
f 292/2/5 287/2/5 291/2/5
f 293/2/5 291/2/5 290/2/5
f 294/2/5 291/2/5 293/2/5
f 295/2/6 296/2/6 298/2/6
f 298/2/6 296/2/6 299/2/6
f 297/2/6 298/2/6 302/2/6
f 299/2/6 300/2/6 302/2/6
f 298/2/6 299/2/6 302/2/6
f 302/2/6 300/2/6 303/2/6
f 303/2/6 300/2/6 304/2/6
f 304/2/6 300/2/6 305/2/6
f 301/2/6 302/2/6 307/2/6
f 302/2/6 303/2/6 307/2/6
f 303/1/6 304/1/6 308/1/6
f 307/2/6 303/2/6 308/2/6
f 308/1/6 304/1/6 309/1/6
f 305/2/6 306/2/6 310/2/6
f 309/1/6 304/1/6 310/1/6
f 304/2/6 305/2/6 310/2/6
f 310/2/6 306/2/6 311/2/6
f 311/2/6 306/2/6 312/2/6
f 308/1/6 309/1/6 313/1/6
f 307/1/6 308/1/6 313/1/6
f 309/4/6 310/4/6 314/4/6
f 313/1/6 309/1/6 314/1/6
f 310/4/6 311/4/6 314/4/6
f 311/1/6 312/1/6 315/1/6
f 314/4/6 311/4/6 315/4/6
f 312/2/6 306/2/6 316/2/6
f 315/1/6 312/1/6 316/1/6
f 307/1/6 313/1/6 317/1/6
f 314/4/6 315/4/6 318/4/6
f 317/1/6 313/1/6 318/1/6
f 313/4/6 314/4/6 318/4/6
f 315/4/6 316/4/6 318/4/6
f 316/2/6 306/2/6 319/2/6
f 318/4/6 316/4/6 319/4/6
f 319/2/6 306/2/6 320/2/6
f 320/2/6 306/2/6 321/2/6
f 321/2/6 306/2/6 322/2/6
f 301/2/6 307/2/6 325/2/6
f 317/4/6 318/4/6 326/4/6
f 318/4/6 319/4/6 326/4/6
f 319/4/6 320/4/6 326/4/6
f 320/1/6 321/1/6 326/1/6
f 326/1/6 321/1/6 327/1/6
f 324/2/6 325/2/6 328/2/6
f 325/2/6 307/2/6 328/2/6
f 307/1/6 317/1/6 329/1/6
f 328/2/6 307/2/6 329/2/6
f 329/1/6 317/1/6 330/1/6
f 326/4/6 327/4/6 331/4/6
f 330/1/6 317/1/6 331/1/6
f 317/4/6 326/4/6 331/4/6
f 324/2/6 328/2/6 332/2/6
f 329/1/6 330/1/6 333/1/6
f 332/2/6 328/2/6 333/2/6
f 328/1/6 329/1/6 333/1/6
f 330/4/6 331/4/6 334/4/6
f 333/1/6 330/1/6 334/1/6
f 331/4/6 327/4/6 335/4/6
f 334/4/6 331/4/6 335/4/6
f 335/4/6 327/4/6 336/4/6
f 336/4/6 327/4/6 337/4/6
f 327/1/6 321/1/6 338/1/6
f 322/2/6 323/2/6 338/2/6
f 321/2/6 322/2/6 338/2/6
f 338/2/6 323/2/6 339/2/6
f 333/1/6 334/1/6 340/1/6
f 334/1/6 335/1/6 340/1/6
f 340/1/6 335/1/6 341/1/6
f 335/4/6 336/4/6 342/4/6
f 341/1/6 335/1/6 342/1/6
f 337/4/6 327/4/6 343/4/6
f 338/1/6 339/1/6 343/1/6
f 327/1/6 338/1/6 343/1/6
f 343/1/6 339/1/6 344/1/6
f 340/1/6 341/1/6 346/1/6
f 341/4/6 342/4/6 347/4/6
f 346/1/6 341/1/6 347/1/6
f 347/4/6 342/4/6 348/4/6
f 342/4/6 336/4/6 349/4/6
f 348/4/6 342/4/6 349/4/6
f 336/3/6 337/3/6 349/3/6
f 337/4/6 343/4/6 350/4/6
f 349/3/6 337/3/6 350/3/6
f 343/4/6 344/4/6 350/4/6
f 350/4/6 344/4/6 351/4/6
f 351/4/6 344/4/6 352/4/6
f 347/1/6 348/1/6 353/1/6
f 346/2/6 347/2/6 353/2/6
f 345/2/6 346/2/6 353/2/6
f 350/4/6 351/4/6 354/4/6
f 353/1/6 348/1/6 354/1/6
f 349/4/6 350/4/6 354/4/6
f 348/4/6 349/4/6 354/4/6
f 354/4/6 351/4/6 355/4/6
f 352/4/6 344/4/6 356/4/6
f 356/4/6 344/4/6 357/4/6
f 357/4/6 344/4/6 358/4/6
f 339/2/6 323/2/6 359/2/6
f 354/4/6 355/4/6 361/4/6
f 353/4/6 354/4/6 361/4/6
f 355/4/6 356/4/6 361/4/6
f 357/3/6 358/3/6 361/3/6
f 356/4/6 357/4/6 361/4/6
f 358/4/6 344/4/6 362/4/6
f 361/3/6 358/3/6 362/3/6
f 353/4/6 361/4/6 363/4/6
f 361/4/6 362/4/6 363/4/6
f 363/4/6 362/4/6 364/4/6
f 345/2/6 353/2/6 365/2/6
f 353/4/6 363/4/6 366/4/6
f 365/2/6 353/2/6 366/2/6
f 365/1/6 366/1/6 367/1/6
f 366/4/6 363/4/6 367/4/6
f 367/4/6 363/4/6 368/4/6
f 363/3/6 364/3/6 369/3/6
f 368/4/6 363/4/6 369/4/6
f 364/4/6 362/4/6 370/4/6
f 369/3/6 364/3/6 370/3/6
f 362/4/6 344/4/6 371/4/6
f 370/4/6 362/4/6 371/4/6
f 344/1/6 339/1/6 371/1/6
f 359/2/6 360/2/6 372/2/6
f 371/1/6 339/1/6 372/1/6
f 339/2/6 359/2/6 372/2/6
f 372/2/6 360/2/6 373/2/6
f 373/2/6 360/2/6 374/2/6
f 365/1/6 367/1/6 375/1/6
f 367/1/6 368/1/6 375/1/6
f 345/2/6 365/2/6 375/2/6
f 375/1/6 368/1/6 376/1/6
f 369/4/6 370/4/6 377/4/6
f 376/1/6 368/1/6 377/1/6
f 370/4/6 371/4/6 377/4/6
f 368/4/6 369/4/6 377/4/6
f 377/4/6 371/4/6 378/4/6
f 376/1/6 377/1/6 379/1/6
f 377/1/6 378/1/6 379/1/6
f 378/4/6 371/4/6 380/4/6
f 379/1/6 378/1/6 380/1/6
f 380/4/6 371/4/6 381/4/6
f 371/2/6 372/2/6 382/2/6
f 381/4/6 371/4/6 382/4/6
f 372/2/6 373/2/6 382/2/6
f 380/4/6 381/4/6 383/4/6
f 379/4/6 380/4/6 383/4/6
f 381/2/6 382/2/6 384/2/6
f 383/4/6 381/4/6 384/4/6
f 375/2/6 376/2/6 385/2/6
f 345/2/6 375/2/6 385/2/6
f 385/2/6 376/2/6 386/2/6
f 376/1/6 379/1/6 387/1/6
f 386/2/6 376/2/6 387/2/6
f 379/4/6 383/4/6 388/4/6
f 387/1/6 379/1/6 388/1/6
f 388/4/6 383/4/6 389/4/6
f 389/4/6 383/4/6 390/4/6
f 383/1/6 384/1/6 391/1/6
f 390/4/6 383/4/6 391/4/6
f 384/2/6 382/2/6 392/2/6
f 382/2/6 373/2/6 392/2/6
f 392/2/6 373/2/6 393/2/6
f 386/2/6 387/2/6 394/2/6
f 387/2/6 388/2/6 394/2/6
f 388/1/6 389/1/6 394/1/6
f 394/1/6 389/1/6 395/1/6
f 389/4/6 390/4/6 396/4/6
f 395/1/6 389/1/6 396/1/6
f 396/4/6 390/4/6 397/4/6
f 397/4/6 390/4/6 398/4/6
f 390/1/6 391/1/6 399/1/6
f 398/4/6 390/4/6 399/4/6
f 391/1/6 384/1/6 400/1/6
f 399/1/6 391/1/6 400/1/6
f 384/2/6 392/2/6 401/2/6
f 400/1/6 384/1/6 401/1/6
f 394/2/6 395/2/6 402/2/6
f 395/1/6 396/1/6 402/1/6
f 396/1/6 397/1/6 402/1/6
f 402/1/6 397/1/6 403/1/6
f 397/4/6 398/4/6 404/4/6
f 403/1/6 397/1/6 404/1/6
f 404/4/6 398/4/6 405/4/6
f 398/1/6 399/1/6 406/1/6
f 405/4/6 398/4/6 406/4/6
f 399/1/6 400/1/6 406/1/6
f 400/2/6 401/2/6 407/2/6
f 406/1/6 400/1/6 407/1/6
f 402/2/6 403/2/6 408/2/6
f 386/2/6 394/2/6 408/2/6
f 394/2/6 402/2/6 408/2/6
f 404/1/6 405/1/6 409/1/6
f 408/2/6 403/2/6 409/2/6
f 403/1/6 404/1/6 409/1/6
f 405/2/6 406/2/6 410/2/6
f 409/1/6 405/1/6 410/1/6
f 406/2/6 407/2/6 410/2/6
f 407/2/6 401/2/6 411/2/6
f 410/2/6 407/2/6 411/2/6
f 401/2/6 392/2/6 412/2/6
f 411/2/6 401/2/6 412/2/6
f 410/2/6 411/2/6 413/2/6
f 409/2/6 410/2/6 413/2/6
f 413/2/6 411/2/6 414/2/6
f 414/2/6 411/2/6 415/2/6
f 415/2/6 411/2/6 416/2/6
f 414/2/6 415/2/6 417/2/6
f 417/2/6 415/2/6 418/2/6
f 419/2/6 420/2/6 421/2/6
f 421/2/6 420/2/6 422/2/6
f 423/2/6 424/2/6 425/2/6
f 425/2/6 424/2/6 426/2/6
