# MagicaVoxel @ Ephtracy

# group
o 

# material
mtllib OldArt2.mtl
usemtl palette

# normals
vn -1 0 0
vn 1 0 0
vn 0 0 1
vn 0 0 -1
vn 0 -1 0
vn 0 1 0

# texcoords
vt 0.310547 0.5
vt 0.330078 0.5
vt 0.986328 0.5
vt 0.990234 0.5

# verts
v -2 0.7 0.1
v -2 0.7 -0.1
v -2 0.8 0.1
v -2 0.8 -0.1
v -1.9 0 -0.1
v -1.9 0 -0.8
v -1.9 0.6 0.1
v -1.9 0.6 -0.1
v -1.9 0.7 0.1
v -1.9 0.7 -0.1
v -1.9 0.8 -0.1
v -1.9 0.8 -0.8
v -1.8 0 -0.8
v -1.8 0 -0.9
v -1.8 0.8 -0.1
v -1.8 0.8 -0.8
v -1.8 0.8 -0.9
v -1.8 0.9 -0.1
v -1.8 0.9 -0.8
v -1.7 0.1 0.1
v -1.7 0.1 -0.1
v -1.7 0.6 0.1
v -1.7 0.6 -0.1
v -1.7 0.8 0.1
v -1.7 0.8 -0.1
v -1.7 0.9 -0.1
v -1.7 1 0.1
v -1.7 1 -0.1
v -1.6 0 0.1
v -1.6 0 -0.1
v -1.6 0 -0.9
v -1.6 0 -1.5
v -1.6 0.1 0.1
v -1.6 0.1 -0.1
v -1.6 0.6 0.2
v -1.6 0.6 0.1
v -1.6 0.7 -0.9
v -1.6 0.7 -1.5
v -1.6 1 0.1
v -1.6 1.4 0.1
v -1.6 1.4 -0.1
v -1.6 1.5 0.2
v -1.6 1.5 0.1
v -1.6 1.7 0.1
v -1.6 1.7 -0.1
v -1.5 0.7 -0.9
v -1.5 0.7 -1.4
v -1.5 0.8 -0.9
v -1.5 0.8 -1.4
v -0.4 0 0.4
v -0.4 0 0.3
v -0.4 0 -0.3
v -0.4 0 -0.4
v -0.4 0.5 0.4
v -0.4 0.5 0.3
v -0.4 0.5 -0.3
v -0.4 0.5 -0.4
v -0.3 0.5 0.3
v -0.3 0.5 0.2
v -0.3 0.5 -0.2
v -0.3 0.5 -0.3
v -0.3 1.2 0.3
v -0.3 1.2 0.2
v -0.3 1.2 -0.2
v -0.3 1.2 -0.3
v -0.3 1.3 0.2
v -0.3 1.3 -0.2
v -0.2 1.3 0.2
v -0.2 1.3 0.1
v -0.2 1.3 -0.1
v -0.2 1.3 -0.2
v -0.2 1.5 0.2
v -0.2 1.5 0.1
v -0.2 1.5 -0.1
v -0.2 1.5 -0.2
v -0.2 1.7 0.1
v -0.2 1.7 -0.1
v -0.2 1.8 0.1
v -0.2 1.8 -0.1
v -0.0999999 1.5 0.2
v -0.0999999 1.5 0.1
v -0.0999999 1.5 -0.1
v -0.0999999 1.5 -0.2
v -0.0999999 1.7 0.2
v -0.0999999 1.7 0.1
v -0.0999999 1.7 -0.1
v -0.0999999 1.7 -0.2
v 0.2 0.5 0.3
v 0.2 0.5 0.2
v 0.2 0.5 -0.2
v 0.2 0.5 -0.3
v 0.2 1.2 0.3
v 0.2 1.2 0.2
v 0.2 1.2 0.1
v 0.2 1.2 -0.1
v 0.2 1.2 -0.2
v 0.2 1.2 -0.3
v 0.2 1.3 0.1
v 0.2 1.3 -0.1
v 0.3 0 0.4
v 0.3 0 0.3
v 0.3 0 -0.3
v 0.3 0 -0.4
v 0.3 0.5 0.4
v 0.3 0.5 0.3
v 0.3 0.5 -0.3
v 0.3 0.5 -0.4
v 1.4 1.3 0.2
v 1.4 1.3 -0.2
v 1.4 1.5 0.1
v 1.4 1.5 -0.1
v 1.4 1.7 0.1
v 1.4 1.7 -0.1
v 1.4 1.9 0.2
v 1.4 1.9 -0.2
v 1.5 1.1 0.2
v 1.5 1.1 -0.2
v 1.5 1.3 0.2
v 1.5 1.3 -0.2
v 1.5 1.9 0.2
v 1.5 1.9 -0.2
v 1.5 2.1 0.2
v 1.5 2.1 -0.2
v -1.5 0 0.1
v -1.5 0 -0.1
v -1.5 0.1 0.1
v -1.5 0.1 -0.1
v -1.5 0.6 0.2
v -1.5 0.6 0.1
v -1.5 1 0.1
v -1.5 1.4 0.1
v -1.5 1.5 0.2
v -1.5 1.5 0.1
v -1.4 0.1 0.1
v -1.4 0.1 -0.1
v -1.4 0.6 0.1
v -1.4 0.6 -0.1
v -1.4 0.8 0.1
v -1.4 0.8 -0.1
v -1.4 0.9 -0.1
v -1.4 1 0.1
v -1.4 1 -0.1
v -1.4 1.4 0.1
v -1.4 1.4 -0.1
v -1.4 1.5 0.1
v -1.4 1.5 -0.1
v -1.2 0.6 0.1
v -1.2 0.6 -0.1
v -1.2 0.7 0.1
v -1.2 0.7 -0.1
v -1.2 0.8 -0.1
v -1.2 0.8 -0.8
v -1.2 0.9 -0.1
v -1.2 0.9 -0.8
v -1.1 0 -0.1
v -1.1 0 -0.6
v -1.1 0.7 0.1
v -1.1 0.7 -0.1
v -1.1 0.7 -0.6
v -1.1 0.7 -0.7
v -1.1 0.8 0.1
v -1.1 0.8 -0.1
v -1.1 0.8 -0.7
v -0.6 0.7 -0.7
v -0.6 0.7 -1.4
v -0.6 0.8 -0.7
v -0.6 0.8 -1.4
v -0.5 0 -0.6
v -0.5 0 -1.5
v -0.5 0.7 -0.6
v -0.5 0.7 -1.5
v -0.3 0 0.4
v -0.3 0 0.3
v -0.3 0 -0.3
v -0.3 0 -0.4
v -0.3 0.5 0.4
v -0.3 0.5 0.3
v -0.3 0.5 -0.3
v -0.3 0.5 -0.4
v -0.2 0.5 0.3
v -0.2 0.5 0.2
v -0.2 0.5 -0.2
v -0.2 0.5 -0.3
v -0.2 1.2 0.3
v -0.2 1.2 0.2
v -0.2 1.2 0.1
v -0.2 1.2 -0.1
v -0.2 1.2 -0.2
v -0.2 1.2 -0.3
v -0.2 1.3 0.1
v -0.2 1.3 -0.1
v 0.1 1.5 0.2
v 0.1 1.5 0.1
v 0.1 1.5 -0.1
v 0.1 1.5 -0.2
v 0.1 1.7 0.2
v 0.1 1.7 0.1
v 0.1 1.7 -0.1
v 0.1 1.7 -0.2
v 0.2 1.3 0.2
v 0.2 1.3 0.1
v 0.2 1.3 -0.1
v 0.2 1.3 -0.2
v 0.2 1.5 0.2
v 0.2 1.5 0.1
v 0.2 1.5 -0.1
v 0.2 1.5 -0.2
v 0.2 1.7 0.1
v 0.2 1.7 -0.1
v 0.2 1.8 0.1
v 0.2 1.8 -0.1
v 0.3 0.5 0.3
v 0.3 0.5 0.2
v 0.3 0.5 -0.2
v 0.3 0.5 -0.3
v 0.3 1.2 0.3
v 0.3 1.2 0.2
v 0.3 1.2 -0.2
v 0.3 1.2 -0.3
v 0.3 1.3 0.2
v 0.3 1.3 -0.2
v 0.4 0 0.4
v 0.4 0 0.3
v 0.4 0 -0.3
v 0.4 0 -0.4
v 0.4 0.5 0.4
v 0.4 0.5 0.3
v 0.4 0.5 -0.3
v 0.4 0.5 -0.4
v 1.6 1.1 0.2
v 1.6 1.1 -0.2
v 1.6 1.2 0.2
v 1.6 1.2 -0.2
v 1.6 2 0.2
v 1.6 2 -0.2
v 1.6 2.1 0.2
v 1.6 2.1 -0.2
v 1.7 1.2 0.2
v 1.7 1.2 -0.2
v 1.7 1.3 0.2
v 1.7 1.3 -0.2
v 1.7 1.9 0.2
v 1.7 1.9 -0.2
v 1.7 2 0.2
v 1.7 2 -0.2
v 1.8 1.3 0.2
v 1.8 1.3 -0.2
v 1.8 1.9 0.2
v 1.8 1.9 -0.2
v -0.4 0 0.4
v -0.4 0.5 0.4
v -0.3 0 0.4
v -0.3 0.5 0.4
v 0.3 0 0.4
v 0.3 0.5 0.4
v 0.4 0 0.4
v 0.4 0.5 0.4
v -0.3 0.5 0.3
v -0.3 1.2 0.3
v -0.2 0.5 0.3
v -0.2 1.2 0.3
v 0.2 0.5 0.3
v 0.2 1.2 0.3
v 0.3 0.5 0.3
v 0.3 1.2 0.3
v -1.6 0.6 0.2
v -1.6 1.5 0.2
v -1.5 0.6 0.2
v -1.5 1.5 0.2
v -0.3 1.2 0.2
v -0.3 1.3 0.2
v -0.2 1.2 0.2
v -0.2 1.3 0.2
v -0.2 1.5 0.2
v -0.0999999 1.5 0.2
v -0.0999999 1.7 0.2
v 0.1 1.5 0.2
v 0.1 1.7 0.2
v 0.2 1.2 0.2
v 0.2 1.3 0.2
v 0.2 1.5 0.2
v 0.3 1.2 0.2
v 0.3 1.3 0.2
v 1.4 1.3 0.2
v 1.4 1.9 0.2
v 1.5 1.1 0.2
v 1.5 1.3 0.2
v 1.5 1.9 0.2
v 1.5 2.1 0.2
v 1.6 1.1 0.2
v 1.6 1.2 0.2
v 1.6 2 0.2
v 1.6 2.1 0.2
v 1.7 1.2 0.2
v 1.7 1.3 0.2
v 1.7 1.9 0.2
v 1.7 2 0.2
v 1.8 1.3 0.2
v 1.8 1.9 0.2
v -2 0.7 0.1
v -2 0.8 0.1
v -1.9 0.6 0.1
v -1.9 0.7 0.1
v -1.7 0.1 0.1
v -1.7 0.6 0.1
v -1.7 0.8 0.1
v -1.7 1 0.1
v -1.6 0 0.1
v -1.6 0.1 0.1
v -1.6 0.6 0.1
v -1.6 1 0.1
v -1.6 1.5 0.1
v -1.6 1.7 0.1
v -1.5 0 0.1
v -1.5 0.1 0.1
v -1.5 0.6 0.1
v -1.5 1 0.1
v -1.5 1.4 0.1
v -1.5 1.5 0.1
v -1.4 0.1 0.1
v -1.4 0.6 0.1
v -1.4 0.8 0.1
v -1.4 1 0.1
v -1.4 1.4 0.1
v -1.4 1.5 0.1
v -1.2 0.6 0.1
v -1.2 0.7 0.1
v -1.1 0.7 0.1
v -1.1 0.8 0.1
v -0.2 1.5 0.1
v -0.2 1.7 0.1
v -0.2 1.8 0.1
v -0.0999999 1.5 0.1
v -0.0999999 1.7 0.1
v 0.1 1.5 0.1
v 0.1 1.7 0.1
v 0.2 1.5 0.1
v 0.2 1.7 0.1
v 0.2 1.8 0.1
v 1.4 1.5 0.1
v 1.4 1.7 0.1
v -1.9 0 -0.1
v -1.9 0.6 -0.1
v -1.8 0.8 -0.1
v -1.8 0.9 -0.1
v -1.7 0.1 -0.1
v -1.7 0.6 -0.1
v -1.7 0.8 -0.1
v -1.7 0.9 -0.1
v -1.6 0 -0.1
v -1.6 0.1 -0.1
v -1.5 0 -0.1
v -1.5 0.1 -0.1
v -1.4 0.1 -0.1
v -1.4 0.6 -0.1
v -1.4 0.8 -0.1
v -1.4 0.9 -0.1
v -1.2 0.6 -0.1
v -1.2 0.7 -0.1
v -1.2 0.8 -0.1
v -1.2 0.9 -0.1
v -1.1 0 -0.1
v -1.1 0.7 -0.1
v -0.2 1.2 -0.1
v -0.2 1.3 -0.1
v -0.2 1.5 -0.1
v 0.2 1.2 -0.1
v 0.2 1.3 -0.1
v 0.2 1.5 -0.1
v -0.3 0.5 -0.2
v -0.3 1.2 -0.2
v -0.2 0.5 -0.2
v -0.2 1.2 -0.2
v 0.2 0.5 -0.2
v 0.2 1.2 -0.2
v 0.3 0.5 -0.2
v 0.3 1.2 -0.2
v -0.4 0 -0.3
v -0.4 0.5 -0.3
v -0.3 0 -0.3
v -0.3 0.5 -0.3
v 0.3 0 -0.3
v 0.3 0.5 -0.3
v 0.4 0 -0.3
v 0.4 0.5 -0.3
v -1.1 0 -0.6
v -1.1 0.7 -0.6
v -0.5 0 -0.6
v -0.5 0.7 -0.6
v -1.1 0.7 -0.7
v -1.1 0.8 -0.7
v -0.6 0.7 -0.7
v -0.6 0.8 -0.7
v -0.4 0 0.3
v -0.4 0.5 0.3
v -0.3 0 0.3
v -0.3 0.5 0.3
v 0.3 0 0.3
v 0.3 0.5 0.3
v 0.4 0 0.3
v 0.4 0.5 0.3
v -0.3 0.5 0.2
v -0.3 1.2 0.2
v -0.2 0.5 0.2
v -0.2 1.2 0.2
v 0.2 0.5 0.2
v 0.2 1.2 0.2
v 0.3 0.5 0.2
v 0.3 1.2 0.2
v -1.6 1 0.1
v -1.6 1.4 0.1
v -1.5 1 0.1
v -1.5 1.4 0.1
v -0.2 1.2 0.1
v -0.2 1.3 0.1
v -0.2 1.5 0.1
v 0.2 1.2 0.1
v 0.2 1.3 0.1
v 0.2 1.5 0.1
v -2 0.7 -0.1
v -2 0.8 -0.1
v -1.9 0.7 -0.1
v -1.9 0.8 -0.1
v -1.7 0.9 -0.1
v -1.7 1 -0.1
v -1.6 1.4 -0.1
v -1.6 1.7 -0.1
v -1.4 0.9 -0.1
v -1.4 1 -0.1
v -1.4 1.4 -0.1
v -1.4 1.5 -0.1
v -0.2 1.5 -0.1
v -0.2 1.7 -0.1
v -0.2 1.8 -0.1
v -0.0999999 1.5 -0.1
v -0.0999999 1.7 -0.1
v 0.1 1.5 -0.1
v 0.1 1.7 -0.1
v 0.2 1.5 -0.1
v 0.2 1.7 -0.1
v 0.2 1.8 -0.1
v 1.4 1.5 -0.1
v 1.4 1.7 -0.1
v -0.3 1.2 -0.2
v -0.3 1.3 -0.2
v -0.2 1.2 -0.2
v -0.2 1.3 -0.2
v -0.2 1.5 -0.2
v -0.0999999 1.5 -0.2
v -0.0999999 1.7 -0.2
v 0.1 1.5 -0.2
v 0.1 1.7 -0.2
v 0.2 1.2 -0.2
v 0.2 1.3 -0.2
v 0.2 1.5 -0.2
v 0.3 1.2 -0.2
v 0.3 1.3 -0.2
v 1.4 1.3 -0.2
v 1.4 1.9 -0.2
v 1.5 1.1 -0.2
v 1.5 1.3 -0.2
v 1.5 1.9 -0.2
v 1.5 2.1 -0.2
v 1.6 1.1 -0.2
v 1.6 1.2 -0.2
v 1.6 2 -0.2
v 1.6 2.1 -0.2
v 1.7 1.2 -0.2
v 1.7 1.3 -0.2
v 1.7 1.9 -0.2
v 1.7 2 -0.2
v 1.8 1.3 -0.2
v 1.8 1.9 -0.2
v -0.3 0.5 -0.3
v -0.3 1.2 -0.3
v -0.2 0.5 -0.3
v -0.2 1.2 -0.3
v 0.2 0.5 -0.3
v 0.2 1.2 -0.3
v 0.3 0.5 -0.3
v 0.3 1.2 -0.3
v -0.4 0 -0.4
v -0.4 0.5 -0.4
v -0.3 0 -0.4
v -0.3 0.5 -0.4
v 0.3 0 -0.4
v 0.3 0.5 -0.4
v 0.4 0 -0.4
v 0.4 0.5 -0.4
v -1.9 0 -0.8
v -1.9 0.8 -0.8
v -1.8 0 -0.8
v -1.8 0.8 -0.8
v -1.8 0.9 -0.8
v -1.2 0.8 -0.8
v -1.2 0.9 -0.8
v -1.8 0 -0.9
v -1.8 0.8 -0.9
v -1.6 0 -0.9
v -1.6 0.7 -0.9
v -1.5 0.7 -0.9
v -1.5 0.8 -0.9
v -1.5 0.7 -1.4
v -1.5 0.8 -1.4
v -0.6 0.7 -1.4
v -0.6 0.8 -1.4
v -1.6 0 -1.5
v -1.6 0.7 -1.5
v -0.5 0 -1.5
v -0.5 0.7 -1.5
v -0.4 0 0.4
v -0.3 0 0.4
v 0.3 0 0.4
v 0.4 0 0.4
v -0.4 0 0.3
v -0.3 0 0.3
v 0.3 0 0.3
v 0.4 0 0.3
v -1.6 0 0.1
v -1.5 0 0.1
v -1.9 0 -0.1
v -1.6 0 -0.1
v -1.5 0 -0.1
v -1.1 0 -0.1
v -0.4 0 -0.3
v -0.3 0 -0.3
v 0.3 0 -0.3
v 0.4 0 -0.3
v -0.4 0 -0.4
v -0.3 0 -0.4
v 0.3 0 -0.4
v 0.4 0 -0.4
v -1.1 0 -0.6
v -0.5 0 -0.6
v -1.9 0 -0.8
v -1.8 0 -0.8
v -1.8 0 -0.9
v -1.6 0 -0.9
v -1.6 0 -1.5
v -0.5 0 -1.5
v -1.7 0.1 0.1
v -1.6 0.1 0.1
v -1.5 0.1 0.1
v -1.4 0.1 0.1
v -1.7 0.1 -0.1
v -1.6 0.1 -0.1
v -1.5 0.1 -0.1
v -1.4 0.1 -0.1
v -0.3 0.5 0.3
v -0.2 0.5 0.3
v 0.2 0.5 0.3
v 0.3 0.5 0.3
v -0.3 0.5 0.2
v -0.2 0.5 0.2
v 0.2 0.5 0.2
v 0.3 0.5 0.2
v -0.3 0.5 -0.2
v -0.2 0.5 -0.2
v 0.2 0.5 -0.2
v 0.3 0.5 -0.2
v -0.3 0.5 -0.3
v -0.2 0.5 -0.3
v 0.2 0.5 -0.3
v 0.3 0.5 -0.3
v -1.6 0.6 0.2
v -1.5 0.6 0.2
v -1.9 0.6 0.1
v -1.7 0.6 0.1
v -1.6 0.6 0.1
v -1.5 0.6 0.1
v -1.4 0.6 0.1
v -1.2 0.6 0.1
v -1.9 0.6 -0.1
v -1.7 0.6 -0.1
v -1.4 0.6 -0.1
v -1.2 0.6 -0.1
v -2 0.7 0.1
v -1.9 0.7 0.1
v -1.2 0.7 0.1
v -1.1 0.7 0.1
v -2 0.7 -0.1
v -1.9 0.7 -0.1
v -1.2 0.7 -0.1
v -1.1 0.7 -0.1
v 1.5 1.1 0.2
v 1.6 1.1 0.2
v 1.5 1.1 -0.2
v 1.6 1.1 -0.2
v -0.3 1.2 0.2
v -0.2 1.2 0.2
v 0.2 1.2 0.2
v 0.3 1.2 0.2
v 1.6 1.2 0.2
v 1.7 1.2 0.2
v -0.2 1.2 0.1
v 0.2 1.2 0.1
v -0.2 1.2 -0.1
v 0.2 1.2 -0.1
v -0.3 1.2 -0.2
v -0.2 1.2 -0.2
v 0.2 1.2 -0.2
v 0.3 1.2 -0.2
v 1.6 1.2 -0.2
v 1.7 1.2 -0.2
v 1.4 1.3 0.2
v 1.5 1.3 0.2
v 1.7 1.3 0.2
v 1.8 1.3 0.2
v 1.4 1.3 -0.2
v 1.5 1.3 -0.2
v 1.7 1.3 -0.2
v 1.8 1.3 -0.2
v -1.6 1.4 0.1
v -1.5 1.4 0.1
v -1.4 1.4 0.1
v -1.6 1.4 -0.1
v -1.4 1.4 -0.1
v -1.4 1.5 0.1
v -0.2 1.5 0.1
v 0.2 1.5 0.1
v 1.4 1.5 0.1
v -1.4 1.5 -0.1
v -0.2 1.5 -0.1
v 0.2 1.5 -0.1
v 1.4 1.5 -0.1
v -0.4 0.5 0.4
v -0.3 0.5 0.4
v 0.3 0.5 0.4
v 0.4 0.5 0.4
v -0.4 0.5 0.3
v -0.3 0.5 0.3
v 0.3 0.5 0.3
v 0.4 0.5 0.3
v -0.4 0.5 -0.3
v -0.3 0.5 -0.3
v 0.3 0.5 -0.3
v 0.4 0.5 -0.3
v -0.4 0.5 -0.4
v -0.3 0.5 -0.4
v 0.3 0.5 -0.4
v 0.4 0.5 -0.4
v -1.1 0.7 -0.6
v -0.5 0.7 -0.6
v -1.1 0.7 -0.7
v -0.6 0.7 -0.7
v -1.6 0.7 -0.9
v -1.5 0.7 -0.9
v -1.5 0.7 -1.4
v -0.6 0.7 -1.4
v -1.6 0.7 -1.5
v -0.5 0.7 -1.5
v -2 0.8 0.1
v -1.7 0.8 0.1
v -1.4 0.8 0.1
v -1.1 0.8 0.1
v -2 0.8 -0.1
v -1.9 0.8 -0.1
v -1.8 0.8 -0.1
v -1.7 0.8 -0.1
v -1.4 0.8 -0.1
v -1.2 0.8 -0.1
v -1.1 0.8 -0.1
v -1.1 0.8 -0.7
v -0.6 0.8 -0.7
v -1.9 0.8 -0.8
v -1.8 0.8 -0.8
v -1.2 0.8 -0.8
v -1.8 0.8 -0.9
v -1.5 0.8 -0.9
v -1.5 0.8 -1.4
v -0.6 0.8 -1.4
v -1.8 0.9 -0.1
v -1.7 0.9 -0.1
v -1.4 0.9 -0.1
v -1.2 0.9 -0.1
v -1.8 0.9 -0.8
v -1.2 0.9 -0.8
v -1.7 1 0.1
v -1.6 1 0.1
v -1.5 1 0.1
v -1.4 1 0.1
v -1.7 1 -0.1
v -1.4 1 -0.1
v -0.3 1.2 0.3
v -0.2 1.2 0.3
v 0.2 1.2 0.3
v 0.3 1.2 0.3
v -0.3 1.2 0.2
v -0.2 1.2 0.2
v 0.2 1.2 0.2
v 0.3 1.2 0.2
v -0.3 1.2 -0.2
v -0.2 1.2 -0.2
v 0.2 1.2 -0.2
v 0.3 1.2 -0.2
v -0.3 1.2 -0.3
v -0.2 1.2 -0.3
v 0.2 1.2 -0.3
v 0.3 1.2 -0.3
v -0.3 1.3 0.2
v -0.2 1.3 0.2
v 0.2 1.3 0.2
v 0.3 1.3 0.2
v -0.2 1.3 0.1
v 0.2 1.3 0.1
v -0.2 1.3 -0.1
v 0.2 1.3 -0.1
v -0.3 1.3 -0.2
v -0.2 1.3 -0.2
v 0.2 1.3 -0.2
v 0.3 1.3 -0.2
v -1.6 1.5 0.2
v -1.5 1.5 0.2
v -0.2 1.5 0.2
v -0.0999999 1.5 0.2
v 0.1 1.5 0.2
v 0.2 1.5 0.2
v -1.6 1.5 0.1
v -1.5 1.5 0.1
v -0.2 1.5 0.1
v -0.0999999 1.5 0.1
v 0.1 1.5 0.1
v 0.2 1.5 0.1
v -0.2 1.5 -0.1
v -0.0999999 1.5 -0.1
v 0.1 1.5 -0.1
v 0.2 1.5 -0.1
v -0.2 1.5 -0.2
v -0.0999999 1.5 -0.2
v 0.1 1.5 -0.2
v 0.2 1.5 -0.2
v -0.0999999 1.7 0.2
v 0.1 1.7 0.2
v -1.6 1.7 0.1
v -0.2 1.7 0.1
v -0.0999999 1.7 0.1
v 0.1 1.7 0.1
v 0.2 1.7 0.1
v 1.4 1.7 0.1
v -1.6 1.7 -0.1
v -0.2 1.7 -0.1
v -0.0999999 1.7 -0.1
v 0.1 1.7 -0.1
v 0.2 1.7 -0.1
v 1.4 1.7 -0.1
v -0.0999999 1.7 -0.2
v 0.1 1.7 -0.2
v -0.2 1.8 0.1
v 0.2 1.8 0.1
v -0.2 1.8 -0.1
v 0.2 1.8 -0.1
v 1.4 1.9 0.2
v 1.5 1.9 0.2
v 1.7 1.9 0.2
v 1.8 1.9 0.2
v 1.4 1.9 -0.2
v 1.5 1.9 -0.2
v 1.7 1.9 -0.2
v 1.8 1.9 -0.2
v 1.6 2 0.2
v 1.7 2 0.2
v 1.6 2 -0.2
v 1.7 2 -0.2
v 1.5 2.1 0.2
v 1.6 2.1 0.2
v 1.5 2.1 -0.2
v 1.6 2.1 -0.2

# faces
f 3/2/1 2/2/1 1/2/1
f 4/2/1 2/2/1 3/2/1
f 8/1/1 6/1/1 5/1/1
f 9/2/1 8/2/1 7/2/1
f 10/1/1 6/1/1 8/1/1
f 10/2/1 8/2/1 9/2/1
f 11/1/1 6/1/1 10/1/1
f 12/1/1 6/1/1 11/1/1
f 16/1/1 14/1/1 13/1/1
f 17/1/1 14/1/1 16/1/1
f 18/1/1 16/1/1 15/1/1
f 19/1/1 16/1/1 18/1/1
f 22/2/1 21/2/1 20/2/1
f 23/2/1 21/2/1 22/2/1
f 26/2/1 25/2/1 24/2/1
f 27/2/1 26/2/1 24/2/1
f 28/2/1 26/2/1 27/2/1
f 33/2/1 30/2/1 29/2/1
f 34/2/1 30/2/1 33/2/1
f 37/1/1 32/1/1 31/1/1
f 38/1/1 32/1/1 37/1/1
f 39/4/1 36/4/1 35/4/1
f 40/4/1 39/4/1 35/4/1
f 42/4/1 40/4/1 35/4/1
f 43/1/1 41/1/1 40/1/1
f 43/4/1 40/4/1 42/4/1
f 44/1/1 41/1/1 43/1/1
f 45/1/1 41/1/1 44/1/1
f 48/1/1 47/1/1 46/1/1
f 49/1/1 47/1/1 48/1/1
f 54/3/1 51/3/1 50/3/1
f 55/3/1 51/3/1 54/3/1
f 56/3/1 53/3/1 52/3/1
f 57/3/1 53/3/1 56/3/1
f 62/3/1 59/3/1 58/3/1
f 63/3/1 59/3/1 62/3/1
f 64/3/1 61/3/1 60/3/1
f 65/3/1 61/3/1 64/3/1
f 66/3/1 64/3/1 63/3/1
f 67/3/1 64/3/1 66/3/1
f 72/2/1 69/2/1 68/2/1
f 73/2/1 69/2/1 72/2/1
f 74/2/1 71/2/1 70/2/1
f 75/2/1 71/2/1 74/2/1
f 78/1/1 77/1/1 76/1/1
f 79/1/1 77/1/1 78/1/1
f 84/2/1 81/2/1 80/2/1
f 85/2/1 81/2/1 84/2/1
f 86/2/1 83/2/1 82/2/1
f 87/2/1 83/2/1 86/2/1
f 92/3/1 89/3/1 88/3/1
f 93/3/1 89/3/1 92/3/1
f 96/3/1 91/3/1 90/3/1
f 97/3/1 91/3/1 96/3/1
f 98/3/1 95/3/1 94/3/1
f 99/3/1 95/3/1 98/3/1
f 104/3/1 101/3/1 100/3/1
f 105/3/1 101/3/1 104/3/1
f 106/3/1 103/3/1 102/3/1
f 107/3/1 103/3/1 106/3/1
f 110/2/1 109/2/1 108/2/1
f 111/2/1 109/2/1 110/2/1
f 112/2/1 110/2/1 108/2/1
f 113/2/1 109/2/1 111/2/1
f 114/2/1 112/2/1 108/2/1
f 114/2/1 113/2/1 112/2/1
f 115/2/1 109/2/1 113/2/1
f 115/2/1 113/2/1 114/2/1
f 118/2/1 117/2/1 116/2/1
f 119/2/1 117/2/1 118/2/1
f 122/2/1 121/2/1 120/2/1
f 123/2/1 121/2/1 122/2/1
f 124/2/2 125/2/2 126/2/2
f 126/2/2 125/2/2 127/2/2
f 128/4/2 129/4/2 130/4/2
f 128/4/2 130/4/2 131/4/2
f 128/4/2 131/4/2 132/4/2
f 132/4/2 131/4/2 133/4/2
f 134/2/2 135/2/2 136/2/2
f 136/2/2 135/2/2 137/2/2
f 138/2/2 139/2/2 140/2/2
f 138/2/2 140/2/2 141/2/2
f 141/2/2 140/2/2 142/2/2
f 143/1/2 144/1/2 145/1/2
f 145/1/2 144/1/2 146/1/2
f 147/2/2 148/2/2 149/2/2
f 149/2/2 148/2/2 150/2/2
f 151/1/2 152/1/2 153/1/2
f 153/1/2 152/1/2 154/1/2
f 155/1/2 156/1/2 158/1/2
f 158/1/2 156/1/2 159/1/2
f 157/2/2 158/2/2 161/2/2
f 159/1/2 160/1/2 162/1/2
f 161/2/2 158/2/2 162/2/2
f 158/1/2 159/1/2 162/1/2
f 162/1/2 160/1/2 163/1/2
f 164/1/2 165/1/2 166/1/2
f 166/1/2 165/1/2 167/1/2
f 168/1/2 169/1/2 170/1/2
f 170/1/2 169/1/2 171/1/2
f 172/3/2 173/3/2 176/3/2
f 176/3/2 173/3/2 177/3/2
f 174/3/2 175/3/2 178/3/2
f 178/3/2 175/3/2 179/3/2
f 180/3/2 181/3/2 184/3/2
f 184/3/2 181/3/2 185/3/2
f 182/3/2 183/3/2 188/3/2
f 188/3/2 183/3/2 189/3/2
f 186/3/2 187/3/2 190/3/2
f 190/3/2 187/3/2 191/3/2
f 192/2/2 193/2/2 196/2/2
f 196/2/2 193/2/2 197/2/2
f 194/2/2 195/2/2 198/2/2
f 198/2/2 195/2/2 199/2/2
f 200/2/2 201/2/2 204/2/2
f 204/2/2 201/2/2 205/2/2
f 202/2/2 203/2/2 206/2/2
f 206/2/2 203/2/2 207/2/2
f 208/1/2 209/1/2 210/1/2
f 210/1/2 209/1/2 211/1/2
f 212/3/2 213/3/2 216/3/2
f 216/3/2 213/3/2 217/3/2
f 214/3/2 215/3/2 218/3/2
f 218/3/2 215/3/2 219/3/2
f 217/3/2 218/3/2 220/3/2
f 220/3/2 218/3/2 221/3/2
f 222/3/2 223/3/2 226/3/2
f 226/3/2 223/3/2 227/3/2
f 224/3/2 225/3/2 228/3/2
f 228/3/2 225/3/2 229/3/2
f 230/2/2 231/2/2 232/2/2
f 232/2/2 231/2/2 233/2/2
f 234/2/2 235/2/2 236/2/2
f 236/2/2 235/2/2 237/2/2
f 238/2/2 239/2/2 240/2/2
f 240/2/2 239/2/2 241/2/2
f 242/2/2 243/2/2 244/2/2
f 244/2/2 243/2/2 245/2/2
f 246/2/2 247/2/2 248/2/2
f 248/2/2 247/2/2 249/2/2
f 252/3/3 251/3/3 250/3/3
f 253/3/3 251/3/3 252/3/3
f 256/3/3 255/3/3 254/3/3
f 257/3/3 255/3/3 256/3/3
f 260/3/3 259/3/3 258/3/3
f 261/3/3 259/3/3 260/3/3
f 264/3/3 263/3/3 262/3/3
f 265/3/3 263/3/3 264/3/3
f 268/4/3 267/4/3 266/4/3
f 269/4/3 267/4/3 268/4/3
f 272/3/3 271/3/3 270/3/3
f 273/3/3 271/3/3 272/3/3
f 275/2/3 274/2/3 273/2/3
f 277/2/3 275/2/3 273/2/3
f 277/2/3 276/2/3 275/2/3
f 278/2/3 276/2/3 277/2/3
f 279/3/3 273/3/3 272/3/3
f 280/2/3 277/2/3 273/2/3
f 280/3/3 273/3/3 279/3/3
f 281/2/3 277/2/3 280/2/3
f 282/3/3 280/3/3 279/3/3
f 283/3/3 280/3/3 282/3/3
f 287/2/3 285/2/3 284/2/3
f 288/2/3 285/2/3 287/2/3
f 290/2/3 287/2/3 286/2/3
f 290/2/3 289/2/3 288/2/3
f 290/2/3 288/2/3 287/2/3
f 291/2/3 289/2/3 290/2/3
f 292/2/3 289/2/3 291/2/3
f 293/2/3 289/2/3 292/2/3
f 294/2/3 292/2/3 291/2/3
f 295/2/3 292/2/3 294/2/3
f 296/2/3 292/2/3 295/2/3
f 297/2/3 292/2/3 296/2/3
f 298/2/3 296/2/3 295/2/3
f 299/2/3 296/2/3 298/2/3
f 303/2/3 301/2/3 300/2/3
f 305/2/3 303/2/3 302/2/3
f 306/2/3 301/2/3 303/2/3
f 306/2/3 303/2/3 305/2/3
f 309/2/3 305/2/3 304/2/3
f 309/2/3 307/2/3 306/2/3
f 309/2/3 306/2/3 305/2/3
f 310/2/3 307/2/3 309/2/3
f 311/2/3 307/2/3 310/2/3
f 314/2/3 309/2/3 308/2/3
f 314/2/3 310/2/3 309/2/3
f 315/2/3 310/2/3 314/2/3
f 316/2/3 310/2/3 315/2/3
f 319/1/3 313/1/3 312/1/3
f 320/2/3 317/2/3 316/2/3
f 320/2/3 316/2/3 315/2/3
f 321/2/3 317/2/3 320/2/3
f 322/2/3 317/2/3 321/2/3
f 323/2/3 317/2/3 322/2/3
f 324/1/3 319/1/3 318/1/3
f 325/1/3 313/1/3 319/1/3
f 325/1/3 319/1/3 324/1/3
f 326/2/3 322/2/3 321/2/3
f 327/2/3 322/2/3 326/2/3
f 328/2/3 322/2/3 327/2/3
f 329/2/3 322/2/3 328/2/3
f 330/1/3 313/1/3 325/1/3
f 331/1/3 313/1/3 330/1/3
f 333/1/3 331/1/3 330/1/3
f 333/1/3 332/1/3 331/1/3
f 334/1/3 332/1/3 333/1/3
f 336/1/3 332/1/3 334/1/3
f 337/1/3 336/1/3 335/1/3
f 338/1/3 332/1/3 336/1/3
f 338/1/3 336/1/3 337/1/3
f 339/1/3 332/1/3 338/1/3
f 340/1/3 338/1/3 337/1/3
f 341/1/3 338/1/3 340/1/3
f 346/1/3 343/1/3 342/1/3
f 347/1/3 343/1/3 346/1/3
f 348/1/3 345/1/3 344/1/3
f 349/1/3 345/1/3 348/1/3
f 350/1/3 346/1/3 342/1/3
f 351/1/3 346/1/3 350/1/3
f 354/1/3 353/1/3 352/1/3
f 358/1/3 355/1/3 354/1/3
f 360/1/3 357/1/3 356/1/3
f 361/1/3 357/1/3 360/1/3
f 362/1/3 354/1/3 352/1/3
f 362/1/3 359/1/3 358/1/3
f 362/1/3 358/1/3 354/1/3
f 363/1/3 359/1/3 362/1/3
f 367/3/3 365/3/3 364/3/3
f 368/2/3 366/2/3 365/2/3
f 368/3/3 365/3/3 367/3/3
f 369/2/3 366/2/3 368/2/3
f 372/3/3 371/3/3 370/3/3
f 373/3/3 371/3/3 372/3/3
f 376/3/3 375/3/3 374/3/3
f 377/3/3 375/3/3 376/3/3
f 380/3/3 379/3/3 378/3/3
f 381/3/3 379/3/3 380/3/3
f 384/3/3 383/3/3 382/3/3
f 385/3/3 383/3/3 384/3/3
f 388/1/3 387/1/3 386/1/3
f 389/1/3 387/1/3 388/1/3
f 392/1/3 391/1/3 390/1/3
f 393/1/3 391/1/3 392/1/3
f 394/3/4 395/3/4 396/3/4
f 396/3/4 395/3/4 397/3/4
f 398/3/4 399/3/4 400/3/4
f 400/3/4 399/3/4 401/3/4
f 402/3/4 403/3/4 404/3/4
f 404/3/4 403/3/4 405/3/4
f 406/3/4 407/3/4 408/3/4
f 408/3/4 407/3/4 409/3/4
f 410/4/4 411/4/4 412/4/4
f 412/4/4 411/4/4 413/4/4
f 414/3/4 415/3/4 417/3/4
f 415/2/4 416/2/4 418/2/4
f 417/3/4 415/3/4 418/3/4
f 418/2/4 416/2/4 419/2/4
f 420/2/4 421/2/4 422/2/4
f 422/2/4 421/2/4 423/2/4
f 424/2/4 425/2/4 428/2/4
f 428/2/4 425/2/4 429/2/4
f 426/1/4 427/1/4 430/1/4
f 430/1/4 427/1/4 431/1/4
f 431/1/4 427/1/4 432/1/4
f 432/1/4 427/1/4 433/1/4
f 432/1/4 433/1/4 435/1/4
f 433/1/4 434/1/4 435/1/4
f 435/1/4 434/1/4 436/1/4
f 436/1/4 434/1/4 438/1/4
f 437/1/4 438/1/4 439/1/4
f 438/1/4 434/1/4 440/1/4
f 439/1/4 438/1/4 440/1/4
f 440/1/4 434/1/4 441/1/4
f 439/1/4 440/1/4 442/1/4
f 442/1/4 440/1/4 443/1/4
f 444/3/4 445/3/4 446/3/4
f 446/3/4 445/3/4 447/3/4
f 447/2/4 448/2/4 449/2/4
f 447/2/4 449/2/4 451/2/4
f 449/2/4 450/2/4 451/2/4
f 451/2/4 450/2/4 452/2/4
f 446/3/4 447/3/4 453/3/4
f 447/2/4 451/2/4 454/2/4
f 453/3/4 447/3/4 454/3/4
f 454/2/4 451/2/4 455/2/4
f 453/3/4 454/3/4 456/3/4
f 456/3/4 454/3/4 457/3/4
f 458/2/4 459/2/4 461/2/4
f 461/2/4 459/2/4 462/2/4
f 460/2/4 461/2/4 464/2/4
f 462/2/4 463/2/4 464/2/4
f 461/2/4 462/2/4 464/2/4
f 464/2/4 463/2/4 465/2/4
f 465/2/4 463/2/4 466/2/4
f 466/2/4 463/2/4 467/2/4
f 465/2/4 466/2/4 468/2/4
f 468/2/4 466/2/4 469/2/4
f 469/2/4 466/2/4 470/2/4
f 470/2/4 466/2/4 471/2/4
f 469/2/4 470/2/4 472/2/4
f 472/2/4 470/2/4 473/2/4
f 474/3/4 475/3/4 476/3/4
f 476/3/4 475/3/4 477/3/4
f 478/3/4 479/3/4 480/3/4
f 480/3/4 479/3/4 481/3/4
f 482/3/4 483/3/4 484/3/4
f 484/3/4 483/3/4 485/3/4
f 486/3/4 487/3/4 488/3/4
f 488/3/4 487/3/4 489/3/4
f 490/1/4 491/1/4 492/1/4
f 492/1/4 491/1/4 493/1/4
f 493/1/4 494/1/4 495/1/4
f 495/1/4 494/1/4 496/1/4
f 497/1/4 498/1/4 499/1/4
f 499/1/4 498/1/4 500/1/4
f 500/1/4 498/1/4 501/1/4
f 501/1/4 498/1/4 502/1/4
f 503/1/4 504/1/4 505/1/4
f 505/1/4 504/1/4 506/1/4
f 507/1/4 508/1/4 509/1/4
f 509/1/4 508/1/4 510/1/4
f 515/3/5 512/3/5 511/3/5
f 516/3/5 512/3/5 515/3/5
f 517/3/5 514/3/5 513/3/5
f 518/3/5 514/3/5 517/3/5
f 522/2/5 520/2/5 519/2/5
f 523/2/5 520/2/5 522/2/5
f 529/3/5 526/3/5 525/3/5
f 530/3/5 526/3/5 529/3/5
f 531/3/5 528/3/5 527/3/5
f 532/3/5 528/3/5 531/3/5
f 533/1/5 522/1/5 521/1/5
f 533/1/5 523/1/5 522/1/5
f 533/1/5 524/1/5 523/1/5
f 535/1/5 533/1/5 521/1/5
f 535/1/5 534/1/5 533/1/5
f 536/1/5 534/1/5 535/1/5
f 537/1/5 534/1/5 536/1/5
f 538/1/5 534/1/5 537/1/5
f 539/1/5 534/1/5 538/1/5
f 540/1/5 534/1/5 539/1/5
f 545/2/5 542/2/5 541/2/5
f 546/2/5 542/2/5 545/2/5
f 547/2/5 544/2/5 543/2/5
f 548/2/5 544/2/5 547/2/5
f 553/3/5 550/3/5 549/3/5
f 554/3/5 550/3/5 553/3/5
f 555/3/5 552/3/5 551/3/5
f 556/3/5 552/3/5 555/3/5
f 561/3/5 558/3/5 557/3/5
f 562/3/5 558/3/5 561/3/5
f 563/3/5 560/3/5 559/3/5
f 564/3/5 560/3/5 563/3/5
f 569/4/5 566/4/5 565/4/5
f 570/4/5 566/4/5 569/4/5
f 573/2/5 568/2/5 567/2/5
f 574/2/5 568/2/5 573/2/5
f 575/2/5 572/2/5 571/2/5
f 576/2/5 572/2/5 575/2/5
f 581/2/5 578/2/5 577/2/5
f 582/2/5 578/2/5 581/2/5
f 583/2/5 580/2/5 579/2/5
f 584/2/5 580/2/5 583/2/5
f 587/2/5 586/2/5 585/2/5
f 588/2/5 586/2/5 587/2/5
f 595/3/5 590/3/5 589/3/5
f 595/3/5 591/3/5 590/3/5
f 595/3/5 592/3/5 591/3/5
f 596/3/5 592/3/5 595/3/5
f 597/3/5 595/3/5 589/3/5
f 598/3/5 592/3/5 596/3/5
f 599/3/5 597/3/5 589/3/5
f 599/3/5 598/3/5 597/3/5
f 600/3/5 598/3/5 599/3/5
f 601/3/5 592/3/5 598/3/5
f 601/3/5 598/3/5 600/3/5
f 602/3/5 592/3/5 601/3/5
f 603/2/5 594/2/5 593/2/5
f 604/2/5 594/2/5 603/2/5
f 609/2/5 606/2/5 605/2/5
f 610/2/5 606/2/5 609/2/5
f 611/2/5 608/2/5 607/2/5
f 612/2/5 608/2/5 611/2/5
f 616/1/5 614/1/5 613/1/5
f 616/1/5 615/1/5 614/1/5
f 617/1/5 615/1/5 616/1/5
f 622/1/5 619/1/5 618/1/5
f 622/1/5 621/1/5 620/1/5
f 622/1/5 620/1/5 619/1/5
f 623/1/5 621/1/5 622/1/5
f 624/1/5 621/1/5 623/1/5
f 625/1/5 621/1/5 624/1/5
f 626/3/6 627/3/6 630/3/6
f 630/3/6 627/3/6 631/3/6
f 628/3/6 629/3/6 632/3/6
f 632/3/6 629/3/6 633/3/6
f 634/3/6 635/3/6 638/3/6
f 638/3/6 635/3/6 639/3/6
f 636/3/6 637/3/6 640/3/6
f 640/3/6 637/3/6 641/3/6
f 642/1/6 643/1/6 644/1/6
f 644/1/6 643/1/6 645/1/6
f 646/1/6 647/1/6 648/1/6
f 645/1/6 643/1/6 649/1/6
f 646/1/6 648/1/6 650/1/6
f 648/1/6 649/1/6 650/1/6
f 649/1/6 643/1/6 651/1/6
f 650/1/6 649/1/6 651/1/6
f 652/2/6 653/2/6 656/2/6
f 656/2/6 653/2/6 657/2/6
f 657/2/6 653/2/6 658/2/6
f 658/2/6 653/2/6 659/2/6
f 654/2/6 655/2/6 660/2/6
f 660/2/6 655/2/6 661/2/6
f 661/2/6 655/2/6 662/2/6
f 661/1/6 662/1/6 663/1/6
f 657/1/6 658/1/6 665/1/6
f 665/1/6 658/1/6 666/1/6
f 661/1/6 663/1/6 667/1/6
f 663/1/6 664/1/6 667/1/6
f 666/1/6 667/1/6 668/1/6
f 668/1/6 667/1/6 669/1/6
f 669/1/6 667/1/6 670/1/6
f 667/1/6 664/1/6 671/1/6
f 670/1/6 667/1/6 671/1/6
f 672/1/6 673/1/6 676/1/6
f 674/1/6 675/1/6 676/1/6
f 673/1/6 674/1/6 676/1/6
f 676/1/6 675/1/6 677/1/6
f 678/2/6 679/2/6 682/2/6
f 680/2/6 681/2/6 682/2/6
f 679/2/6 680/2/6 682/2/6
f 682/2/6 681/2/6 683/2/6
f 684/3/6 685/3/6 688/3/6
f 688/3/6 685/3/6 689/3/6
f 686/3/6 687/3/6 690/3/6
f 690/3/6 687/3/6 691/3/6
f 692/3/6 693/3/6 696/3/6
f 696/3/6 693/3/6 697/3/6
f 694/3/6 695/3/6 698/3/6
f 698/3/6 695/3/6 699/3/6
f 700/3/6 701/3/6 704/3/6
f 702/3/6 703/3/6 705/3/6
f 700/3/6 704/3/6 706/3/6
f 705/3/6 703/3/6 707/3/6
f 700/3/6 706/3/6 708/3/6
f 708/3/6 706/3/6 709/3/6
f 707/3/6 703/3/6 710/3/6
f 710/3/6 703/3/6 711/3/6
f 712/4/6 713/4/6 718/4/6
f 718/4/6 713/4/6 719/4/6
f 714/2/6 715/2/6 720/2/6
f 720/2/6 715/2/6 721/2/6
f 716/2/6 717/2/6 722/2/6
f 722/2/6 717/2/6 723/2/6
f 724/2/6 725/2/6 728/2/6
f 728/2/6 725/2/6 729/2/6
f 726/2/6 727/2/6 730/2/6
f 730/2/6 727/2/6 731/2/6
f 732/2/6 733/2/6 736/2/6
f 736/2/6 733/2/6 737/2/6
f 734/1/6 735/1/6 740/1/6
f 740/1/6 735/1/6 741/1/6
f 738/1/6 739/1/6 744/1/6
f 744/1/6 739/1/6 745/1/6
f 742/2/6 743/2/6 746/2/6
f 746/2/6 743/2/6 747/2/6
f 748/1/6 749/1/6 750/1/6
f 750/1/6 749/1/6 751/1/6
f 752/2/6 753/2/6 756/2/6
f 756/2/6 753/2/6 757/2/6
f 754/2/6 755/2/6 758/2/6
f 758/2/6 755/2/6 759/2/6
f 760/2/6 761/2/6 762/2/6
f 762/2/6 761/2/6 763/2/6
f 764/2/6 765/2/6 766/2/6
f 766/2/6 765/2/6 767/2/6
