# MagicaVoxel @ Ephtracy

# group
o 

# material
mtllib disquette.mtl
usemtl palette

# normals
vn -1 0 0
vn 1 0 0
vn 0 0 1
vn 0 0 -1
vn 0 -1 0
vn 0 1 0

# texcoords
vt 0.587891 0.5
vt 0.615234 0.5
vt 0.970703 0.5
vt 0.974609 0.5
vt 0.986328 0.5

# verts
v -0.8 0 0.7
v -0.8 0 -0.8
v -0.8 0.1 0.7
v -0.8 0.1 -0.8
v -0.7 0 0.8
v -0.7 0 0.7
v -0.7 0.1 0.8
v -0.7 0.1 0.7
v -0.6 0 -0.6
v -0.6 0 -0.7
v -0.6 0.1 -0.6
v -0.6 0.1 -0.7
v -0.7 0 -0.6
v -0.7 0 -0.7
v -0.7 0.1 -0.6
v -0.7 0.1 -0.7
v 0.8 0 0.8
v 0.8 0 -0.8
v 0.8 0.1 0.8
v 0.8 0.1 -0.8
v -0.7 0 0.8
v -0.7 0.1 0.8
v -0.5 0 0.8
v -0.5 0.1 0.8
v 0.5 0 0.8
v 0.5 0.1 0.8
v 0.8 0 0.8
v 0.8 0.1 0.8
v -0.8 0 0.7
v -0.8 0.1 0.7
v -0.7 0 0.7
v -0.7 0.1 0.7
v -0.7 0 -0.7
v -0.7 0.1 -0.7
v -0.6 0 -0.7
v -0.6 0.1 -0.7
v -0.7 0 -0.6
v -0.7 0.1 -0.6
v -0.6 0 -0.6
v -0.6 0.1 -0.6
v -0.8 0 -0.8
v -0.8 0.1 -0.8
v -0.5 0 -0.8
v -0.5 0.1 -0.8
v 0.5 0 -0.8
v 0.5 0.1 -0.8
v 0.8 0 -0.8
v 0.8 0.1 -0.8
v -0.7 0 0.8
v -0.5 0 0.8
v 0.5 0 0.8
v 0.8 0 0.8
v -0.8 0 0.7
v -0.7 0 0.7
v -0.4 0 0.7
v -0.2 0 0.7
v -0.4 0 0.3
v -0.2 0 0.3
v -0.5 0 0.2
v 0.5 0 0.2
v -0.5 0 0
v 0.5 0 0
v -0.5 0 -0.2
v 0.5 0 -0.2
v -0.5 0 -0.3
v 0.5 0 -0.3
v -0.5 0 -0.4
v 0.5 0 -0.4
v -0.5 0 -0.5
v 0.5 0 -0.5
v -0.7 0 -0.6
v -0.6 0 -0.6
v -0.5 0 -0.6
v 0.5 0 -0.6
v -0.7 0 -0.7
v -0.6 0 -0.7
v -0.8 0 -0.8
v -0.5 0 -0.8
v 0.5 0 -0.8
v 0.8 0 -0.8
v -0.7 0.1 0.8
v -0.5 0.1 0.8
v 0.5 0.1 0.8
v 0.8 0.1 0.8
v -0.8 0.1 0.7
v -0.7 0.1 0.7
v -0.4 0.1 0.7
v -0.2 0.1 0.7
v -0.4 0.1 0.3
v -0.2 0.1 0.3
v -0.5 0.1 0.2
v 0.5 0.1 0.2
v -0.5 0.1 0
v 0.5 0.1 0
v -0.5 0.1 -0.2
v 0.5 0.1 -0.2
v -0.5 0.1 -0.3
v 0.5 0.1 -0.3
v -0.5 0.1 -0.4
v 0.5 0.1 -0.4
v -0.5 0.1 -0.5
v 0.5 0.1 -0.5
v -0.7 0.1 -0.6
v -0.6 0.1 -0.6
v -0.5 0.1 -0.6
v 0.5 0.1 -0.6
v -0.7 0.1 -0.7
v -0.6 0.1 -0.7
v -0.8 0.1 -0.8
v -0.5 0.1 -0.8
v 0.5 0.1 -0.8
v 0.8 0.1 -0.8

# faces
f 3/1/1 2/1/1 1/1/1
f 4/1/1 2/1/1 3/1/1
f 7/1/1 6/1/1 5/1/1
f 8/1/1 6/1/1 7/1/1
f 11/1/1 10/1/1 9/1/1
f 12/1/1 10/1/1 11/1/1
f 13/1/2 14/1/2 15/1/2
f 15/1/2 14/1/2 16/1/2
f 17/1/2 18/1/2 19/1/2
f 19/1/2 18/1/2 20/1/2
f 23/1/3 22/1/3 21/1/3
f 24/1/3 22/1/3 23/1/3
f 25/5/3 24/5/3 23/5/3
f 26/5/3 24/5/3 25/5/3
f 27/1/3 26/1/3 25/1/3
f 28/1/3 26/1/3 27/1/3
f 31/1/3 30/1/3 29/1/3
f 32/1/3 30/1/3 31/1/3
f 35/1/3 34/1/3 33/1/3
f 36/1/3 34/1/3 35/1/3
f 37/1/4 38/1/4 39/1/4
f 39/1/4 38/1/4 40/1/4
f 41/1/4 42/1/4 43/1/4
f 43/1/4 42/1/4 44/1/4
f 43/3/4 44/3/4 45/3/4
f 45/3/4 44/3/4 46/3/4
f 45/1/4 46/1/4 47/1/4
f 47/1/4 46/1/4 48/1/4
f 54/1/5 50/1/5 49/1/5
f 55/5/5 51/5/5 50/5/5
f 56/5/5 51/5/5 55/5/5
f 57/5/5 55/5/5 50/5/5
f 57/1/5 56/1/5 55/1/5
f 58/5/5 51/5/5 56/5/5
f 58/1/5 56/1/5 57/1/5
f 59/1/5 54/1/5 53/1/5
f 59/1/5 50/1/5 54/1/5
f 59/5/5 58/5/5 57/5/5
f 59/5/5 57/5/5 50/5/5
f 60/1/5 52/1/5 51/1/5
f 60/5/5 58/5/5 59/5/5
f 60/5/5 51/5/5 58/5/5
f 61/1/5 59/1/5 53/1/5
f 61/1/5 60/1/5 59/1/5
f 62/1/5 52/1/5 60/1/5
f 62/1/5 60/1/5 61/1/5
f 63/1/5 61/1/5 53/1/5
f 63/2/5 62/2/5 61/2/5
f 64/1/5 52/1/5 62/1/5
f 64/2/5 62/2/5 63/2/5
f 65/1/5 63/1/5 53/1/5
f 65/3/5 64/3/5 63/3/5
f 66/1/5 52/1/5 64/1/5
f 66/3/5 64/3/5 65/3/5
f 67/1/5 65/1/5 53/1/5
f 67/4/5 66/4/5 65/4/5
f 68/1/5 52/1/5 66/1/5
f 68/4/5 66/4/5 67/4/5
f 69/1/5 67/1/5 53/1/5
f 69/3/5 68/3/5 67/3/5
f 70/1/5 52/1/5 68/1/5
f 70/3/5 68/3/5 69/3/5
f 71/1/5 69/1/5 53/1/5
f 72/1/5 69/1/5 71/1/5
f 73/4/5 70/4/5 69/4/5
f 73/1/5 69/1/5 72/1/5
f 74/1/5 52/1/5 70/1/5
f 74/4/5 70/4/5 73/4/5
f 75/1/5 71/1/5 53/1/5
f 76/1/5 73/1/5 72/1/5
f 77/1/5 75/1/5 53/1/5
f 77/1/5 76/1/5 75/1/5
f 78/1/5 73/1/5 76/1/5
f 78/1/5 76/1/5 77/1/5
f 78/3/5 74/3/5 73/3/5
f 79/1/5 52/1/5 74/1/5
f 79/3/5 74/3/5 78/3/5
f 80/1/5 52/1/5 79/1/5
f 81/1/6 82/1/6 86/1/6
f 82/5/6 83/5/6 87/5/6
f 87/5/6 83/5/6 88/5/6
f 82/5/6 87/5/6 89/5/6
f 87/1/6 88/1/6 89/1/6
f 88/5/6 83/5/6 90/5/6
f 89/1/6 88/1/6 90/1/6
f 85/1/6 86/1/6 91/1/6
f 86/1/6 82/1/6 91/1/6
f 89/5/6 90/5/6 91/5/6
f 82/5/6 89/5/6 91/5/6
f 83/1/6 84/1/6 92/1/6
f 91/5/6 90/5/6 92/5/6
f 90/5/6 83/5/6 92/5/6
f 85/1/6 91/1/6 93/1/6
f 91/1/6 92/1/6 93/1/6
f 92/1/6 84/1/6 94/1/6
f 93/1/6 92/1/6 94/1/6
f 85/1/6 93/1/6 95/1/6
f 93/2/6 94/2/6 95/2/6
f 94/1/6 84/1/6 96/1/6
f 95/2/6 94/2/6 96/2/6
f 85/1/6 95/1/6 97/1/6
f 95/3/6 96/3/6 97/3/6
f 96/1/6 84/1/6 98/1/6
f 97/3/6 96/3/6 98/3/6
f 85/1/6 97/1/6 99/1/6
f 97/4/6 98/4/6 99/4/6
f 98/1/6 84/1/6 100/1/6
f 99/4/6 98/4/6 100/4/6
f 85/1/6 99/1/6 101/1/6
f 99/3/6 100/3/6 101/3/6
f 100/1/6 84/1/6 102/1/6
f 101/3/6 100/3/6 102/3/6
f 85/1/6 101/1/6 103/1/6
f 103/1/6 101/1/6 104/1/6
f 101/4/6 102/4/6 105/4/6
f 104/1/6 101/1/6 105/1/6
f 102/1/6 84/1/6 106/1/6
f 105/4/6 102/4/6 106/4/6
f 85/1/6 103/1/6 107/1/6
f 104/1/6 105/1/6 108/1/6
f 85/1/6 107/1/6 109/1/6
f 107/1/6 108/1/6 109/1/6
f 108/1/6 105/1/6 110/1/6
f 109/1/6 108/1/6 110/1/6
f 105/3/6 106/3/6 110/3/6
f 106/1/6 84/1/6 111/1/6
f 110/3/6 106/3/6 111/3/6
f 111/1/6 84/1/6 112/1/6
