# MagicaVoxel @ Ephtracy

# group
o 

# material
mtllib roboto-up-1.mtl
usemtl palette

# normals
vn -1 0 0
vn 1 0 0
vn 0 0 1
vn 0 0 -1
vn 0 -1 0
vn 0 1 0

# texcoords
vt 0.845703 0.5
vt 0.861328 0.5
vt 0.958984 0.5
vt 0.982422 0.5

# verts
v -1 2 1.5
v -1 2 -1.1
v -1 2.6 1.5
v -1 2.6 -1.1
v -0.8 2.2 -1.1
v -0.8 2.2 -1.3
v -0.8 2.6 1.5
v -0.8 2.6 -1.1
v -0.8 2.8 1.5
v -0.8 2.8 -1.3
v -0.6 2 1.9
v -0.6 2 1.5
v -0.6 2.8 1.5
v -0.6 2.8 0.3
v -0.6 3.1 1.9
v -0.6 3.1 1.7
v -0.6 3.2 1.7
v -0.6 3.2 0.3
v -0.5 2.8 0.0999999
v -0.5 2.8 -0.0999999
v -0.5 2.9 0.3
v -0.5 2.9 0.0999999
v -0.5 3 0
v -0.5 3 -0.0999999
v -0.5 3.1 0.3
v -0.5 3.1 0
v -0.4 2.2 2.1
v -0.4 2.2 1.9
v -0.4 2.4 2.1
v -0.4 2.4 1.9
v -0.4 3 2.1
v -0.4 3 1.9
v 0.2 2.8 0.0999999
v 0.2 2.8 -0.0999999
v 0.2 2.9 0.3
v 0.2 2.9 0.0999999
v 0.2 3 0
v 0.2 3 -0.0999999
v 0.2 3.1 0.3
v 0.2 3.1 0
v -0.3 2.8 0.0999999
v -0.3 2.8 -0.0999999
v -0.3 2.9 0.3
v -0.3 2.9 0.0999999
v -0.3 3 0
v -0.3 3 -0.0999999
v -0.3 3.1 0.3
v -0.3 3.1 0
v 0.4 2.2 2.1
v 0.4 2.2 1.9
v 0.4 2.4 2.1
v 0.4 2.4 1.9
v 0.4 2.8 0.0999999
v 0.4 2.8 -0.0999999
v 0.4 2.9 0.3
v 0.4 2.9 0.0999999
v 0.4 3 2.1
v 0.4 3 1.9
v 0.4 3 0
v 0.4 3 -0.0999999
v 0.4 3.1 0.3
v 0.4 3.1 0
v 0.6 2 1.9
v 0.6 2 1.5
v 0.6 2.8 1.5
v 0.6 2.8 0.3
v 0.6 3.1 1.9
v 0.6 3.1 1.7
v 0.6 3.2 1.7
v 0.6 3.2 0.3
v 0.8 2.2 -1.1
v 0.8 2.2 -1.3
v 0.8 2.6 1.5
v 0.8 2.6 -0.3
v 0.8 2.6 -0.5
v 0.8 2.6 -1.1
v 0.8 2.8 1.5
v 0.8 2.8 -1.3
v 1 2 1.5
v 1 2 -1.1
v 1 2.4 -0.3
v 1 2.4 -0.5
v 1 2.6 1.5
v 1 2.6 -0.3
v 1 2.6 -0.5
v 1 2.6 -1.1
v -0.4 2.2 2.1
v -0.4 2.4 2.1
v -0.4 3 2.1
v 0.4 2.2 2.1
v 0.4 2.4 2.1
v 0.4 3 2.1
v -0.6 2 1.9
v -0.6 3.1 1.9
v -0.4 2.2 1.9
v -0.4 2.4 1.9
v -0.4 3 1.9
v 0.4 2.2 1.9
v 0.4 2.4 1.9
v 0.4 3 1.9
v 0.6 2 1.9
v 0.6 3.1 1.9
v -0.6 3.1 1.7
v -0.6 3.2 1.7
v 0.6 3.1 1.7
v 0.6 3.2 1.7
v -1 2 1.5
v -1 2.6 1.5
v -0.8 2.6 1.5
v -0.8 2.8 1.5
v -0.6 2 1.5
v -0.6 2.8 1.5
v 0.6 2 1.5
v 0.6 2.8 1.5
v 0.8 2.6 1.5
v 0.8 2.8 1.5
v 1 2 1.5
v 1 2.6 1.5
v -0.5 2.8 0.0999999
v -0.5 2.9 0.0999999
v -0.3 2.8 0.0999999
v -0.3 2.9 0.0999999
v 0.2 2.8 0.0999999
v 0.2 2.9 0.0999999
v 0.4 2.8 0.0999999
v 0.4 2.9 0.0999999
v -0.6 2.8 0.3
v -0.6 3.2 0.3
v -0.5 2.9 0.3
v -0.5 3.1 0.3
v -0.3 2.9 0.3
v -0.3 3.1 0.3
v 0.2 2.9 0.3
v 0.2 3.1 0.3
v 0.4 2.9 0.3
v 0.4 3.1 0.3
v 0.6 2.8 0.3
v 0.6 3.2 0.3
v -0.5 3 0
v -0.5 3.1 0
v -0.3 3 0
v -0.3 3.1 0
v 0.2 3 0
v 0.2 3.1 0
v 0.4 3 0
v 0.4 3.1 0
v -0.5 2.8 -0.0999999
v -0.5 3 -0.0999999
v -0.3 2.8 -0.0999999
v -0.3 3 -0.0999999
v 0.2 2.8 -0.0999999
v 0.2 3 -0.0999999
v 0.4 2.8 -0.0999999
v 0.4 3 -0.0999999
v -1 2 -1.1
v -1 2.6 -1.1
v -0.8 2.2 -1.1
v -0.8 2.6 -1.1
v 0.2 2.2 -1.1
v 0.4 2.2 -1.1
v 0.8 2.2 -1.1
v 0.8 2.6 -1.1
v 1 2 -1.1
v 1 2.6 -1.1
v -0.8 2.2 -1.3
v -0.8 2.8 -1.3
v 0.2 2.2 -1.3
v 0.2 2.4 -1.3
v 0.4 2.2 -1.3
v 0.4 2.4 -1.3
v 0.8 2.2 -1.3
v 0.8 2.8 -1.3
v -0.6 2 1.9
v 0.6 2 1.9
v -1 2 1.5
v -0.6 2 1.5
v 0.6 2 1.5
v 1 2 1.5
v -1 2 -1.1
v 1 2 -1.1
v -0.4 2.2 2.1
v 0.4 2.2 2.1
v -0.4 2.2 1.9
v 0.4 2.2 1.9
v -0.8 2.2 -1.1
v 0.2 2.2 -1.1
v 0.4 2.2 -1.1
v 0.8 2.2 -1.1
v -0.8 2.2 -1.3
v 0.2 2.2 -1.3
v 0.4 2.2 -1.3
v 0.8 2.2 -1.3
v -0.5 2.9 0.3
v -0.3 2.9 0.3
v 0.2 2.9 0.3
v 0.4 2.9 0.3
v -0.5 2.9 0.0999999
v -0.3 2.9 0.0999999
v 0.2 2.9 0.0999999
v 0.4 2.9 0.0999999
v -1 2.6 1.5
v -0.8 2.6 1.5
v 0.8 2.6 1.5
v 1 2.6 1.5
v 0.8 2.6 -0.3
v 1 2.6 -0.3
v 0.8 2.6 -0.5
v 1 2.6 -0.5
v -1 2.6 -1.1
v -0.8 2.6 -1.1
v 0.8 2.6 -1.1
v 1 2.6 -1.1
v -0.8 2.8 1.5
v -0.6 2.8 1.5
v 0.6 2.8 1.5
v 0.8 2.8 1.5
v -0.6 2.8 0.3
v 0.6 2.8 0.3
v -0.5 2.8 0.0999999
v -0.3 2.8 0.0999999
v 0.2 2.8 0.0999999
v 0.4 2.8 0.0999999
v -0.5 2.8 -0.0999999
v -0.3 2.8 -0.0999999
v 0.2 2.8 -0.0999999
v 0.4 2.8 -0.0999999
v -0.8 2.8 -1.3
v 0.8 2.8 -1.3
v -0.4 3 2.1
v 0.4 3 2.1
v -0.4 3 1.9
v 0.4 3 1.9
v -0.5 3 0
v -0.3 3 0
v 0.2 3 0
v 0.4 3 0
v -0.5 3 -0.0999999
v -0.3 3 -0.0999999
v 0.2 3 -0.0999999
v 0.4 3 -0.0999999
v -0.6 3.1 1.9
v 0.6 3.1 1.9
v -0.6 3.1 1.7
v 0.6 3.1 1.7
v -0.5 3.1 0.3
v -0.3 3.1 0.3
v 0.2 3.1 0.3
v 0.4 3.1 0.3
v -0.5 3.1 0
v -0.3 3.1 0
v 0.2 3.1 0
v 0.4 3.1 0
v -0.6 3.2 1.7
v 0.6 3.2 1.7
v -0.6 3.2 0.3
v 0.6 3.2 0.3

# faces
f 3/3/1 2/3/1 1/3/1
f 4/3/1 2/3/1 3/3/1
f 8/3/1 6/3/1 5/3/1
f 9/3/1 8/3/1 7/3/1
f 10/3/1 6/3/1 8/3/1
f 10/3/1 8/3/1 9/3/1
f 13/3/1 12/3/1 11/3/1
f 15/3/1 13/3/1 11/3/1
f 15/3/1 14/3/1 13/3/1
f 16/3/1 14/3/1 15/3/1
f 17/3/1 14/3/1 16/3/1
f 18/3/1 14/3/1 17/3/1
f 22/4/1 20/4/1 19/4/1
f 23/4/1 20/4/1 22/4/1
f 23/4/1 22/4/1 21/4/1
f 24/4/1 20/4/1 23/4/1
f 25/4/1 23/4/1 21/4/1
f 26/4/1 23/4/1 25/4/1
f 29/2/1 28/2/1 27/2/1
f 30/2/1 28/2/1 29/2/1
f 31/1/1 30/1/1 29/1/1
f 32/1/1 30/1/1 31/1/1
f 36/4/1 34/4/1 33/4/1
f 37/4/1 34/4/1 36/4/1
f 37/4/1 36/4/1 35/4/1
f 38/4/1 34/4/1 37/4/1
f 39/4/1 37/4/1 35/4/1
f 40/4/1 37/4/1 39/4/1
f 41/4/2 42/4/2 44/4/2
f 44/4/2 42/4/2 45/4/2
f 43/4/2 44/4/2 45/4/2
f 45/4/2 42/4/2 46/4/2
f 43/4/2 45/4/2 47/4/2
f 47/4/2 45/4/2 48/4/2
f 49/2/2 50/2/2 51/2/2
f 51/2/2 50/2/2 52/2/2
f 53/4/2 54/4/2 56/4/2
f 51/1/2 52/1/2 57/1/2
f 57/1/2 52/1/2 58/1/2
f 55/4/2 56/4/2 59/4/2
f 56/4/2 54/4/2 59/4/2
f 59/4/2 54/4/2 60/4/2
f 55/4/2 59/4/2 61/4/2
f 61/4/2 59/4/2 62/4/2
f 63/3/2 64/3/2 65/3/2
f 63/3/2 65/3/2 67/3/2
f 65/3/2 66/3/2 67/3/2
f 67/3/2 66/3/2 68/3/2
f 68/3/2 66/3/2 69/3/2
f 69/3/2 66/3/2 70/3/2
f 71/3/2 72/3/2 76/3/2
f 74/3/2 75/3/2 77/3/2
f 75/3/2 76/3/2 77/3/2
f 73/3/2 74/3/2 77/3/2
f 76/3/2 72/3/2 78/3/2
f 77/3/2 76/3/2 78/3/2
f 79/3/2 80/3/2 81/3/2
f 81/3/2 80/3/2 82/3/2
f 79/3/2 81/3/2 83/3/2
f 81/1/2 82/1/2 84/1/2
f 83/3/2 81/3/2 84/3/2
f 82/3/2 80/3/2 85/3/2
f 84/1/2 82/1/2 85/1/2
f 85/3/2 80/3/2 86/3/2
f 90/2/3 88/2/3 87/2/3
f 91/1/3 89/1/3 88/1/3
f 91/2/3 88/2/3 90/2/3
f 92/1/3 89/1/3 91/1/3
f 95/3/3 94/3/3 93/3/3
f 96/3/3 94/3/3 95/3/3
f 97/3/3 94/3/3 96/3/3
f 98/3/3 95/3/3 93/3/3
f 100/3/3 94/3/3 97/3/3
f 101/3/3 99/3/3 98/3/3
f 101/3/3 100/3/3 99/3/3
f 101/3/3 98/3/3 93/3/3
f 102/3/3 94/3/3 100/3/3
f 102/3/3 100/3/3 101/3/3
f 105/3/3 104/3/3 103/3/3
f 106/3/3 104/3/3 105/3/3
f 109/3/3 108/3/3 107/3/3
f 111/3/3 109/3/3 107/3/3
f 111/3/3 110/3/3 109/3/3
f 112/3/3 110/3/3 111/3/3
f 115/3/3 114/3/3 113/3/3
f 116/3/3 114/3/3 115/3/3
f 117/3/3 115/3/3 113/3/3
f 118/3/3 115/3/3 117/3/3
f 121/4/3 120/4/3 119/4/3
f 122/4/3 120/4/3 121/4/3
f 125/4/3 124/4/3 123/4/3
f 126/4/3 124/4/3 125/4/3
f 127/3/4 128/3/4 129/3/4
f 129/3/4 128/3/4 130/3/4
f 127/3/4 129/3/4 131/3/4
f 130/3/4 128/3/4 132/3/4
f 127/3/4 131/3/4 133/3/4
f 131/3/4 132/3/4 133/3/4
f 132/3/4 128/3/4 134/3/4
f 133/3/4 132/3/4 134/3/4
f 127/3/4 133/3/4 135/3/4
f 134/3/4 128/3/4 136/3/4
f 127/3/4 135/3/4 137/3/4
f 135/3/4 136/3/4 137/3/4
f 136/3/4 128/3/4 138/3/4
f 137/3/4 136/3/4 138/3/4
f 139/4/4 140/4/4 141/4/4
f 141/4/4 140/4/4 142/4/4
f 143/4/4 144/4/4 145/4/4
f 145/4/4 144/4/4 146/4/4
f 147/4/4 148/4/4 149/4/4
f 149/4/4 148/4/4 150/4/4
f 151/4/4 152/4/4 153/4/4
f 153/4/4 152/4/4 154/4/4
f 155/3/4 156/3/4 157/3/4
f 157/3/4 156/3/4 158/3/4
f 155/3/4 157/3/4 159/3/4
f 155/3/4 159/3/4 160/3/4
f 155/3/4 160/3/4 161/3/4
f 155/3/4 161/3/4 163/3/4
f 161/3/4 162/3/4 163/3/4
f 163/3/4 162/3/4 164/3/4
f 165/3/4 166/3/4 167/3/4
f 167/3/4 166/3/4 168/3/4
f 167/1/4 168/1/4 169/1/4
f 168/3/4 166/3/4 170/3/4
f 169/1/4 168/1/4 170/1/4
f 169/3/4 170/3/4 171/3/4
f 170/3/4 166/3/4 172/3/4
f 171/3/4 170/3/4 172/3/4
f 176/3/5 174/3/5 173/3/5
f 177/3/5 174/3/5 176/3/5
f 179/3/5 176/3/5 175/3/5
f 179/3/5 178/3/5 177/3/5
f 179/3/5 177/3/5 176/3/5
f 180/3/5 178/3/5 179/3/5
f 183/2/5 182/2/5 181/2/5
f 184/2/5 182/2/5 183/2/5
f 189/3/5 186/3/5 185/3/5
f 190/1/5 187/1/5 186/1/5
f 190/3/5 186/3/5 189/3/5
f 191/3/5 188/3/5 187/3/5
f 191/1/5 187/1/5 190/1/5
f 192/3/5 188/3/5 191/3/5
f 197/4/5 194/4/5 193/4/5
f 198/4/5 194/4/5 197/4/5
f 199/4/5 196/4/5 195/4/5
f 200/4/5 196/4/5 199/4/5
f 203/3/6 204/3/6 205/3/6
f 205/3/6 204/3/6 206/3/6
f 205/1/6 206/1/6 207/1/6
f 207/1/6 206/1/6 208/1/6
f 201/3/6 202/3/6 209/3/6
f 209/3/6 202/3/6 210/3/6
f 207/3/6 208/3/6 211/3/6
f 211/3/6 208/3/6 212/3/6
f 213/3/6 214/3/6 217/3/6
f 215/3/6 216/3/6 218/3/6
f 217/3/6 218/3/6 219/3/6
f 219/3/6 218/3/6 220/3/6
f 220/3/6 218/3/6 221/3/6
f 221/3/6 218/3/6 222/3/6
f 217/3/6 219/3/6 223/3/6
f 220/3/6 221/3/6 224/3/6
f 224/3/6 221/3/6 225/3/6
f 222/3/6 218/3/6 226/3/6
f 213/3/6 217/3/6 227/3/6
f 225/3/6 226/3/6 227/3/6
f 224/3/6 225/3/6 227/3/6
f 217/3/6 223/3/6 227/3/6
f 223/3/6 224/3/6 227/3/6
f 226/3/6 218/3/6 228/3/6
f 227/3/6 226/3/6 228/3/6
f 218/3/6 216/3/6 228/3/6
f 229/1/6 230/1/6 231/1/6
f 231/1/6 230/1/6 232/1/6
f 233/4/6 234/4/6 237/4/6
f 237/4/6 234/4/6 238/4/6
f 235/4/6 236/4/6 239/4/6
f 239/4/6 236/4/6 240/4/6
f 241/3/6 242/3/6 243/3/6
f 243/3/6 242/3/6 244/3/6
f 245/4/6 246/4/6 249/4/6
f 249/4/6 246/4/6 250/4/6
f 247/4/6 248/4/6 251/4/6
f 251/4/6 248/4/6 252/4/6
f 253/3/6 254/3/6 255/3/6
f 255/3/6 254/3/6 256/3/6
