# MagicaVoxel @ Ephtracy

# group
o 

# material
mtllib Minigun5.mtl
usemtl palette

# normals
vn -1 0 0
vn 1 0 0
vn 0 0 1
vn 0 0 -1
vn 0 -1 0
vn 0 1 0

# texcoords
vt 0.310547 0.5
vt 0.935547 0.5

# verts
v 4.1 4 -3.2
v 4.1 4 -3.3
v 4.1 4 -4
v 4.1 4 -4.1
v 4.1 4 -4.7
v 4.1 4 -4.9
v 4.1 4 -5
v 4.1 4.1 -3.3
v 4.1 4.1 -4
v 4.1 4.1 -4.1
v 4.1 4.1 -4.7
v 4.1 4.1 -4.9
v 4.1 4.1 -5
v 4.1 4.2 -3.3
v 4.1 4.2 -4
v 4.1 4.2 -4.1
v 4.1 4.2 -4.7
v 4.1 4.2 -4.9
v 4.1 4.2 -5
v 4.1 4.3 -3.2
v 4.1 4.3 -3.3
v 4.1 4.3 -4
v 4.1 4.3 -4.1
v 4.1 4.3 -4.7
v 4.1 4.3 -4.9
v 4.1 4.3 -5
v 4.2 3.9 -3.2
v 4.2 3.9 -3.3
v 4.2 3.9 -4
v 4.2 3.9 -4.1
v 4.2 3.9 -4.7
v 4.2 3.9 -4.9
v 4.2 3.9 -5
v 4.2 4 -3.2
v 4.2 4 -3.3
v 4.2 4 -4
v 4.2 4 -4.1
v 4.2 4 -4.7
v 4.2 4 -4.9
v 4.2 4 -5
v 4.2 4.3 -3.2
v 4.2 4.3 -3.3
v 4.2 4.3 -4
v 4.2 4.3 -4.1
v 4.2 4.3 -4.7
v 4.2 4.3 -4.9
v 4.2 4.3 -5
v 4.2 4.4 -3.2
v 4.2 4.4 -3.3
v 4.2 4.4 -4
v 4.2 4.4 -4.1
v 4.2 4.4 -4.7
v 4.2 4.4 -4.9
v 4.2 4.4 -5
v 4.4 3.9 -3.3
v 4.4 3.9 -4
v 4.4 3.9 -4.1
v 4.4 3.9 -4.7
v 4.4 3.9 -4.9
v 4.4 3.9 -5
v 4.4 4 -3.2
v 4.4 4 -3.3
v 4.4 4 -4
v 4.4 4 -4.1
v 4.4 4 -4.7
v 4.4 4 -4.9
v 4.4 4 -5
v 4.4 4.1 -3.2
v 4.4 4.1 -3.3
v 4.4 4.1 -4
v 4.4 4.1 -4.1
v 4.4 4.1 -4.7
v 4.4 4.1 -4.9
v 4.4 4.2 -3.2
v 4.4 4.2 -3.3
v 4.4 4.2 -4
v 4.4 4.2 -4.1
v 4.4 4.2 -4.7
v 4.4 4.2 -4.9
v 4.4 4.3 -3.2
v 4.4 4.3 -3.3
v 4.4 4.3 -4
v 4.4 4.3 -4.1
v 4.4 4.3 -4.7
v 4.4 4.3 -4.9
v 4.4 4.3 -5
v 4.4 4.4 -3.3
v 4.4 4.4 -4
v 4.4 4.4 -4.1
v 4.4 4.4 -4.7
v 4.4 4.4 -4.9
v 4.4 4.4 -5
v 4.5 4 -3.3
v 4.5 4 -4
v 4.5 4 -4.1
v 4.5 4 -4.7
v 4.5 4 -4.9
v 4.5 4 -5
v 4.5 4.1 -3.2
v 4.5 4.1 -3.3
v 4.5 4.1 -4
v 4.5 4.1 -4.1
v 4.5 4.1 -4.7
v 4.5 4.1 -4.9
v 4.5 4.1 -5
v 4.5 4.2 -3.2
v 4.5 4.2 -3.3
v 4.5 4.2 -4
v 4.5 4.2 -4.1
v 4.5 4.2 -4.7
v 4.5 4.2 -4.9
v 4.5 4.2 -5
v 4.5 4.3 -3.3
v 4.5 4.3 -4
v 4.5 4.3 -4.1
v 4.5 4.3 -4.7
v 4.5 4.3 -4.9
v 4.5 4.3 -5
v 4.2 4 -3.3
v 4.2 4 -4
v 4.2 4 -4.1
v 4.2 4 -4.7
v 4.2 4 -4.9
v 4.2 4 -5
v 4.2 4.1 -3.2
v 4.2 4.1 -3.3
v 4.2 4.1 -4
v 4.2 4.1 -4.1
v 4.2 4.1 -4.7
v 4.2 4.1 -4.9
v 4.2 4.1 -5
v 4.2 4.2 -3.2
v 4.2 4.2 -3.3
v 4.2 4.2 -4
v 4.2 4.2 -4.1
v 4.2 4.2 -4.7
v 4.2 4.2 -4.9
v 4.2 4.2 -5
v 4.2 4.3 -3.3
v 4.2 4.3 -4
v 4.2 4.3 -4.1
v 4.2 4.3 -4.7
v 4.2 4.3 -4.9
v 4.2 4.3 -5
v 4.3 3.9 -3.3
v 4.3 3.9 -4
v 4.3 3.9 -4.1
v 4.3 3.9 -4.7
v 4.3 3.9 -4.9
v 4.3 3.9 -5
v 4.3 4 -3.2
v 4.3 4 -3.3
v 4.3 4 -4
v 4.3 4 -4.1
v 4.3 4 -4.7
v 4.3 4 -4.9
v 4.3 4 -5
v 4.3 4.1 -3.2
v 4.3 4.1 -3.3
v 4.3 4.1 -4
v 4.3 4.1 -4.1
v 4.3 4.1 -4.7
v 4.3 4.1 -4.9
v 4.3 4.2 -3.2
v 4.3 4.2 -3.3
v 4.3 4.2 -4
v 4.3 4.2 -4.1
v 4.3 4.2 -4.7
v 4.3 4.2 -4.9
v 4.3 4.3 -3.2
v 4.3 4.3 -3.3
v 4.3 4.3 -4
v 4.3 4.3 -4.1
v 4.3 4.3 -4.7
v 4.3 4.3 -4.9
v 4.3 4.3 -5
v 4.3 4.4 -3.3
v 4.3 4.4 -4
v 4.3 4.4 -4.1
v 4.3 4.4 -4.7
v 4.3 4.4 -4.9
v 4.3 4.4 -5
v 4.5 3.9 -3.2
v 4.5 3.9 -3.3
v 4.5 3.9 -4
v 4.5 3.9 -4.1
v 4.5 3.9 -4.7
v 4.5 3.9 -4.9
v 4.5 3.9 -5
v 4.5 4 -3.2
v 4.5 4 -3.3
v 4.5 4 -4
v 4.5 4 -4.1
v 4.5 4 -4.7
v 4.5 4 -4.9
v 4.5 4 -5
v 4.5 4.3 -3.2
v 4.5 4.3 -3.3
v 4.5 4.3 -4
v 4.5 4.3 -4.1
v 4.5 4.3 -4.7
v 4.5 4.3 -4.9
v 4.5 4.3 -5
v 4.5 4.4 -3.2
v 4.5 4.4 -3.3
v 4.5 4.4 -4
v 4.5 4.4 -4.1
v 4.5 4.4 -4.7
v 4.5 4.4 -4.9
v 4.5 4.4 -5
v 4.6 4 -3.2
v 4.6 4 -3.3
v 4.6 4 -4
v 4.6 4 -4.1
v 4.6 4 -4.7
v 4.6 4 -4.9
v 4.6 4 -5
v 4.6 4.1 -3.3
v 4.6 4.1 -4
v 4.6 4.1 -4.1
v 4.6 4.1 -4.7
v 4.6 4.1 -4.9
v 4.6 4.1 -5
v 4.6 4.2 -3.3
v 4.6 4.2 -4
v 4.6 4.2 -4.1
v 4.6 4.2 -4.7
v 4.6 4.2 -4.9
v 4.6 4.2 -5
v 4.6 4.3 -3.2
v 4.6 4.3 -3.3
v 4.6 4.3 -4
v 4.6 4.3 -4.1
v 4.6 4.3 -4.7
v 4.6 4.3 -4.9
v 4.6 4.3 -5
v 4.1 4 -3.2
v 4.1 4.3 -3.2
v 4.2 3.9 -3.2
v 4.2 4 -3.2
v 4.2 4.1 -3.2
v 4.2 4.2 -3.2
v 4.2 4.3 -3.2
v 4.2 4.4 -3.2
v 4.3 4 -3.2
v 4.3 4.1 -3.2
v 4.3 4.2 -3.2
v 4.3 4.3 -3.2
v 4.4 4 -3.2
v 4.4 4.1 -3.2
v 4.4 4.2 -3.2
v 4.4 4.3 -3.2
v 4.5 3.9 -3.2
v 4.5 4 -3.2
v 4.5 4.1 -3.2
v 4.5 4.2 -3.2
v 4.5 4.3 -3.2
v 4.5 4.4 -3.2
v 4.6 4 -3.2
v 4.6 4.3 -3.2
v 4.1 4.1 -4
v 4.1 4.2 -4
v 4.2 4 -4
v 4.2 4.1 -4
v 4.2 4.2 -4
v 4.2 4.3 -4
v 4.3 3.9 -4
v 4.3 4 -4
v 4.3 4.1 -4
v 4.3 4.2 -4
v 4.3 4.3 -4
v 4.3 4.4 -4
v 4.4 3.9 -4
v 4.4 4 -4
v 4.4 4.1 -4
v 4.4 4.2 -4
v 4.4 4.3 -4
v 4.4 4.4 -4
v 4.5 4 -4
v 4.5 4.1 -4
v 4.5 4.2 -4
v 4.5 4.3 -4
v 4.6 4.1 -4
v 4.6 4.2 -4
v 4.1 4.1 -4.7
v 4.1 4.2 -4.7
v 4.2 4 -4.7
v 4.2 4.1 -4.7
v 4.2 4.2 -4.7
v 4.2 4.3 -4.7
v 4.3 3.9 -4.7
v 4.3 4 -4.7
v 4.3 4.1 -4.7
v 4.3 4.2 -4.7
v 4.3 4.3 -4.7
v 4.3 4.4 -4.7
v 4.4 3.9 -4.7
v 4.4 4 -4.7
v 4.4 4.1 -4.7
v 4.4 4.2 -4.7
v 4.4 4.3 -4.7
v 4.4 4.4 -4.7
v 4.5 4 -4.7
v 4.5 4.1 -4.7
v 4.5 4.2 -4.7
v 4.5 4.3 -4.7
v 4.6 4.1 -4.7
v 4.6 4.2 -4.7
v 4.1 4.1 -3.3
v 4.1 4.2 -3.3
v 4.2 4 -3.3
v 4.2 4.1 -3.3
v 4.2 4.2 -3.3
v 4.2 4.3 -3.3
v 4.3 3.9 -3.3
v 4.3 4 -3.3
v 4.3 4.1 -3.3
v 4.3 4.2 -3.3
v 4.3 4.3 -3.3
v 4.3 4.4 -3.3
v 4.4 3.9 -3.3
v 4.4 4 -3.3
v 4.4 4.1 -3.3
v 4.4 4.2 -3.3
v 4.4 4.3 -3.3
v 4.4 4.4 -3.3
v 4.5 4 -3.3
v 4.5 4.1 -3.3
v 4.5 4.2 -3.3
v 4.5 4.3 -3.3
v 4.6 4.1 -3.3
v 4.6 4.2 -3.3
v 4.1 4.1 -4.1
v 4.1 4.2 -4.1
v 4.2 4 -4.1
v 4.2 4.1 -4.1
v 4.2 4.2 -4.1
v 4.2 4.3 -4.1
v 4.3 3.9 -4.1
v 4.3 4 -4.1
v 4.3 4.1 -4.1
v 4.3 4.2 -4.1
v 4.3 4.3 -4.1
v 4.3 4.4 -4.1
v 4.4 3.9 -4.1
v 4.4 4 -4.1
v 4.4 4.1 -4.1
v 4.4 4.2 -4.1
v 4.4 4.3 -4.1
v 4.4 4.4 -4.1
v 4.5 4 -4.1
v 4.5 4.1 -4.1
v 4.5 4.2 -4.1
v 4.5 4.3 -4.1
v 4.6 4.1 -4.1
v 4.6 4.2 -4.1
v 4.1 4.1 -4.9
v 4.1 4.2 -4.9
v 4.2 4 -4.9
v 4.2 4.1 -4.9
v 4.2 4.2 -4.9
v 4.2 4.3 -4.9
v 4.3 3.9 -4.9
v 4.3 4 -4.9
v 4.3 4.1 -4.9
v 4.3 4.2 -4.9
v 4.3 4.3 -4.9
v 4.3 4.4 -4.9
v 4.4 3.9 -4.9
v 4.4 4 -4.9
v 4.4 4.1 -4.9
v 4.4 4.2 -4.9
v 4.4 4.3 -4.9
v 4.4 4.4 -4.9
v 4.5 4 -4.9
v 4.5 4.1 -4.9
v 4.5 4.2 -4.9
v 4.5 4.3 -4.9
v 4.6 4.1 -4.9
v 4.6 4.2 -4.9
v 4.1 4 -5
v 4.1 4.1 -5
v 4.1 4.2 -5
v 4.1 4.3 -5
v 4.2 3.9 -5
v 4.2 4 -5
v 4.2 4.1 -5
v 4.2 4.2 -5
v 4.2 4.3 -5
v 4.2 4.4 -5
v 4.3 3.9 -5
v 4.3 4 -5
v 4.3 4.3 -5
v 4.3 4.4 -5
v 4.4 3.9 -5
v 4.4 4 -5
v 4.4 4.3 -5
v 4.4 4.4 -5
v 4.5 3.9 -5
v 4.5 4 -5
v 4.5 4.1 -5
v 4.5 4.2 -5
v 4.5 4.3 -5
v 4.5 4.4 -5
v 4.6 4 -5
v 4.6 4.1 -5
v 4.6 4.2 -5
v 4.6 4.3 -5
v 4.2 3.9 -3.2
v 4.5 3.9 -3.2
v 4.2 3.9 -3.3
v 4.3 3.9 -3.3
v 4.4 3.9 -3.3
v 4.5 3.9 -3.3
v 4.2 3.9 -4
v 4.3 3.9 -4
v 4.4 3.9 -4
v 4.5 3.9 -4
v 4.2 3.9 -4.1
v 4.3 3.9 -4.1
v 4.4 3.9 -4.1
v 4.5 3.9 -4.1
v 4.2 3.9 -4.7
v 4.3 3.9 -4.7
v 4.4 3.9 -4.7
v 4.5 3.9 -4.7
v 4.2 3.9 -4.9
v 4.3 3.9 -4.9
v 4.4 3.9 -4.9
v 4.5 3.9 -4.9
v 4.2 3.9 -5
v 4.3 3.9 -5
v 4.4 3.9 -5
v 4.5 3.9 -5
v 4.1 4 -3.2
v 4.2 4 -3.2
v 4.5 4 -3.2
v 4.6 4 -3.2
v 4.1 4 -3.3
v 4.2 4 -3.3
v 4.5 4 -3.3
v 4.6 4 -3.3
v 4.1 4 -4
v 4.2 4 -4
v 4.5 4 -4
v 4.6 4 -4
v 4.1 4 -4.1
v 4.2 4 -4.1
v 4.5 4 -4.1
v 4.6 4 -4.1
v 4.1 4 -4.7
v 4.2 4 -4.7
v 4.5 4 -4.7
v 4.6 4 -4.7
v 4.1 4 -4.9
v 4.2 4 -4.9
v 4.5 4 -4.9
v 4.6 4 -4.9
v 4.1 4 -5
v 4.2 4 -5
v 4.5 4 -5
v 4.6 4 -5
v 4.2 4.2 -3.2
v 4.3 4.2 -3.2
v 4.4 4.2 -3.2
v 4.5 4.2 -3.2
v 4.1 4.2 -3.3
v 4.2 4.2 -3.3
v 4.3 4.2 -3.3
v 4.4 4.2 -3.3
v 4.5 4.2 -3.3
v 4.6 4.2 -3.3
v 4.1 4.2 -4
v 4.2 4.2 -4
v 4.3 4.2 -4
v 4.4 4.2 -4
v 4.5 4.2 -4
v 4.6 4.2 -4
v 4.1 4.2 -4.1
v 4.2 4.2 -4.1
v 4.3 4.2 -4.1
v 4.4 4.2 -4.1
v 4.5 4.2 -4.1
v 4.6 4.2 -4.1
v 4.1 4.2 -4.7
v 4.2 4.2 -4.7
v 4.3 4.2 -4.7
v 4.4 4.2 -4.7
v 4.5 4.2 -4.7
v 4.6 4.2 -4.7
v 4.1 4.2 -4.9
v 4.2 4.2 -4.9
v 4.3 4.2 -4.9
v 4.4 4.2 -4.9
v 4.5 4.2 -4.9
v 4.6 4.2 -4.9
v 4.1 4.2 -5
v 4.2 4.2 -5
v 4.5 4.2 -5
v 4.6 4.2 -5
v 4.3 4.3 -3.2
v 4.4 4.3 -3.2
v 4.2 4.3 -3.3
v 4.3 4.3 -3.3
v 4.4 4.3 -3.3
v 4.5 4.3 -3.3
v 4.2 4.3 -4
v 4.3 4.3 -4
v 4.4 4.3 -4
v 4.5 4.3 -4
v 4.2 4.3 -4.1
v 4.3 4.3 -4.1
v 4.4 4.3 -4.1
v 4.5 4.3 -4.1
v 4.2 4.3 -4.7
v 4.3 4.3 -4.7
v 4.4 4.3 -4.7
v 4.5 4.3 -4.7
v 4.2 4.3 -4.9
v 4.3 4.3 -4.9
v 4.4 4.3 -4.9
v 4.5 4.3 -4.9
v 4.2 4.3 -5
v 4.3 4.3 -5
v 4.4 4.3 -5
v 4.5 4.3 -5
v 4.3 4 -3.2
v 4.4 4 -3.2
v 4.2 4 -3.3
v 4.3 4 -3.3
v 4.4 4 -3.3
v 4.5 4 -3.3
v 4.2 4 -4
v 4.3 4 -4
v 4.4 4 -4
v 4.5 4 -4
v 4.2 4 -4.1
v 4.3 4 -4.1
v 4.4 4 -4.1
v 4.5 4 -4.1
v 4.2 4 -4.7
v 4.3 4 -4.7
v 4.4 4 -4.7
v 4.5 4 -4.7
v 4.2 4 -4.9
v 4.3 4 -4.9
v 4.4 4 -4.9
v 4.5 4 -4.9
v 4.2 4 -5
v 4.3 4 -5
v 4.4 4 -5
v 4.5 4 -5
v 4.2 4.1 -3.2
v 4.3 4.1 -3.2
v 4.4 4.1 -3.2
v 4.5 4.1 -3.2
v 4.1 4.1 -3.3
v 4.2 4.1 -3.3
v 4.3 4.1 -3.3
v 4.4 4.1 -3.3
v 4.5 4.1 -3.3
v 4.6 4.1 -3.3
v 4.1 4.1 -4
v 4.2 4.1 -4
v 4.3 4.1 -4
v 4.4 4.1 -4
v 4.5 4.1 -4
v 4.6 4.1 -4
v 4.1 4.1 -4.1
v 4.2 4.1 -4.1
v 4.3 4.1 -4.1
v 4.4 4.1 -4.1
v 4.5 4.1 -4.1
v 4.6 4.1 -4.1
v 4.1 4.1 -4.7
v 4.2 4.1 -4.7
v 4.3 4.1 -4.7
v 4.4 4.1 -4.7
v 4.5 4.1 -4.7
v 4.6 4.1 -4.7
v 4.1 4.1 -4.9
v 4.2 4.1 -4.9
v 4.3 4.1 -4.9
v 4.4 4.1 -4.9
v 4.5 4.1 -4.9
v 4.6 4.1 -4.9
v 4.1 4.1 -5
v 4.2 4.1 -5
v 4.5 4.1 -5
v 4.6 4.1 -5
v 4.1 4.3 -3.2
v 4.2 4.3 -3.2
v 4.5 4.3 -3.2
v 4.6 4.3 -3.2
v 4.1 4.3 -3.3
v 4.2 4.3 -3.3
v 4.5 4.3 -3.3
v 4.6 4.3 -3.3
v 4.1 4.3 -4
v 4.2 4.3 -4
v 4.5 4.3 -4
v 4.6 4.3 -4
v 4.1 4.3 -4.1
v 4.2 4.3 -4.1
v 4.5 4.3 -4.1
v 4.6 4.3 -4.1
v 4.1 4.3 -4.7
v 4.2 4.3 -4.7
v 4.5 4.3 -4.7
v 4.6 4.3 -4.7
v 4.1 4.3 -4.9
v 4.2 4.3 -4.9
v 4.5 4.3 -4.9
v 4.6 4.3 -4.9
v 4.1 4.3 -5
v 4.2 4.3 -5
v 4.5 4.3 -5
v 4.6 4.3 -5
v 4.2 4.4 -3.2
v 4.5 4.4 -3.2
v 4.2 4.4 -3.3
v 4.3 4.4 -3.3
v 4.4 4.4 -3.3
v 4.5 4.4 -3.3
v 4.2 4.4 -4
v 4.3 4.4 -4
v 4.4 4.4 -4
v 4.5 4.4 -4
v 4.2 4.4 -4.1
v 4.3 4.4 -4.1
v 4.4 4.4 -4.1
v 4.5 4.4 -4.1
v 4.2 4.4 -4.7
v 4.3 4.4 -4.7
v 4.4 4.4 -4.7
v 4.5 4.4 -4.7
v 4.2 4.4 -4.9
v 4.3 4.4 -4.9
v 4.4 4.4 -4.9
v 4.5 4.4 -4.9
v 4.2 4.4 -5
v 4.3 4.4 -5
v 4.4 4.4 -5
v 4.5 4.4 -5

# faces
f 8/1/1 2/1/1 1/1/1
f 8/2/1 3/2/1 2/2/1
f 9/1/1 4/1/1 3/1/1
f 9/2/1 3/2/1 8/2/1
f 10/2/1 5/2/1 4/2/1
f 10/1/1 4/1/1 9/1/1
f 11/1/1 6/1/1 5/1/1
f 11/2/1 5/2/1 10/2/1
f 12/2/1 7/2/1 6/2/1
f 12/1/1 6/1/1 11/1/1
f 13/2/1 7/2/1 12/2/1
f 14/1/1 8/1/1 1/1/1
f 15/1/1 10/1/1 9/1/1
f 16/1/1 10/1/1 15/1/1
f 17/1/1 12/1/1 11/1/1
f 18/1/1 12/1/1 17/1/1
f 20/1/1 14/1/1 1/1/1
f 21/2/1 15/2/1 14/2/1
f 21/1/1 14/1/1 20/1/1
f 22/1/1 16/1/1 15/1/1
f 22/2/1 15/2/1 21/2/1
f 23/2/1 17/2/1 16/2/1
f 23/1/1 16/1/1 22/1/1
f 24/1/1 18/1/1 17/1/1
f 24/2/1 17/2/1 23/2/1
f 25/2/1 19/2/1 18/2/1
f 25/1/1 18/1/1 24/1/1
f 26/2/1 19/2/1 25/2/1
f 34/1/1 28/1/1 27/1/1
f 35/2/1 29/2/1 28/2/1
f 35/1/1 28/1/1 34/1/1
f 36/1/1 30/1/1 29/1/1
f 36/2/1 29/2/1 35/2/1
f 37/2/1 31/2/1 30/2/1
f 37/1/1 30/1/1 36/1/1
f 38/1/1 32/1/1 31/1/1
f 38/2/1 31/2/1 37/2/1
f 39/2/1 33/2/1 32/2/1
f 39/1/1 32/1/1 38/1/1
f 40/2/1 33/2/1 39/2/1
f 48/1/1 42/1/1 41/1/1
f 49/2/1 43/2/1 42/2/1
f 49/1/1 42/1/1 48/1/1
f 50/1/1 44/1/1 43/1/1
f 50/2/1 43/2/1 49/2/1
f 51/2/1 45/2/1 44/2/1
f 51/1/1 44/1/1 50/1/1
f 52/1/1 46/1/1 45/1/1
f 52/2/1 45/2/1 51/2/1
f 53/2/1 47/2/1 46/2/1
f 53/1/1 46/1/1 52/1/1
f 54/2/1 47/2/1 53/2/1
f 62/2/1 56/2/1 55/2/1
f 63/2/1 56/2/1 62/2/1
f 64/2/1 58/2/1 57/2/1
f 65/2/1 58/2/1 64/2/1
f 66/2/1 60/2/1 59/2/1
f 67/2/1 60/2/1 66/2/1
f 68/1/1 62/1/1 61/1/1
f 69/1/1 62/1/1 68/1/1
f 70/1/1 64/1/1 63/1/1
f 71/1/1 64/1/1 70/1/1
f 72/1/1 66/1/1 65/1/1
f 73/1/1 66/1/1 72/1/1
f 80/1/1 75/1/1 74/1/1
f 81/1/1 75/1/1 80/1/1
f 82/1/1 77/1/1 76/1/1
f 83/1/1 77/1/1 82/1/1
f 84/1/1 79/1/1 78/1/1
f 85/1/1 79/1/1 84/1/1
f 87/2/1 82/2/1 81/2/1
f 88/2/1 82/2/1 87/2/1
f 89/2/1 84/2/1 83/2/1
f 90/2/1 84/2/1 89/2/1
f 91/2/1 86/2/1 85/2/1
f 92/2/1 86/2/1 91/2/1
f 100/2/1 94/2/1 93/2/1
f 101/2/1 94/2/1 100/2/1
f 102/2/1 96/2/1 95/2/1
f 103/2/1 96/2/1 102/2/1
f 104/2/1 98/2/1 97/2/1
f 105/2/1 98/2/1 104/2/1
f 106/1/1 100/1/1 99/1/1
f 107/1/1 100/1/1 106/1/1
f 108/1/1 102/1/1 101/1/1
f 109/1/1 102/1/1 108/1/1
f 110/1/1 104/1/1 103/1/1
f 111/1/1 104/1/1 110/1/1
f 113/2/1 108/2/1 107/2/1
f 114/2/1 108/2/1 113/2/1
f 115/2/1 110/2/1 109/2/1
f 116/2/1 110/2/1 115/2/1
f 117/2/1 112/2/1 111/2/1
f 118/2/1 112/2/1 117/2/1
f 119/2/2 120/2/2 126/2/2
f 126/2/2 120/2/2 127/2/2
f 121/2/2 122/2/2 128/2/2
f 128/2/2 122/2/2 129/2/2
f 123/2/2 124/2/2 130/2/2
f 130/2/2 124/2/2 131/2/2
f 125/1/2 126/1/2 132/1/2
f 132/1/2 126/1/2 133/1/2
f 127/1/2 128/1/2 134/1/2
f 134/1/2 128/1/2 135/1/2
f 129/1/2 130/1/2 136/1/2
f 136/1/2 130/1/2 137/1/2
f 133/2/2 134/2/2 139/2/2
f 139/2/2 134/2/2 140/2/2
f 135/2/2 136/2/2 141/2/2
f 141/2/2 136/2/2 142/2/2
f 137/2/2 138/2/2 143/2/2
f 143/2/2 138/2/2 144/2/2
f 145/2/2 146/2/2 152/2/2
f 152/2/2 146/2/2 153/2/2
f 147/2/2 148/2/2 154/2/2
f 154/2/2 148/2/2 155/2/2
f 149/2/2 150/2/2 156/2/2
f 156/2/2 150/2/2 157/2/2
f 151/1/2 152/1/2 158/1/2
f 158/1/2 152/1/2 159/1/2
f 153/1/2 154/1/2 160/1/2
f 160/1/2 154/1/2 161/1/2
f 155/1/2 156/1/2 162/1/2
f 162/1/2 156/1/2 163/1/2
f 164/1/2 165/1/2 170/1/2
f 170/1/2 165/1/2 171/1/2
f 166/1/2 167/1/2 172/1/2
f 172/1/2 167/1/2 173/1/2
f 168/1/2 169/1/2 174/1/2
f 174/1/2 169/1/2 175/1/2
f 171/2/2 172/2/2 177/2/2
f 177/2/2 172/2/2 178/2/2
f 173/2/2 174/2/2 179/2/2
f 179/2/2 174/2/2 180/2/2
f 175/2/2 176/2/2 181/2/2
f 181/2/2 176/2/2 182/2/2
f 183/1/2 184/1/2 190/1/2
f 184/2/2 185/2/2 191/2/2
f 190/1/2 184/1/2 191/1/2
f 185/1/2 186/1/2 192/1/2
f 191/2/2 185/2/2 192/2/2
f 186/2/2 187/2/2 193/2/2
f 192/1/2 186/1/2 193/1/2
f 187/1/2 188/1/2 194/1/2
f 193/2/2 187/2/2 194/2/2
f 188/2/2 189/2/2 195/2/2
f 194/1/2 188/1/2 195/1/2
f 195/2/2 189/2/2 196/2/2
f 197/1/2 198/1/2 204/1/2
f 198/2/2 199/2/2 205/2/2
f 204/1/2 198/1/2 205/1/2
f 199/1/2 200/1/2 206/1/2
f 205/2/2 199/2/2 206/2/2
f 200/2/2 201/2/2 207/2/2
f 206/1/2 200/1/2 207/1/2
f 201/1/2 202/1/2 208/1/2
f 207/2/2 201/2/2 208/2/2
f 202/2/2 203/2/2 209/2/2
f 208/1/2 202/1/2 209/1/2
f 209/2/2 203/2/2 210/2/2
f 211/1/2 212/1/2 218/1/2
f 212/2/2 213/2/2 218/2/2
f 213/1/2 214/1/2 219/1/2
f 218/2/2 213/2/2 219/2/2
f 214/2/2 215/2/2 220/2/2
f 219/1/2 214/1/2 220/1/2
f 215/1/2 216/1/2 221/1/2
f 220/2/2 215/2/2 221/2/2
f 216/2/2 217/2/2 222/2/2
f 221/1/2 216/1/2 222/1/2
f 222/2/2 217/2/2 223/2/2
f 211/1/2 218/1/2 224/1/2
f 219/1/2 220/1/2 225/1/2
f 225/1/2 220/1/2 226/1/2
f 221/1/2 222/1/2 227/1/2
f 227/1/2 222/1/2 228/1/2
f 211/1/2 224/1/2 230/1/2
f 224/2/2 225/2/2 231/2/2
f 230/1/2 224/1/2 231/1/2
f 225/1/2 226/1/2 232/1/2
f 231/2/2 225/2/2 232/2/2
f 226/2/2 227/2/2 233/2/2
f 232/1/2 226/1/2 233/1/2
f 227/1/2 228/1/2 234/1/2
f 233/2/2 227/2/2 234/2/2
f 228/2/2 229/2/2 235/2/2
f 234/1/2 228/1/2 235/1/2
f 235/2/2 229/2/2 236/2/2
f 240/1/3 238/1/3 237/1/3
f 241/1/3 238/1/3 240/1/3
f 242/1/3 238/1/3 241/1/3
f 243/1/3 238/1/3 242/1/3
f 245/1/3 240/1/3 239/1/3
f 245/1/3 241/1/3 240/1/3
f 246/1/3 241/1/3 245/1/3
f 247/1/3 244/1/3 243/1/3
f 247/1/3 243/1/3 242/1/3
f 248/1/3 244/1/3 247/1/3
f 249/1/3 245/1/3 239/1/3
f 252/1/3 244/1/3 248/1/3
f 253/1/3 250/1/3 249/1/3
f 253/1/3 249/1/3 239/1/3
f 254/1/3 250/1/3 253/1/3
f 255/1/3 250/1/3 254/1/3
f 256/1/3 252/1/3 251/1/3
f 257/1/3 244/1/3 252/1/3
f 257/1/3 252/1/3 256/1/3
f 258/1/3 244/1/3 257/1/3
f 259/1/3 255/1/3 254/1/3
f 259/1/3 256/1/3 255/1/3
f 259/1/3 257/1/3 256/1/3
f 260/1/3 257/1/3 259/1/3
f 264/1/3 262/1/3 261/1/3
f 265/1/3 262/1/3 264/1/3
f 268/1/3 264/1/3 263/1/3
f 269/1/3 264/1/3 268/1/3
f 270/1/3 266/1/3 265/1/3
f 271/1/3 266/1/3 270/1/3
f 273/1/3 268/1/3 267/1/3
f 274/1/3 268/1/3 273/1/3
f 277/1/3 272/1/3 271/1/3
f 278/1/3 272/1/3 277/1/3
f 279/1/3 275/1/3 274/1/3
f 280/1/3 275/1/3 279/1/3
f 281/1/3 277/1/3 276/1/3
f 282/1/3 277/1/3 281/1/3
f 283/1/3 281/1/3 280/1/3
f 284/1/3 281/1/3 283/1/3
f 288/1/3 286/1/3 285/1/3
f 289/1/3 286/1/3 288/1/3
f 292/1/3 288/1/3 287/1/3
f 293/1/3 288/1/3 292/1/3
f 294/1/3 290/1/3 289/1/3
f 295/1/3 290/1/3 294/1/3
f 297/1/3 292/1/3 291/1/3
f 298/1/3 292/1/3 297/1/3
f 301/1/3 296/1/3 295/1/3
f 302/1/3 296/1/3 301/1/3
f 303/1/3 299/1/3 298/1/3
f 304/1/3 299/1/3 303/1/3
f 305/1/3 301/1/3 300/1/3
f 306/1/3 301/1/3 305/1/3
f 307/1/3 305/1/3 304/1/3
f 308/1/3 305/1/3 307/1/3
f 309/1/4 310/1/4 312/1/4
f 312/1/4 310/1/4 313/1/4
f 311/1/4 312/1/4 316/1/4
f 316/1/4 312/1/4 317/1/4
f 313/1/4 314/1/4 318/1/4
f 318/1/4 314/1/4 319/1/4
f 315/1/4 316/1/4 321/1/4
f 321/1/4 316/1/4 322/1/4
f 319/1/4 320/1/4 325/1/4
f 325/1/4 320/1/4 326/1/4
f 322/1/4 323/1/4 327/1/4
f 327/1/4 323/1/4 328/1/4
f 324/1/4 325/1/4 329/1/4
f 329/1/4 325/1/4 330/1/4
f 328/1/4 329/1/4 331/1/4
f 331/1/4 329/1/4 332/1/4
f 333/1/4 334/1/4 336/1/4
f 336/1/4 334/1/4 337/1/4
f 335/1/4 336/1/4 340/1/4
f 340/1/4 336/1/4 341/1/4
f 337/1/4 338/1/4 342/1/4
f 342/1/4 338/1/4 343/1/4
f 339/1/4 340/1/4 345/1/4
f 345/1/4 340/1/4 346/1/4
f 343/1/4 344/1/4 349/1/4
f 349/1/4 344/1/4 350/1/4
f 346/1/4 347/1/4 351/1/4
f 351/1/4 347/1/4 352/1/4
f 348/1/4 349/1/4 353/1/4
f 353/1/4 349/1/4 354/1/4
f 352/1/4 353/1/4 355/1/4
f 355/1/4 353/1/4 356/1/4
f 357/1/4 358/1/4 360/1/4
f 360/1/4 358/1/4 361/1/4
f 359/1/4 360/1/4 364/1/4
f 364/1/4 360/1/4 365/1/4
f 361/1/4 362/1/4 366/1/4
f 366/1/4 362/1/4 367/1/4
f 363/1/4 364/1/4 369/1/4
f 369/1/4 364/1/4 370/1/4
f 367/1/4 368/1/4 373/1/4
f 373/1/4 368/1/4 374/1/4
f 370/1/4 371/1/4 375/1/4
f 375/1/4 371/1/4 376/1/4
f 372/1/4 373/1/4 377/1/4
f 377/1/4 373/1/4 378/1/4
f 376/1/4 377/1/4 379/1/4
f 379/1/4 377/1/4 380/1/4
f 381/2/4 382/2/4 386/2/4
f 386/2/4 382/2/4 387/2/4
f 383/2/4 384/2/4 388/2/4
f 388/2/4 384/2/4 389/2/4
f 385/2/4 386/2/4 391/2/4
f 391/2/4 386/2/4 392/2/4
f 389/2/4 390/2/4 393/2/4
f 393/2/4 390/2/4 394/2/4
f 395/2/4 396/2/4 399/2/4
f 399/2/4 396/2/4 400/2/4
f 397/2/4 398/2/4 403/2/4
f 403/2/4 398/2/4 404/2/4
f 400/2/4 401/2/4 405/2/4
f 405/2/4 401/2/4 406/2/4
f 402/2/4 403/2/4 407/2/4
f 407/2/4 403/2/4 408/2/4
f 411/1/5 410/1/5 409/1/5
f 412/1/5 410/1/5 411/1/5
f 413/1/5 410/1/5 412/1/5
f 414/1/5 410/1/5 413/1/5
f 415/2/5 412/2/5 411/2/5
f 416/2/5 412/2/5 415/2/5
f 417/2/5 414/2/5 413/2/5
f 418/2/5 414/2/5 417/2/5
f 419/1/5 416/1/5 415/1/5
f 419/1/5 417/1/5 416/1/5
f 419/1/5 418/1/5 417/1/5
f 420/1/5 418/1/5 419/1/5
f 421/1/5 418/1/5 420/1/5
f 422/1/5 418/1/5 421/1/5
f 423/2/5 420/2/5 419/2/5
f 424/2/5 420/2/5 423/2/5
f 425/2/5 422/2/5 421/2/5
f 426/2/5 422/2/5 425/2/5
f 427/1/5 424/1/5 423/1/5
f 427/1/5 425/1/5 424/1/5
f 427/1/5 426/1/5 425/1/5
f 428/1/5 426/1/5 427/1/5
f 429/1/5 426/1/5 428/1/5
f 430/1/5 426/1/5 429/1/5
f 431/2/5 428/2/5 427/2/5
f 432/2/5 428/2/5 431/2/5
f 433/2/5 430/2/5 429/2/5
f 434/2/5 430/2/5 433/2/5
f 439/1/5 436/1/5 435/1/5
f 440/1/5 436/1/5 439/1/5
f 441/1/5 438/1/5 437/1/5
f 442/1/5 438/1/5 441/1/5
f 443/2/5 440/2/5 439/2/5
f 444/2/5 440/2/5 443/2/5
f 445/2/5 442/2/5 441/2/5
f 446/2/5 442/2/5 445/2/5
f 447/1/5 444/1/5 443/1/5
f 448/1/5 444/1/5 447/1/5
f 449/1/5 446/1/5 445/1/5
f 450/1/5 446/1/5 449/1/5
f 451/2/5 448/2/5 447/2/5
f 452/2/5 448/2/5 451/2/5
f 453/2/5 450/2/5 449/2/5
f 454/2/5 450/2/5 453/2/5
f 455/1/5 452/1/5 451/1/5
f 456/1/5 452/1/5 455/1/5
f 457/1/5 454/1/5 453/1/5
f 458/1/5 454/1/5 457/1/5
f 459/2/5 456/2/5 455/2/5
f 460/2/5 456/2/5 459/2/5
f 461/2/5 458/2/5 457/2/5
f 462/2/5 458/2/5 461/2/5
f 468/1/5 464/1/5 463/1/5
f 469/1/5 464/1/5 468/1/5
f 470/1/5 466/1/5 465/1/5
f 471/1/5 466/1/5 470/1/5
f 473/2/5 468/2/5 467/2/5
f 474/2/5 468/2/5 473/2/5
f 477/2/5 472/2/5 471/2/5
f 478/2/5 472/2/5 477/2/5
f 480/1/5 475/1/5 474/1/5
f 481/1/5 475/1/5 480/1/5
f 482/1/5 477/1/5 476/1/5
f 483/1/5 477/1/5 482/1/5
f 485/2/5 480/2/5 479/2/5
f 486/2/5 480/2/5 485/2/5
f 489/2/5 484/2/5 483/2/5
f 490/2/5 484/2/5 489/2/5
f 492/1/5 487/1/5 486/1/5
f 493/1/5 487/1/5 492/1/5
f 494/1/5 489/1/5 488/1/5
f 495/1/5 489/1/5 494/1/5
f 497/2/5 492/2/5 491/2/5
f 498/2/5 492/2/5 497/2/5
f 499/2/5 496/2/5 495/2/5
f 500/2/5 496/2/5 499/2/5
f 504/1/5 502/1/5 501/1/5
f 505/1/5 502/1/5 504/1/5
f 507/2/5 504/2/5 503/2/5
f 508/2/5 504/2/5 507/2/5
f 509/2/5 506/2/5 505/2/5
f 510/2/5 506/2/5 509/2/5
f 512/1/5 509/1/5 508/1/5
f 513/1/5 509/1/5 512/1/5
f 515/2/5 512/2/5 511/2/5
f 516/2/5 512/2/5 515/2/5
f 517/2/5 514/2/5 513/2/5
f 518/2/5 514/2/5 517/2/5
f 520/1/5 517/1/5 516/1/5
f 521/1/5 517/1/5 520/1/5
f 523/2/5 520/2/5 519/2/5
f 524/2/5 520/2/5 523/2/5
f 525/2/5 522/2/5 521/2/5
f 526/2/5 522/2/5 525/2/5
f 527/1/6 528/1/6 530/1/6
f 530/1/6 528/1/6 531/1/6
f 529/2/6 530/2/6 533/2/6
f 533/2/6 530/2/6 534/2/6
f 531/2/6 532/2/6 535/2/6
f 535/2/6 532/2/6 536/2/6
f 534/1/6 535/1/6 538/1/6
f 538/1/6 535/1/6 539/1/6
f 537/2/6 538/2/6 541/2/6
f 541/2/6 538/2/6 542/2/6
f 539/2/6 540/2/6 543/2/6
f 543/2/6 540/2/6 544/2/6
f 542/1/6 543/1/6 546/1/6
f 546/1/6 543/1/6 547/1/6
f 545/2/6 546/2/6 549/2/6
f 549/2/6 546/2/6 550/2/6
f 547/2/6 548/2/6 551/2/6
f 551/2/6 548/2/6 552/2/6
f 553/1/6 554/1/6 558/1/6
f 558/1/6 554/1/6 559/1/6
f 555/1/6 556/1/6 560/1/6
f 560/1/6 556/1/6 561/1/6
f 557/2/6 558/2/6 563/2/6
f 563/2/6 558/2/6 564/2/6
f 561/2/6 562/2/6 567/2/6
f 567/2/6 562/2/6 568/2/6
f 564/1/6 565/1/6 570/1/6
f 570/1/6 565/1/6 571/1/6
f 566/1/6 567/1/6 572/1/6
f 572/1/6 567/1/6 573/1/6
f 569/2/6 570/2/6 575/2/6
f 575/2/6 570/2/6 576/2/6
f 573/2/6 574/2/6 579/2/6
f 579/2/6 574/2/6 580/2/6
f 576/1/6 577/1/6 582/1/6
f 582/1/6 577/1/6 583/1/6
f 578/1/6 579/1/6 584/1/6
f 584/1/6 579/1/6 585/1/6
f 581/2/6 582/2/6 587/2/6
f 587/2/6 582/2/6 588/2/6
f 585/2/6 586/2/6 589/2/6
f 589/2/6 586/2/6 590/2/6
f 591/1/6 592/1/6 595/1/6
f 595/1/6 592/1/6 596/1/6
f 593/1/6 594/1/6 597/1/6
f 597/1/6 594/1/6 598/1/6
f 595/2/6 596/2/6 599/2/6
f 599/2/6 596/2/6 600/2/6
f 597/2/6 598/2/6 601/2/6
f 601/2/6 598/2/6 602/2/6
f 599/1/6 600/1/6 603/1/6
f 603/1/6 600/1/6 604/1/6
f 601/1/6 602/1/6 605/1/6
f 605/1/6 602/1/6 606/1/6
f 603/2/6 604/2/6 607/2/6
f 607/2/6 604/2/6 608/2/6
f 605/2/6 606/2/6 609/2/6
f 609/2/6 606/2/6 610/2/6
f 607/1/6 608/1/6 611/1/6
f 611/1/6 608/1/6 612/1/6
f 609/1/6 610/1/6 613/1/6
f 613/1/6 610/1/6 614/1/6
f 611/2/6 612/2/6 615/2/6
f 615/2/6 612/2/6 616/2/6
f 613/2/6 614/2/6 617/2/6
f 617/2/6 614/2/6 618/2/6
f 619/1/6 620/1/6 621/1/6
f 621/1/6 620/1/6 622/1/6
f 622/1/6 620/1/6 623/1/6
f 623/1/6 620/1/6 624/1/6
f 621/2/6 622/2/6 625/2/6
f 625/2/6 622/2/6 626/2/6
f 623/2/6 624/2/6 627/2/6
f 627/2/6 624/2/6 628/2/6
f 625/1/6 626/1/6 629/1/6
f 626/1/6 627/1/6 629/1/6
f 627/1/6 628/1/6 629/1/6
f 629/1/6 628/1/6 630/1/6
f 630/1/6 628/1/6 631/1/6
f 631/1/6 628/1/6 632/1/6
f 629/2/6 630/2/6 633/2/6
f 633/2/6 630/2/6 634/2/6
f 631/2/6 632/2/6 635/2/6
f 635/2/6 632/2/6 636/2/6
f 633/1/6 634/1/6 637/1/6
f 634/1/6 635/1/6 637/1/6
f 635/1/6 636/1/6 637/1/6
f 637/1/6 636/1/6 638/1/6
f 638/1/6 636/1/6 639/1/6
f 639/1/6 636/1/6 640/1/6
f 637/2/6 638/2/6 641/2/6
f 641/2/6 638/2/6 642/2/6
f 639/2/6 640/2/6 643/2/6
f 643/2/6 640/2/6 644/2/6
