# MagicaVoxel @ Ephtracy

# group
o 

# material
mtllib Radar1.mtl
usemtl palette

# normals
vn -1 0 0
vn 1 0 0
vn 0 0 1
vn 0 0 -1
vn 0 -1 0
vn 0 1 0

# texcoords
vt 0.310547 0.5
vt 0.333984 0.5
vt 0.935547 0.5

# verts
v 2.1 4.3 -2.1
v 2.1 4.3 -2.5
v 2.1 4.4 -2.1
v 2.1 4.4 -2.2
v 2.1 4.4 -2.3
v 2.1 4.4 -2.5
v 2.1 4.6 -2.1
v 2.1 4.6 -2.2
v 2.1 4.6 -2.3
v 2.2 4.3 -2
v 2.2 4.3 -2.1
v 2.2 4.3 -2.5
v 2.2 4.3 -2.6
v 2.2 4.4 -2
v 2.2 4.4 -2.1
v 2.2 4.4 -2.5
v 2.2 4.4 -2.6
v 2.3 4.3 -1.9
v 2.3 4.3 -2
v 2.3 4.3 -2.6
v 2.3 4.3 -2.7
v 2.3 4.4 -1.9
v 2.3 4.4 -2
v 2.3 4.4 -2.1
v 2.3 4.4 -2.6
v 2.3 4.4 -2.7
v 2.3 4.5 -2.1
v 2.3 4.5 -2.2
v 2.3 4.5 -2.3
v 2.3 4.6 -2.3
v 2.3 4.6 -2.6
v 2.4 4.4 -2
v 2.4 4.4 -2.1
v 2.4 4.6 -2
v 2.4 4.6 -2.1
v 2.5 4.4 -2.5
v 2.5 4.4 -2.7
v 2.5 4.6 -2.5
v 2.5 4.6 -2.7
v 2.7 4.4 -2.6
v 2.7 4.4 -2.7
v 2.7 4.5 -2.6
v 2.7 4.5 -2.7
v 2.2 4.4 -2.1
v 2.2 4.4 -2.2
v 2.2 4.4 -2.3
v 2.2 4.5 -2.1
v 2.2 4.5 -2.2
v 2.2 4.5 -2.3
v 2.4 4.4 -2.5
v 2.4 4.4 -2.6
v 2.4 4.6 -2.5
v 2.4 4.6 -2.6
v 2.6 4.4 -2.6
v 2.6 4.4 -2.7
v 2.6 4.5 -2.6
v 2.6 4.5 -2.7
v 2.7 4.3 -1.9
v 2.7 4.3 -2
v 2.7 4.3 -2.6
v 2.7 4.3 -2.7
v 2.7 4.4 -1.9
v 2.7 4.4 -2
v 2.7 4.4 -2.6
v 2.7 4.4 -2.7
v 2.8 4.3 -2
v 2.8 4.3 -2.1
v 2.8 4.3 -2.5
v 2.8 4.3 -2.6
v 2.8 4.4 -2.6
v 2.8 4.4 -2.7
v 2.8 4.5 -2.1
v 2.8 4.5 -2.5
v 2.8 4.6 -2
v 2.8 4.6 -2.7
v 2.9 4.3 -2.1
v 2.9 4.3 -2.5
v 2.9 4.5 -2.1
v 2.9 4.5 -2.5
v 2.3 4.3 -1.9
v 2.3 4.4 -1.9
v 2.7 4.3 -1.9
v 2.7 4.4 -1.9
v 2.2 4.3 -2
v 2.2 4.4 -2
v 2.3 4.3 -2
v 2.3 4.4 -2
v 2.4 4.4 -2
v 2.4 4.6 -2
v 2.7 4.3 -2
v 2.7 4.4 -2
v 2.8 4.3 -2
v 2.8 4.6 -2
v 2.1 4.3 -2.1
v 2.1 4.4 -2.1
v 2.1 4.6 -2.1
v 2.2 4.3 -2.1
v 2.2 4.4 -2.1
v 2.2 4.5 -2.1
v 2.3 4.4 -2.1
v 2.3 4.5 -2.1
v 2.3 4.6 -2.1
v 2.4 4.4 -2.1
v 2.4 4.6 -2.1
v 2.8 4.3 -2.1
v 2.8 4.5 -2.1
v 2.9 4.3 -2.1
v 2.9 4.5 -2.1
v 2.1 4.4 -2.3
v 2.1 4.6 -2.3
v 2.2 4.4 -2.3
v 2.2 4.5 -2.3
v 2.3 4.5 -2.3
v 2.3 4.6 -2.3
v 2.1 4.3 -2.5
v 2.1 4.4 -2.5
v 2.2 4.3 -2.5
v 2.2 4.4 -2.5
v 2.4 4.4 -2.5
v 2.4 4.6 -2.5
v 2.5 4.4 -2.5
v 2.5 4.6 -2.5
v 2.8 4.3 -2.5
v 2.8 4.5 -2.5
v 2.9 4.3 -2.5
v 2.9 4.5 -2.5
v 2.2 4.3 -2.6
v 2.2 4.4 -2.6
v 2.3 4.3 -2.6
v 2.3 4.4 -2.6
v 2.3 4.6 -2.6
v 2.4 4.4 -2.6
v 2.4 4.6 -2.6
v 2.6 4.4 -2.6
v 2.6 4.5 -2.6
v 2.7 4.3 -2.6
v 2.7 4.4 -2.6
v 2.7 4.5 -2.6
v 2.8 4.3 -2.6
v 2.8 4.4 -2.6
v 2.3 4.3 -2.7
v 2.3 4.4 -2.7
v 2.5 4.4 -2.7
v 2.5 4.6 -2.7
v 2.6 4.4 -2.7
v 2.6 4.5 -2.7
v 2.7 4.3 -2.7
v 2.7 4.4 -2.7
v 2.7 4.5 -2.7
v 2.8 4.4 -2.7
v 2.8 4.6 -2.7
v 2.3 4.3 -1.9
v 2.7 4.3 -1.9
v 2.2 4.3 -2
v 2.3 4.3 -2
v 2.7 4.3 -2
v 2.8 4.3 -2
v 2.1 4.3 -2.1
v 2.2 4.3 -2.1
v 2.8 4.3 -2.1
v 2.9 4.3 -2.1
v 2.1 4.3 -2.5
v 2.2 4.3 -2.5
v 2.8 4.3 -2.5
v 2.9 4.3 -2.5
v 2.2 4.3 -2.6
v 2.3 4.3 -2.6
v 2.7 4.3 -2.6
v 2.8 4.3 -2.6
v 2.3 4.3 -2.7
v 2.7 4.3 -2.7
v 2.7 4.4 -2.6
v 2.8 4.4 -2.6
v 2.7 4.4 -2.7
v 2.8 4.4 -2.7
v 2.2 4.5 -2.1
v 2.3 4.5 -2.1
v 2.2 4.5 -2.2
v 2.3 4.5 -2.2
v 2.2 4.5 -2.3
v 2.3 4.5 -2.3
v 2.6 4.5 -2.6
v 2.7 4.5 -2.6
v 2.6 4.5 -2.7
v 2.7 4.5 -2.7
v 2.3 4.4 -1.9
v 2.7 4.4 -1.9
v 2.2 4.4 -2
v 2.3 4.4 -2
v 2.4 4.4 -2
v 2.7 4.4 -2
v 2.2 4.4 -2.1
v 2.3 4.4 -2.1
v 2.4 4.4 -2.1
v 2.2 4.4 -2.2
v 2.1 4.4 -2.3
v 2.2 4.4 -2.3
v 2.1 4.4 -2.5
v 2.2 4.4 -2.5
v 2.4 4.4 -2.5
v 2.5 4.4 -2.5
v 2.2 4.4 -2.6
v 2.3 4.4 -2.6
v 2.4 4.4 -2.6
v 2.6 4.4 -2.6
v 2.7 4.4 -2.6
v 2.3 4.4 -2.7
v 2.5 4.4 -2.7
v 2.6 4.4 -2.7
v 2.7 4.4 -2.7
v 2.8 4.5 -2.1
v 2.9 4.5 -2.1
v 2.8 4.5 -2.5
v 2.9 4.5 -2.5
v 2.4 4.6 -2
v 2.8 4.6 -2
v 2.1 4.6 -2.1
v 2.3 4.6 -2.1
v 2.4 4.6 -2.1
v 2.1 4.6 -2.2
v 2.3 4.6 -2.2
v 2.1 4.6 -2.3
v 2.3 4.6 -2.3
v 2.4 4.6 -2.5
v 2.5 4.6 -2.5
v 2.3 4.6 -2.6
v 2.4 4.6 -2.6
v 2.5 4.6 -2.7
v 2.8 4.6 -2.7

# faces
f 3/2/1 2/2/1 1/2/1
f 4/2/1 2/2/1 3/2/1
f 5/2/1 2/2/1 4/2/1
f 6/2/1 2/2/1 5/2/1
f 7/3/1 4/3/1 3/3/1
f 8/1/1 5/1/1 4/1/1
f 8/3/1 4/3/1 7/3/1
f 9/1/1 5/1/1 8/1/1
f 14/2/1 11/2/1 10/2/1
f 15/2/1 11/2/1 14/2/1
f 16/2/1 13/2/1 12/2/1
f 17/2/1 13/2/1 16/2/1
f 22/2/1 19/2/1 18/2/1
f 23/2/1 19/2/1 22/2/1
f 25/2/1 21/2/1 20/2/1
f 26/2/1 21/2/1 25/2/1
f 27/2/1 25/2/1 24/2/1
f 28/2/1 25/2/1 27/2/1
f 29/2/1 25/2/1 28/2/1
f 30/2/1 25/2/1 29/2/1
f 31/2/1 25/2/1 30/2/1
f 34/2/1 33/2/1 32/2/1
f 35/2/1 33/2/1 34/2/1
f 38/2/1 37/2/1 36/2/1
f 39/2/1 37/2/1 38/2/1
f 42/2/1 41/2/1 40/2/1
f 43/2/1 41/2/1 42/2/1
f 44/3/2 45/3/2 47/3/2
f 45/1/2 46/1/2 48/1/2
f 47/3/2 45/3/2 48/3/2
f 48/1/2 46/1/2 49/1/2
f 50/2/2 51/2/2 52/2/2
f 52/2/2 51/2/2 53/2/2
f 54/2/2 55/2/2 56/2/2
f 56/2/2 55/2/2 57/2/2
f 58/2/2 59/2/2 62/2/2
f 62/2/2 59/2/2 63/2/2
f 60/2/2 61/2/2 64/2/2
f 64/2/2 61/2/2 65/2/2
f 68/2/2 69/2/2 70/2/2
f 66/2/2 67/2/2 72/2/2
f 70/2/2 71/2/2 73/2/2
f 68/2/2 70/2/2 73/2/2
f 66/2/2 72/2/2 74/2/2
f 72/2/2 73/2/2 74/2/2
f 73/2/2 71/2/2 75/2/2
f 74/2/2 73/2/2 75/2/2
f 76/2/2 77/2/2 78/2/2
f 78/2/2 77/2/2 79/2/2
f 82/2/3 81/2/3 80/2/3
f 83/2/3 81/2/3 82/2/3
f 86/2/3 85/2/3 84/2/3
f 87/2/3 85/2/3 86/2/3
f 91/2/3 89/2/3 88/2/3
f 92/2/3 91/2/3 90/2/3
f 93/2/3 89/2/3 91/2/3
f 93/2/3 91/2/3 92/2/3
f 97/2/3 95/2/3 94/2/3
f 98/3/3 96/3/3 95/3/3
f 98/2/3 95/2/3 97/2/3
f 99/3/3 96/3/3 98/3/3
f 101/3/3 96/3/3 99/3/3
f 102/3/3 96/3/3 101/3/3
f 103/2/3 101/2/3 100/2/3
f 103/2/3 102/2/3 101/2/3
f 104/2/3 102/2/3 103/2/3
f 107/2/3 106/2/3 105/2/3
f 108/2/3 106/2/3 107/2/3
f 109/1/4 110/1/4 111/1/4
f 111/1/4 110/1/4 112/1/4
f 112/1/4 110/1/4 113/1/4
f 113/1/4 110/1/4 114/1/4
f 115/2/4 116/2/4 117/2/4
f 117/2/4 116/2/4 118/2/4
f 119/2/4 120/2/4 121/2/4
f 121/2/4 120/2/4 122/2/4
f 123/2/4 124/2/4 125/2/4
f 125/2/4 124/2/4 126/2/4
f 127/2/4 128/2/4 129/2/4
f 129/2/4 128/2/4 130/2/4
f 130/2/4 131/2/4 132/2/4
f 132/2/4 131/2/4 133/2/4
f 134/2/4 135/2/4 137/2/4
f 137/2/4 135/2/4 138/2/4
f 136/2/4 137/2/4 139/2/4
f 139/2/4 137/2/4 140/2/4
f 141/2/4 142/2/4 143/2/4
f 141/2/4 143/2/4 145/2/4
f 143/2/4 144/2/4 145/2/4
f 145/2/4 144/2/4 146/2/4
f 141/2/4 145/2/4 147/2/4
f 147/2/4 145/2/4 148/2/4
f 146/2/4 144/2/4 149/2/4
f 148/2/4 149/2/4 150/2/4
f 149/2/4 144/2/4 151/2/4
f 150/2/4 149/2/4 151/2/4
f 155/2/5 153/2/5 152/2/5
f 156/2/5 153/2/5 155/2/5
f 159/2/5 155/2/5 154/2/5
f 159/2/5 157/2/5 156/2/5
f 159/2/5 156/2/5 155/2/5
f 160/2/5 157/2/5 159/2/5
f 162/2/5 159/2/5 158/2/5
f 162/2/5 161/2/5 160/2/5
f 162/2/5 160/2/5 159/2/5
f 163/2/5 161/2/5 162/2/5
f 164/2/5 161/2/5 163/2/5
f 165/2/5 161/2/5 164/2/5
f 166/2/5 164/2/5 163/2/5
f 167/2/5 164/2/5 166/2/5
f 168/2/5 164/2/5 167/2/5
f 169/2/5 164/2/5 168/2/5
f 170/2/5 168/2/5 167/2/5
f 171/2/5 168/2/5 170/2/5
f 174/2/5 173/2/5 172/2/5
f 175/2/5 173/2/5 174/2/5
f 178/3/5 177/3/5 176/3/5
f 179/3/5 177/3/5 178/3/5
f 180/1/5 179/1/5 178/1/5
f 181/1/5 179/1/5 180/1/5
f 184/2/5 183/2/5 182/2/5
f 185/2/5 183/2/5 184/2/5
f 186/2/6 187/2/6 189/2/6
f 189/2/6 187/2/6 190/2/6
f 190/2/6 187/2/6 191/2/6
f 188/2/6 189/2/6 192/2/6
f 189/2/6 190/2/6 192/2/6
f 192/2/6 190/2/6 193/2/6
f 193/2/6 190/2/6 194/2/6
f 192/2/6 193/2/6 195/2/6
f 195/2/6 193/2/6 197/2/6
f 196/2/6 197/2/6 198/2/6
f 197/2/6 193/2/6 199/2/6
f 198/2/6 197/2/6 199/2/6
f 199/2/6 193/2/6 202/2/6
f 202/2/6 193/2/6 203/2/6
f 200/2/6 201/2/6 204/2/6
f 203/2/6 204/2/6 207/2/6
f 204/2/6 201/2/6 208/2/6
f 207/2/6 204/2/6 208/2/6
f 205/2/6 206/2/6 209/2/6
f 209/2/6 206/2/6 210/2/6
f 211/2/6 212/2/6 213/2/6
f 213/2/6 212/2/6 214/2/6
f 215/2/6 216/2/6 219/2/6
f 217/3/6 218/3/6 220/3/6
f 218/2/6 219/2/6 221/2/6
f 220/3/6 218/3/6 221/3/6
f 220/1/6 221/1/6 222/1/6
f 221/2/6 219/2/6 223/2/6
f 222/1/6 221/1/6 223/1/6
f 219/2/6 216/2/6 224/2/6
f 223/2/6 219/2/6 224/2/6
f 224/2/6 216/2/6 225/2/6
f 223/2/6 224/2/6 226/2/6
f 226/2/6 224/2/6 227/2/6
f 225/2/6 216/2/6 228/2/6
f 228/2/6 216/2/6 229/2/6
