# MagicaVoxel @ Ephtracy

# group
o 

# material
mtllib Radar.mtl
usemtl palette

# normals
vn -1 0 0
vn 1 0 0
vn 0 0 1
vn 0 0 -1
vn 0 -1 0
vn 0 1 0

# texcoords
vt 0.146484 0.5
vt 0.310547 0.5
vt 0.333984 0.5
vt 0.935547 0.5

# verts
v 2 4.9 -2.1
v 2 4.9 -2.2
v 2 5.2 -2.1
v 2 5.2 -2.2
v 2.1 4.3 -2.1
v 2.1 4.3 -2.5
v 2.1 4.4 -2.1
v 2.1 4.4 -2.2
v 2.1 4.4 -2.3
v 2.1 4.4 -2.5
v 2.1 4.6 -2.1
v 2.1 4.6 -2.2
v 2.1 4.6 -2.3
v 2.1 4.9 -2
v 2.1 4.9 -2.1
v 2.1 5.2 -2
v 2.1 5.2 -2.1
v 2.2 4.3 -2
v 2.2 4.3 -2.1
v 2.2 4.3 -2.5
v 2.2 4.3 -2.6
v 2.2 4.4 -2
v 2.2 4.4 -2.1
v 2.2 4.4 -2.5
v 2.2 4.4 -2.6
v 2.2 4.9 -1.9
v 2.2 4.9 -2
v 2.2 5.2 -2
v 2.2 5.3 -1.9
v 2.2 5.3 -2
v 2.3 4.3 -1.9
v 2.3 4.3 -2
v 2.3 4.3 -2.6
v 2.3 4.3 -2.7
v 2.3 4.4 -1.9
v 2.3 4.4 -2
v 2.3 4.4 -2.1
v 2.3 4.4 -2.6
v 2.3 4.4 -2.7
v 2.3 4.5 -2.1
v 2.3 4.5 -2.2
v 2.3 4.5 -2.3
v 2.3 4.6 -2.3
v 2.3 4.6 -2.6
v 2.3 4.8 -1.9
v 2.3 4.8 -2
v 2.3 4.9 -1.9
v 2.3 4.9 -2
v 2.4 4.4 -2
v 2.4 4.4 -2.1
v 2.4 4.6 -2.1
v 2.4 4.6 -2.2
v 2.4 4.7 -1.9
v 2.4 4.7 -2
v 2.4 4.7 -2.2
v 2.4 4.7 -2.3
v 2.4 4.8 -1.9
v 2.4 4.8 -2
v 2.4 4.8 -2.3
v 2.4 4.8 -2.5
v 2.4 4.9 -2.3
v 2.4 4.9 -2.5
v 2.4 4.9 -2.6
v 2.4 5 -2.5
v 2.4 5 -2.6
v 2.5 4.4 -2.5
v 2.5 4.4 -2.7
v 2.5 4.6 -2.5
v 2.5 4.6 -2.7
v 2.5 5.2 -1.9
v 2.5 5.2 -2
v 2.5 5.3 -1.9
v 2.5 5.3 -2
v 2.6 4.6 -2.2
v 2.6 4.6 -2.4
v 2.6 4.7 -2.1
v 2.6 4.7 -2.2
v 2.6 4.8 -2.1
v 2.6 4.8 -2.4
v 2.7 4.4 -2.6
v 2.7 4.4 -2.7
v 2.7 4.5 -2.6
v 2.7 4.5 -2.7
v 2.7 4.9 -2
v 2.7 4.9 -2.1
v 2.7 5.2 -2
v 2.7 5.2 -2.1
v 2.8 4.6 -2.3
v 2.8 4.6 -2.4
v 2.8 4.7 -2.3
v 2.8 4.7 -2.4
v 2.8 4.9 -2.1
v 2.8 4.9 -2.2
v 2.8 5.2 -2.1
v 2.8 5.2 -2.2
v 2.1 4.9 -2.1
v 2.1 4.9 -2.2
v 2.1 5.2 -2.1
v 2.1 5.2 -2.2
v 2.2 4.4 -2.1
v 2.2 4.4 -2.2
v 2.2 4.4 -2.3
v 2.2 4.5 -2.1
v 2.2 4.5 -2.2
v 2.2 4.5 -2.3
v 2.2 4.9 -2
v 2.2 4.9 -2.1
v 2.2 5.2 -2
v 2.2 5.2 -2.1
v 2.4 4.4 -2.5
v 2.4 4.4 -2.6
v 2.4 4.6 -2.5
v 2.4 4.6 -2.6
v 2.4 5.2 -1.9
v 2.4 5.2 -2
v 2.4 5.3 -1.9
v 2.4 5.3 -2
v 2.5 4.7 -1.9
v 2.5 4.7 -2
v 2.5 4.7 -2.2
v 2.5 4.7 -2.3
v 2.5 4.8 -1.9
v 2.5 4.8 -2
v 2.5 4.8 -2.3
v 2.5 4.8 -2.5
v 2.5 4.9 -2.3
v 2.5 4.9 -2.5
v 2.5 4.9 -2.6
v 2.5 5 -2.5
v 2.5 5 -2.6
v 2.6 4.4 -2.6
v 2.6 4.4 -2.7
v 2.6 4.5 -2.6
v 2.6 4.5 -2.7
v 2.6 4.8 -1.9
v 2.6 4.8 -2
v 2.6 4.9 -1.9
v 2.6 4.9 -2
v 2.7 4.3 -1.9
v 2.7 4.3 -2
v 2.7 4.3 -2.6
v 2.7 4.3 -2.7
v 2.7 4.4 -1.9
v 2.7 4.4 -2
v 2.7 4.4 -2.6
v 2.7 4.4 -2.7
v 2.7 4.6 -2
v 2.7 4.6 -2.1
v 2.7 4.6 -2.3
v 2.7 4.6 -2.4
v 2.7 4.7 -2
v 2.7 4.7 -2.1
v 2.7 4.7 -2.3
v 2.7 4.7 -2.4
v 2.7 4.9 -1.9
v 2.7 4.9 -2
v 2.7 5.2 -2
v 2.7 5.3 -1.9
v 2.7 5.3 -2
v 2.8 4.3 -2
v 2.8 4.3 -2.1
v 2.8 4.3 -2.5
v 2.8 4.3 -2.6
v 2.8 4.4 -2.6
v 2.8 4.4 -2.7
v 2.8 4.5 -2.1
v 2.8 4.5 -2.5
v 2.8 4.6 -2
v 2.8 4.6 -2.1
v 2.8 4.6 -2.4
v 2.8 4.6 -2.7
v 2.8 4.9 -2
v 2.8 4.9 -2.1
v 2.8 5.2 -2
v 2.8 5.2 -2.1
v 2.9 4.3 -2.1
v 2.9 4.3 -2.5
v 2.9 4.5 -2.1
v 2.9 4.5 -2.5
v 2.9 4.6 -2.1
v 2.9 4.6 -2.4
v 2.9 4.8 -2.1
v 2.9 4.8 -2.4
v 2.9 4.9 -2.1
v 2.9 4.9 -2.2
v 2.9 5.2 -2.1
v 2.9 5.2 -2.2
v 2.2 4.9 -1.9
v 2.2 5.3 -1.9
v 2.3 4.3 -1.9
v 2.3 4.4 -1.9
v 2.3 4.8 -1.9
v 2.3 4.9 -1.9
v 2.4 4.7 -1.9
v 2.4 4.8 -1.9
v 2.4 5.2 -1.9
v 2.4 5.3 -1.9
v 2.5 4.7 -1.9
v 2.5 4.8 -1.9
v 2.5 5.2 -1.9
v 2.5 5.3 -1.9
v 2.6 4.8 -1.9
v 2.6 4.9 -1.9
v 2.7 4.3 -1.9
v 2.7 4.4 -1.9
v 2.7 4.9 -1.9
v 2.7 5.3 -1.9
v 2.1 4.9 -2
v 2.1 5.2 -2
v 2.2 4.3 -2
v 2.2 4.4 -2
v 2.2 4.9 -2
v 2.2 5.2 -2
v 2.3 4.3 -2
v 2.3 4.4 -2
v 2.4 4.4 -2
v 2.4 4.7 -2
v 2.5 4.7 -2
v 2.7 4.3 -2
v 2.7 4.4 -2
v 2.7 4.6 -2
v 2.7 4.7 -2
v 2.7 4.9 -2
v 2.7 5.2 -2
v 2.8 4.3 -2
v 2.8 4.6 -2
v 2.8 4.9 -2
v 2.8 5.2 -2
v 2 4.9 -2.1
v 2 5.2 -2.1
v 2.1 4.3 -2.1
v 2.1 4.4 -2.1
v 2.1 4.6 -2.1
v 2.1 4.9 -2.1
v 2.1 5.2 -2.1
v 2.2 4.3 -2.1
v 2.2 4.4 -2.1
v 2.2 4.5 -2.1
v 2.3 4.4 -2.1
v 2.3 4.5 -2.1
v 2.3 4.6 -2.1
v 2.4 4.4 -2.1
v 2.4 4.6 -2.1
v 2.6 4.7 -2.1
v 2.6 4.8 -2.1
v 2.7 4.6 -2.1
v 2.7 4.7 -2.1
v 2.8 4.3 -2.1
v 2.8 4.5 -2.1
v 2.8 4.6 -2.1
v 2.8 4.9 -2.1
v 2.8 5.2 -2.1
v 2.9 4.3 -2.1
v 2.9 4.5 -2.1
v 2.9 4.6 -2.1
v 2.9 4.8 -2.1
v 2.9 4.9 -2.1
v 2.9 5.2 -2.1
v 2.4 4.8 -2.3
v 2.4 4.9 -2.3
v 2.5 4.8 -2.3
v 2.5 4.9 -2.3
v 2.4 4.9 -2.5
v 2.4 5 -2.5
v 2.5 4.9 -2.5
v 2.5 5 -2.5
v 2.2 4.9 -2
v 2.2 5.2 -2
v 2.2 5.3 -2
v 2.3 4.8 -2
v 2.3 4.9 -2
v 2.4 4.8 -2
v 2.4 5.2 -2
v 2.4 5.3 -2
v 2.5 4.8 -2
v 2.5 5.2 -2
v 2.5 5.3 -2
v 2.6 4.8 -2
v 2.6 4.9 -2
v 2.7 4.9 -2
v 2.7 5.2 -2
v 2.7 5.3 -2
v 2.1 4.9 -2.1
v 2.1 5.2 -2.1
v 2.2 4.9 -2.1
v 2.2 5.2 -2.1
v 2.7 4.9 -2.1
v 2.7 5.2 -2.1
v 2.8 4.9 -2.1
v 2.8 5.2 -2.1
v 2 4.9 -2.2
v 2 5.2 -2.2
v 2.1 4.9 -2.2
v 2.1 5.2 -2.2
v 2.4 4.6 -2.2
v 2.4 4.7 -2.2
v 2.5 4.7 -2.2
v 2.6 4.6 -2.2
v 2.6 4.7 -2.2
v 2.8 4.9 -2.2
v 2.8 5.2 -2.2
v 2.9 4.9 -2.2
v 2.9 5.2 -2.2
v 2.1 4.4 -2.3
v 2.1 4.6 -2.3
v 2.2 4.4 -2.3
v 2.2 4.5 -2.3
v 2.3 4.5 -2.3
v 2.3 4.6 -2.3
v 2.4 4.7 -2.3
v 2.4 4.8 -2.3
v 2.5 4.7 -2.3
v 2.5 4.8 -2.3
v 2.7 4.6 -2.3
v 2.7 4.7 -2.3
v 2.8 4.6 -2.3
v 2.8 4.7 -2.3
v 2.6 4.6 -2.4
v 2.6 4.8 -2.4
v 2.7 4.6 -2.4
v 2.7 4.7 -2.4
v 2.8 4.6 -2.4
v 2.8 4.7 -2.4
v 2.9 4.6 -2.4
v 2.9 4.8 -2.4
v 2.1 4.3 -2.5
v 2.1 4.4 -2.5
v 2.2 4.3 -2.5
v 2.2 4.4 -2.5
v 2.4 4.4 -2.5
v 2.4 4.6 -2.5
v 2.4 4.8 -2.5
v 2.4 4.9 -2.5
v 2.5 4.4 -2.5
v 2.5 4.6 -2.5
v 2.5 4.8 -2.5
v 2.5 4.9 -2.5
v 2.8 4.3 -2.5
v 2.8 4.5 -2.5
v 2.9 4.3 -2.5
v 2.9 4.5 -2.5
v 2.2 4.3 -2.6
v 2.2 4.4 -2.6
v 2.3 4.3 -2.6
v 2.3 4.4 -2.6
v 2.3 4.6 -2.6
v 2.4 4.4 -2.6
v 2.4 4.6 -2.6
v 2.4 4.9 -2.6
v 2.4 5 -2.6
v 2.5 4.9 -2.6
v 2.5 5 -2.6
v 2.6 4.4 -2.6
v 2.6 4.5 -2.6
v 2.7 4.3 -2.6
v 2.7 4.4 -2.6
v 2.7 4.5 -2.6
v 2.8 4.3 -2.6
v 2.8 4.4 -2.6
v 2.3 4.3 -2.7
v 2.3 4.4 -2.7
v 2.5 4.4 -2.7
v 2.5 4.6 -2.7
v 2.6 4.4 -2.7
v 2.6 4.5 -2.7
v 2.7 4.3 -2.7
v 2.7 4.4 -2.7
v 2.7 4.5 -2.7
v 2.8 4.4 -2.7
v 2.8 4.6 -2.7
v 2.3 4.3 -1.9
v 2.7 4.3 -1.9
v 2.2 4.3 -2
v 2.3 4.3 -2
v 2.7 4.3 -2
v 2.8 4.3 -2
v 2.1 4.3 -2.1
v 2.2 4.3 -2.1
v 2.8 4.3 -2.1
v 2.9 4.3 -2.1
v 2.1 4.3 -2.5
v 2.2 4.3 -2.5
v 2.8 4.3 -2.5
v 2.9 4.3 -2.5
v 2.2 4.3 -2.6
v 2.3 4.3 -2.6
v 2.7 4.3 -2.6
v 2.8 4.3 -2.6
v 2.3 4.3 -2.7
v 2.7 4.3 -2.7
v 2.7 4.4 -2.6
v 2.8 4.4 -2.6
v 2.7 4.4 -2.7
v 2.8 4.4 -2.7
v 2.2 4.5 -2.1
v 2.3 4.5 -2.1
v 2.2 4.5 -2.2
v 2.3 4.5 -2.2
v 2.2 4.5 -2.3
v 2.3 4.5 -2.3
v 2.6 4.5 -2.6
v 2.7 4.5 -2.6
v 2.6 4.5 -2.7
v 2.7 4.5 -2.7
v 2.8 4.6 -2.1
v 2.9 4.6 -2.1
v 2.8 4.6 -2.4
v 2.9 4.6 -2.4
v 2.4 4.7 -1.9
v 2.5 4.7 -1.9
v 2.4 4.7 -2
v 2.5 4.7 -2
v 2.4 4.7 -2.2
v 2.5 4.7 -2.2
v 2.4 4.7 -2.3
v 2.5 4.7 -2.3
v 2.7 4.7 -2.3
v 2.8 4.7 -2.3
v 2.7 4.7 -2.4
v 2.8 4.7 -2.4
v 2.3 4.8 -1.9
v 2.4 4.8 -1.9
v 2.5 4.8 -1.9
v 2.6 4.8 -1.9
v 2.3 4.8 -2
v 2.4 4.8 -2
v 2.5 4.8 -2
v 2.6 4.8 -2
v 2.4 4.8 -2.3
v 2.5 4.8 -2.3
v 2.4 4.8 -2.5
v 2.5 4.8 -2.5
v 2.2 4.9 -1.9
v 2.3 4.9 -1.9
v 2.6 4.9 -1.9
v 2.7 4.9 -1.9
v 2.1 4.9 -2
v 2.2 4.9 -2
v 2.3 4.9 -2
v 2.6 4.9 -2
v 2.7 4.9 -2
v 2.8 4.9 -2
v 2 4.9 -2.1
v 2.1 4.9 -2.1
v 2.2 4.9 -2.1
v 2.7 4.9 -2.1
v 2.8 4.9 -2.1
v 2.9 4.9 -2.1
v 2 4.9 -2.2
v 2.1 4.9 -2.2
v 2.8 4.9 -2.2
v 2.9 4.9 -2.2
v 2.4 4.9 -2.5
v 2.5 4.9 -2.5
v 2.4 4.9 -2.6
v 2.5 4.9 -2.6
v 2.3 4.4 -1.9
v 2.7 4.4 -1.9
v 2.2 4.4 -2
v 2.3 4.4 -2
v 2.4 4.4 -2
v 2.7 4.4 -2
v 2.2 4.4 -2.1
v 2.3 4.4 -2.1
v 2.4 4.4 -2.1
v 2.2 4.4 -2.2
v 2.1 4.4 -2.3
v 2.2 4.4 -2.3
v 2.1 4.4 -2.5
v 2.2 4.4 -2.5
v 2.4 4.4 -2.5
v 2.5 4.4 -2.5
v 2.2 4.4 -2.6
v 2.3 4.4 -2.6
v 2.4 4.4 -2.6
v 2.6 4.4 -2.6
v 2.7 4.4 -2.6
v 2.3 4.4 -2.7
v 2.5 4.4 -2.7
v 2.6 4.4 -2.7
v 2.7 4.4 -2.7
v 2.8 4.5 -2.1
v 2.9 4.5 -2.1
v 2.8 4.5 -2.5
v 2.9 4.5 -2.5
v 2.7 4.6 -2
v 2.8 4.6 -2
v 2.1 4.6 -2.1
v 2.3 4.6 -2.1
v 2.4 4.6 -2.1
v 2.7 4.6 -2.1
v 2.8 4.6 -2.1
v 2.1 4.6 -2.2
v 2.3 4.6 -2.2
v 2.4 4.6 -2.2
v 2.6 4.6 -2.2
v 2.1 4.6 -2.3
v 2.3 4.6 -2.3
v 2.7 4.6 -2.3
v 2.8 4.6 -2.3
v 2.6 4.6 -2.4
v 2.7 4.6 -2.4
v 2.8 4.6 -2.4
v 2.4 4.6 -2.5
v 2.5 4.6 -2.5
v 2.3 4.6 -2.6
v 2.4 4.6 -2.6
v 2.5 4.6 -2.7
v 2.8 4.6 -2.7
v 2.5 4.7 -2
v 2.7 4.7 -2
v 2.6 4.7 -2.1
v 2.7 4.7 -2.1
v 2.5 4.7 -2.2
v 2.6 4.7 -2.2
v 2.4 4.8 -2
v 2.5 4.8 -2
v 2.6 4.8 -2.1
v 2.9 4.8 -2.1
v 2.4 4.8 -2.3
v 2.5 4.8 -2.3
v 2.6 4.8 -2.4
v 2.9 4.8 -2.4
v 2.4 4.9 -2.3
v 2.5 4.9 -2.3
v 2.4 4.9 -2.5
v 2.5 4.9 -2.5
v 2.4 5 -2.5
v 2.5 5 -2.5
v 2.4 5 -2.6
v 2.5 5 -2.6
v 2.4 5.2 -1.9
v 2.5 5.2 -1.9
v 2.1 5.2 -2
v 2.2 5.2 -2
v 2.4 5.2 -2
v 2.5 5.2 -2
v 2.7 5.2 -2
v 2.8 5.2 -2
v 2 5.2 -2.1
v 2.1 5.2 -2.1
v 2.2 5.2 -2.1
v 2.7 5.2 -2.1
v 2.8 5.2 -2.1
v 2.9 5.2 -2.1
v 2 5.2 -2.2
v 2.1 5.2 -2.2
v 2.8 5.2 -2.2
v 2.9 5.2 -2.2
v 2.2 5.3 -1.9
v 2.4 5.3 -1.9
v 2.5 5.3 -1.9
v 2.7 5.3 -1.9
v 2.2 5.3 -2
v 2.4 5.3 -2
v 2.5 5.3 -2
v 2.7 5.3 -2

# faces
f 3/4/1 2/4/1 1/4/1
f 4/4/1 2/4/1 3/4/1
f 7/3/1 6/3/1 5/3/1
f 8/3/1 6/3/1 7/3/1
f 9/3/1 6/3/1 8/3/1
f 10/3/1 6/3/1 9/3/1
f 11/4/1 8/4/1 7/4/1
f 12/2/1 9/2/1 8/2/1
f 12/4/1 8/4/1 11/4/1
f 13/2/1 9/2/1 12/2/1
f 16/4/1 15/4/1 14/4/1
f 17/4/1 15/4/1 16/4/1
f 22/3/1 19/3/1 18/3/1
f 23/3/1 19/3/1 22/3/1
f 24/3/1 21/3/1 20/3/1
f 25/3/1 21/3/1 24/3/1
f 28/4/1 27/4/1 26/4/1
f 29/4/1 28/4/1 26/4/1
f 30/4/1 28/4/1 29/4/1
f 35/3/1 32/3/1 31/3/1
f 36/3/1 32/3/1 35/3/1
f 38/3/1 34/3/1 33/3/1
f 39/3/1 34/3/1 38/3/1
f 40/3/1 38/3/1 37/3/1
f 41/3/1 38/3/1 40/3/1
f 42/3/1 38/3/1 41/3/1
f 43/3/1 38/3/1 42/3/1
f 44/3/1 38/3/1 43/3/1
f 47/4/1 46/4/1 45/4/1
f 48/4/1 46/4/1 47/4/1
f 51/3/1 50/3/1 49/3/1
f 54/3/1 51/3/1 49/3/1
f 54/3/1 52/3/1 51/3/1
f 55/3/1 52/3/1 54/3/1
f 57/2/1 54/2/1 53/2/1
f 57/2/1 56/2/1 55/2/1
f 57/2/1 55/2/1 54/2/1
f 58/2/1 56/2/1 57/2/1
f 59/2/1 56/2/1 58/2/1
f 61/2/1 60/2/1 59/2/1
f 62/2/1 60/2/1 61/2/1
f 64/2/1 63/2/1 62/2/1
f 65/2/1 63/2/1 64/2/1
f 68/3/1 67/3/1 66/3/1
f 69/3/1 67/3/1 68/3/1
f 72/4/1 71/4/1 70/4/1
f 73/4/1 71/4/1 72/4/1
f 77/3/1 75/3/1 74/3/1
f 78/3/1 77/3/1 76/3/1
f 79/3/1 75/3/1 77/3/1
f 79/3/1 77/3/1 78/3/1
f 82/3/1 81/3/1 80/3/1
f 83/3/1 81/3/1 82/3/1
f 86/4/1 85/4/1 84/4/1
f 87/4/1 85/4/1 86/4/1
f 90/3/1 89/3/1 88/3/1
f 91/3/1 89/3/1 90/3/1
f 94/4/1 93/4/1 92/4/1
f 95/4/1 93/4/1 94/4/1
f 96/4/2 97/4/2 98/4/2
f 98/4/2 97/4/2 99/4/2
f 100/4/2 101/4/2 103/4/2
f 101/2/2 102/2/2 104/2/2
f 103/4/2 101/4/2 104/4/2
f 104/2/2 102/2/2 105/2/2
f 106/4/2 107/4/2 108/4/2
f 108/4/2 107/4/2 109/4/2
f 110/3/2 111/3/2 112/3/2
f 112/3/2 111/3/2 113/3/2
f 114/4/2 115/4/2 116/4/2
f 116/4/2 115/4/2 117/4/2
f 118/2/2 119/2/2 122/2/2
f 120/2/2 121/2/2 122/2/2
f 119/2/2 120/2/2 122/2/2
f 122/2/2 121/2/2 123/2/2
f 123/2/2 121/2/2 124/2/2
f 124/2/2 125/2/2 126/2/2
f 126/2/2 125/2/2 127/2/2
f 127/2/2 128/2/2 129/2/2
f 129/2/2 128/2/2 130/2/2
f 131/3/2 132/3/2 133/3/2
f 133/3/2 132/3/2 134/3/2
f 135/4/2 136/4/2 137/4/2
f 137/4/2 136/4/2 138/4/2
f 139/3/2 140/3/2 143/3/2
f 143/3/2 140/3/2 144/3/2
f 141/3/2 142/3/2 145/3/2
f 145/3/2 142/3/2 146/3/2
f 147/3/2 148/3/2 151/3/2
f 151/3/2 148/3/2 152/3/2
f 149/3/2 150/3/2 153/3/2
f 153/3/2 150/3/2 154/3/2
f 155/4/2 156/4/2 157/4/2
f 155/4/2 157/4/2 158/4/2
f 158/4/2 157/4/2 159/4/2
f 162/3/2 163/3/2 164/3/2
f 160/3/2 161/3/2 166/3/2
f 164/3/2 165/3/2 167/3/2
f 162/3/2 164/3/2 167/3/2
f 160/3/2 166/3/2 168/3/2
f 166/3/2 167/3/2 168/3/2
f 168/3/2 167/3/2 169/3/2
f 169/3/2 167/3/2 170/3/2
f 167/3/2 165/3/2 171/3/2
f 170/3/2 167/3/2 171/3/2
f 172/4/2 173/4/2 174/4/2
f 174/4/2 173/4/2 175/4/2
f 176/3/2 177/3/2 178/3/2
f 178/3/2 177/3/2 179/3/2
f 180/3/2 181/3/2 182/3/2
f 182/3/2 181/3/2 183/3/2
f 184/4/2 185/4/2 186/4/2
f 186/4/2 185/4/2 187/4/2
f 193/4/3 189/4/3 188/4/3
f 195/4/3 193/4/3 192/4/3
f 196/4/3 189/4/3 193/4/3
f 196/4/3 193/4/3 195/4/3
f 197/4/3 189/4/3 196/4/3
f 198/2/3 195/2/3 194/2/3
f 198/2/3 196/2/3 195/2/3
f 199/2/3 196/2/3 198/2/3
f 200/2/3 196/2/3 199/2/3
f 202/4/3 201/4/3 200/4/3
f 202/4/3 200/4/3 199/4/3
f 203/4/3 201/4/3 202/4/3
f 204/3/3 191/3/3 190/3/3
f 205/3/3 191/3/3 204/3/3
f 206/4/3 201/4/3 203/4/3
f 207/4/3 201/4/3 206/4/3
f 212/4/3 209/4/3 208/4/3
f 213/4/3 209/4/3 212/4/3
f 214/3/3 211/3/3 210/3/3
f 215/3/3 211/3/3 214/3/3
f 218/3/3 217/3/3 216/3/3
f 220/3/3 218/3/3 216/3/3
f 221/3/3 218/3/3 220/3/3
f 222/3/3 218/3/3 221/3/3
f 225/3/3 220/3/3 219/3/3
f 225/3/3 221/3/3 220/3/3
f 226/3/3 221/3/3 225/3/3
f 227/4/3 224/4/3 223/4/3
f 228/4/3 224/4/3 227/4/3
f 234/4/3 230/4/3 229/4/3
f 235/4/3 230/4/3 234/4/3
f 236/3/3 232/3/3 231/3/3
f 237/4/3 233/4/3 232/4/3
f 237/3/3 232/3/3 236/3/3
f 238/4/3 233/4/3 237/4/3
f 240/4/3 233/4/3 238/4/3
f 241/4/3 233/4/3 240/4/3
f 242/3/3 240/3/3 239/3/3
f 242/3/3 241/3/3 240/3/3
f 243/3/3 241/3/3 242/3/3
f 247/3/3 245/3/3 244/3/3
f 250/3/3 247/3/3 246/3/3
f 253/3/3 249/3/3 248/3/3
f 254/3/3 249/3/3 253/3/3
f 255/3/3 247/3/3 250/3/3
f 256/3/3 245/3/3 247/3/3
f 256/3/3 247/3/3 255/3/3
f 257/4/3 252/4/3 251/4/3
f 258/4/3 252/4/3 257/4/3
f 261/2/3 260/2/3 259/2/3
f 262/2/3 260/2/3 261/2/3
f 265/2/3 264/2/3 263/2/3
f 266/2/3 264/2/3 265/2/3
f 267/4/4 268/4/4 271/4/4
f 268/4/4 269/4/4 271/4/4
f 270/4/4 271/4/4 272/4/4
f 271/4/4 269/4/4 273/4/4
f 272/4/4 271/4/4 273/4/4
f 273/4/4 269/4/4 274/4/4
f 272/2/4 273/2/4 275/2/4
f 275/2/4 273/2/4 276/2/4
f 275/4/4 276/4/4 278/4/4
f 276/4/4 277/4/4 278/4/4
f 278/4/4 277/4/4 279/4/4
f 279/4/4 277/4/4 280/4/4
f 280/4/4 277/4/4 281/4/4
f 281/4/4 277/4/4 282/4/4
f 283/4/4 284/4/4 285/4/4
f 285/4/4 284/4/4 286/4/4
f 287/4/4 288/4/4 289/4/4
f 289/4/4 288/4/4 290/4/4
f 291/4/4 292/4/4 293/4/4
f 293/4/4 292/4/4 294/4/4
f 295/3/4 296/3/4 297/3/4
f 295/3/4 297/3/4 298/3/4
f 298/3/4 297/3/4 299/3/4
f 300/4/4 301/4/4 302/4/4
f 302/4/4 301/4/4 303/4/4
f 304/2/4 305/2/4 306/2/4
f 306/2/4 305/2/4 307/2/4
f 307/2/4 305/2/4 308/2/4
f 308/2/4 305/2/4 309/2/4
f 310/2/4 311/2/4 312/2/4
f 312/2/4 311/2/4 313/2/4
f 314/1/4 315/1/4 316/1/4
f 316/1/4 315/1/4 317/1/4
f 318/3/4 319/3/4 320/3/4
f 320/3/4 319/3/4 321/3/4
f 321/3/4 319/3/4 323/3/4
f 322/3/4 323/3/4 324/3/4
f 323/3/4 319/3/4 325/3/4
f 324/3/4 323/3/4 325/3/4
f 326/3/4 327/3/4 328/3/4
f 328/3/4 327/3/4 329/3/4
f 330/3/4 331/3/4 334/3/4
f 334/3/4 331/3/4 335/3/4
f 332/2/4 333/2/4 336/2/4
f 336/2/4 333/2/4 337/2/4
f 338/3/4 339/3/4 340/3/4
f 340/3/4 339/3/4 341/3/4
f 342/3/4 343/3/4 344/3/4
f 344/3/4 343/3/4 345/3/4
f 345/3/4 346/3/4 347/3/4
f 347/3/4 346/3/4 348/3/4
f 349/2/4 350/2/4 351/2/4
f 351/2/4 350/2/4 352/2/4
f 353/3/4 354/3/4 356/3/4
f 356/3/4 354/3/4 357/3/4
f 355/3/4 356/3/4 358/3/4
f 358/3/4 356/3/4 359/3/4
f 360/3/4 361/3/4 362/3/4
f 360/3/4 362/3/4 364/3/4
f 362/3/4 363/3/4 364/3/4
f 364/3/4 363/3/4 365/3/4
f 360/3/4 364/3/4 366/3/4
f 366/3/4 364/3/4 367/3/4
f 365/3/4 363/3/4 368/3/4
f 367/3/4 368/3/4 369/3/4
f 368/3/4 363/3/4 370/3/4
f 369/3/4 368/3/4 370/3/4
f 374/3/5 372/3/5 371/3/5
f 375/3/5 372/3/5 374/3/5
f 378/3/5 374/3/5 373/3/5
f 378/3/5 376/3/5 375/3/5
f 378/3/5 375/3/5 374/3/5
f 379/3/5 376/3/5 378/3/5
f 381/3/5 378/3/5 377/3/5
f 381/3/5 380/3/5 379/3/5
f 381/3/5 379/3/5 378/3/5
f 382/3/5 380/3/5 381/3/5
f 383/3/5 380/3/5 382/3/5
f 384/3/5 380/3/5 383/3/5
f 385/3/5 383/3/5 382/3/5
f 386/3/5 383/3/5 385/3/5
f 387/3/5 383/3/5 386/3/5
f 388/3/5 383/3/5 387/3/5
f 389/3/5 387/3/5 386/3/5
f 390/3/5 387/3/5 389/3/5
f 393/3/5 392/3/5 391/3/5
f 394/3/5 392/3/5 393/3/5
f 397/4/5 396/4/5 395/4/5
f 398/4/5 396/4/5 397/4/5
f 399/2/5 398/2/5 397/2/5
f 400/2/5 398/2/5 399/2/5
f 403/3/5 402/3/5 401/3/5
f 404/3/5 402/3/5 403/3/5
f 407/3/5 406/3/5 405/3/5
f 408/3/5 406/3/5 407/3/5
f 411/2/5 410/2/5 409/2/5
f 412/2/5 410/2/5 411/2/5
f 415/2/5 414/2/5 413/2/5
f 416/2/5 414/2/5 415/2/5
f 419/3/5 418/3/5 417/3/5
f 420/3/5 418/3/5 419/3/5
f 425/4/5 422/4/5 421/4/5
f 426/4/5 422/4/5 425/4/5
f 427/4/5 424/4/5 423/4/5
f 428/4/5 424/4/5 427/4/5
f 431/2/5 430/2/5 429/2/5
f 432/2/5 430/2/5 431/2/5
f 438/4/5 434/4/5 433/4/5
f 439/4/5 434/4/5 438/4/5
f 440/4/5 436/4/5 435/4/5
f 441/4/5 436/4/5 440/4/5
f 444/4/5 438/4/5 437/4/5
f 445/4/5 438/4/5 444/4/5
f 446/4/5 442/4/5 441/4/5
f 447/4/5 442/4/5 446/4/5
f 449/4/5 444/4/5 443/4/5
f 450/4/5 444/4/5 449/4/5
f 451/4/5 448/4/5 447/4/5
f 452/4/5 448/4/5 451/4/5
f 455/2/5 454/2/5 453/2/5
f 456/2/5 454/2/5 455/2/5
f 457/3/6 458/3/6 460/3/6
f 460/3/6 458/3/6 461/3/6
f 461/3/6 458/3/6 462/3/6
f 459/3/6 460/3/6 463/3/6
f 460/3/6 461/3/6 463/3/6
f 463/3/6 461/3/6 464/3/6
f 464/3/6 461/3/6 465/3/6
f 463/3/6 464/3/6 466/3/6
f 466/3/6 464/3/6 468/3/6
f 467/3/6 468/3/6 469/3/6
f 468/3/6 464/3/6 470/3/6
f 469/3/6 468/3/6 470/3/6
f 470/3/6 464/3/6 473/3/6
f 473/3/6 464/3/6 474/3/6
f 471/3/6 472/3/6 475/3/6
f 474/3/6 475/3/6 478/3/6
f 475/3/6 472/3/6 479/3/6
f 478/3/6 475/3/6 479/3/6
f 476/3/6 477/3/6 480/3/6
f 480/3/6 477/3/6 481/3/6
f 482/3/6 483/3/6 484/3/6
f 484/3/6 483/3/6 485/3/6
f 486/3/6 487/3/6 491/3/6
f 491/3/6 487/3/6 492/3/6
f 488/4/6 489/4/6 493/4/6
f 489/3/6 490/3/6 494/3/6
f 493/4/6 489/4/6 494/4/6
f 494/3/6 490/3/6 495/3/6
f 493/2/6 494/2/6 497/2/6
f 495/3/6 496/3/6 498/3/6
f 497/2/6 494/2/6 498/2/6
f 494/3/6 495/3/6 498/3/6
f 498/3/6 496/3/6 501/3/6
f 499/3/6 500/3/6 502/3/6
f 502/3/6 500/3/6 503/3/6
f 498/3/6 501/3/6 504/3/6
f 501/3/6 502/3/6 504/3/6
f 502/3/6 503/3/6 504/3/6
f 504/3/6 503/3/6 505/3/6
f 498/3/6 504/3/6 506/3/6
f 506/3/6 504/3/6 507/3/6
f 505/3/6 503/3/6 508/3/6
f 508/3/6 503/3/6 509/3/6
f 510/3/6 511/3/6 512/3/6
f 512/3/6 511/3/6 513/3/6
f 510/3/6 512/3/6 514/3/6
f 514/3/6 512/3/6 515/3/6
f 516/2/6 517/2/6 520/2/6
f 520/2/6 517/2/6 521/2/6
f 518/3/6 519/3/6 522/3/6
f 522/3/6 519/3/6 523/3/6
f 524/2/6 525/2/6 526/2/6
f 526/2/6 525/2/6 527/2/6
f 528/2/6 529/2/6 530/2/6
f 530/2/6 529/2/6 531/2/6
f 532/2/6 533/2/6 536/2/6
f 536/2/6 533/2/6 537/2/6
f 534/4/6 535/4/6 541/4/6
f 541/4/6 535/4/6 542/4/6
f 538/4/6 539/4/6 543/4/6
f 543/4/6 539/4/6 544/4/6
f 540/4/6 541/4/6 546/4/6
f 546/4/6 541/4/6 547/4/6
f 544/4/6 545/4/6 548/4/6
f 548/4/6 545/4/6 549/4/6
f 550/4/6 551/4/6 554/4/6
f 554/4/6 551/4/6 555/4/6
f 552/4/6 553/4/6 556/4/6
f 556/4/6 553/4/6 557/4/6
