# MagicaVoxel @ Ephtracy

# group
o 

# material
mtllib AutoGun1.mtl
usemtl palette

# normals
vn -1 0 0
vn 1 0 0
vn 0 0 1
vn 0 0 -1
vn 0 -1 0
vn 0 1 0

# texcoords
vt 0.583984 0.5
vt 0.712891 0.5
vt 0.986328 0.5
vt 0.990234 0.5

# verts
v 2.2 4.4 -1.9
v 2.2 4.4 -2.2
v 2.2 4.7 -1.9
v 2.2 4.7 -2.2
v 2.3 4.6 -2.2
v 2.3 4.6 -2.8
v 2.3 4.7 -2.2
v 2.3 4.7 -2.8
v 2.4 4.4 -2.2
v 2.4 4.4 -2.8
v 2.4 4.5 -1.7
v 2.4 4.5 -1.9
v 2.4 4.5 -2.1
v 2.4 4.5 -2.2
v 2.4 4.5 -2.3
v 2.4 4.5 -2.7
v 2.4 4.6 -1.7
v 2.4 4.6 -1.9
v 2.4 4.6 -2.1
v 2.4 4.6 -2.2
v 2.4 4.6 -2.3
v 2.4 4.6 -2.7
v 2.4 4.6 -2.8
v 2.5 4.3 -2.2
v 2.5 4.3 -2.8
v 2.5 4.4 -1.7
v 2.5 4.4 -1.9
v 2.5 4.4 -2.2
v 2.5 4.4 -2.8
v 2.5 4.5 -1.7
v 2.5 4.5 -1.9
v 2.5 4.6 -1.7
v 2.5 4.6 -1.9
v 2.5 4.7 -1.7
v 2.5 4.7 -1.9
v 2.5 4.7 -2.2
v 2.5 4.7 -2.4
v 2.5 4.7 -2.5
v 2.5 4.7 -2.8
v 2.5 4.8 -2.2
v 2.5 4.8 -2.4
v 2.5 4.8 -2.5
v 2.5 4.8 -2.8
v 2.6 4.4 -2.3
v 2.6 4.4 -2.6
v 2.6 4.4 -2.7
v 2.6 4.4 -2.8
v 2.6 4.5 -2.3
v 2.6 4.5 -2.6
v 2.6 4.6 -2.3
v 2.6 4.6 -2.6
v 2.6 4.7 -2.3
v 2.6 4.7 -2.4
v 2.6 4.7 -2.5
v 2.6 4.7 -2.6
v 2.6 4.7 -2.7
v 2.6 4.7 -2.8
v 2.3 4.5 -2.1
v 2.3 4.5 -2.2
v 2.3 4.6 -2.1
v 2.3 4.6 -2.2
v 2.5 4.4 -2.3
v 2.5 4.4 -2.6
v 2.5 4.4 -2.7
v 2.5 4.4 -2.8
v 2.5 4.5 -2.3
v 2.5 4.5 -2.6
v 2.5 4.6 -2.3
v 2.5 4.6 -2.6
v 2.5 4.7 -2.3
v 2.5 4.7 -2.4
v 2.5 4.7 -2.5
v 2.5 4.7 -2.6
v 2.5 4.7 -2.7
v 2.5 4.7 -2.8
v 2.6 4.3 -2.2
v 2.6 4.3 -2.8
v 2.6 4.4 -1.7
v 2.6 4.4 -1.9
v 2.6 4.4 -2.2
v 2.6 4.4 -2.8
v 2.6 4.5 -1.7
v 2.6 4.5 -1.9
v 2.6 4.6 -1.7
v 2.6 4.6 -1.9
v 2.6 4.7 -1.7
v 2.6 4.7 -1.9
v 2.6 4.7 -2.2
v 2.6 4.7 -2.4
v 2.6 4.7 -2.5
v 2.6 4.7 -2.8
v 2.6 4.8 -2.2
v 2.6 4.8 -2.4
v 2.6 4.8 -2.5
v 2.6 4.8 -2.8
v 2.7 4.4 -1.9
v 2.7 4.4 -2.2
v 2.7 4.4 -2.8
v 2.7 4.5 -1.7
v 2.7 4.5 -1.9
v 2.7 4.5 -2.3
v 2.7 4.5 -2.7
v 2.7 4.6 -1.7
v 2.7 4.6 -1.9
v 2.7 4.6 -2.2
v 2.7 4.6 -2.3
v 2.7 4.6 -2.7
v 2.7 4.6 -2.8
v 2.7 4.7 -1.9
v 2.7 4.7 -2.2
v 2.8 4.6 -2.2
v 2.8 4.6 -2.8
v 2.8 4.7 -2.2
v 2.8 4.7 -2.8
v 2.4 4.5 -1.7
v 2.4 4.6 -1.7
v 2.5 4.4 -1.7
v 2.5 4.5 -1.7
v 2.5 4.6 -1.7
v 2.5 4.7 -1.7
v 2.6 4.4 -1.7
v 2.6 4.5 -1.7
v 2.6 4.6 -1.7
v 2.6 4.7 -1.7
v 2.7 4.5 -1.7
v 2.7 4.6 -1.7
v 2.2 4.4 -1.9
v 2.2 4.7 -1.9
v 2.4 4.4 -1.9
v 2.4 4.5 -1.9
v 2.4 4.6 -1.9
v 2.4 4.7 -1.9
v 2.5 4.4 -1.9
v 2.5 4.5 -1.9
v 2.5 4.6 -1.9
v 2.5 4.7 -1.9
v 2.6 4.4 -1.9
v 2.6 4.5 -1.9
v 2.6 4.6 -1.9
v 2.6 4.7 -1.9
v 2.7 4.4 -1.9
v 2.7 4.5 -1.9
v 2.7 4.6 -1.9
v 2.7 4.7 -1.9
v 2.5 4.3 -2.2
v 2.5 4.4 -2.2
v 2.5 4.7 -2.2
v 2.5 4.8 -2.2
v 2.6 4.3 -2.2
v 2.6 4.4 -2.2
v 2.6 4.7 -2.2
v 2.6 4.8 -2.2
v 2.7 4.6 -2.2
v 2.7 4.7 -2.2
v 2.8 4.6 -2.2
v 2.8 4.7 -2.2
v 2.5 4.4 -2.6
v 2.5 4.5 -2.6
v 2.5 4.6 -2.6
v 2.5 4.7 -2.6
v 2.6 4.4 -2.6
v 2.6 4.5 -2.6
v 2.6 4.6 -2.6
v 2.6 4.7 -2.6
v 2.3 4.5 -2.1
v 2.3 4.6 -2.1
v 2.4 4.5 -2.1
v 2.4 4.6 -2.1
v 2.2 4.4 -2.2
v 2.2 4.7 -2.2
v 2.3 4.5 -2.2
v 2.3 4.6 -2.2
v 2.3 4.7 -2.2
v 2.4 4.4 -2.2
v 2.4 4.5 -2.2
v 2.5 4.4 -2.3
v 2.5 4.5 -2.3
v 2.5 4.6 -2.3
v 2.5 4.7 -2.3
v 2.6 4.4 -2.3
v 2.6 4.5 -2.3
v 2.6 4.6 -2.3
v 2.6 4.7 -2.3
v 2.5 4.4 -2.7
v 2.5 4.7 -2.7
v 2.6 4.4 -2.7
v 2.6 4.7 -2.7
v 2.3 4.6 -2.8
v 2.3 4.7 -2.8
v 2.4 4.4 -2.8
v 2.4 4.6 -2.8
v 2.5 4.3 -2.8
v 2.5 4.4 -2.8
v 2.5 4.7 -2.8
v 2.5 4.8 -2.8
v 2.6 4.3 -2.8
v 2.6 4.4 -2.8
v 2.6 4.7 -2.8
v 2.6 4.8 -2.8
v 2.7 4.4 -2.8
v 2.7 4.6 -2.8
v 2.8 4.6 -2.8
v 2.8 4.7 -2.8
v 2.5 4.3 -2.2
v 2.6 4.3 -2.2
v 2.5 4.3 -2.8
v 2.6 4.3 -2.8
v 2.5 4.4 -1.7
v 2.6 4.4 -1.7
v 2.2 4.4 -1.9
v 2.4 4.4 -1.9
v 2.5 4.4 -1.9
v 2.6 4.4 -1.9
v 2.7 4.4 -1.9
v 2.2 4.4 -2.2
v 2.4 4.4 -2.2
v 2.5 4.4 -2.2
v 2.6 4.4 -2.2
v 2.7 4.4 -2.2
v 2.4 4.4 -2.8
v 2.5 4.4 -2.8
v 2.6 4.4 -2.8
v 2.7 4.4 -2.8
v 2.4 4.5 -1.7
v 2.5 4.5 -1.7
v 2.6 4.5 -1.7
v 2.7 4.5 -1.7
v 2.4 4.5 -1.9
v 2.5 4.5 -1.9
v 2.6 4.5 -1.9
v 2.7 4.5 -1.9
v 2.3 4.6 -2.1
v 2.4 4.6 -2.1
v 2.3 4.6 -2.2
v 2.4 4.6 -2.2
v 2.7 4.6 -2.2
v 2.8 4.6 -2.2
v 2.4 4.6 -2.3
v 2.7 4.6 -2.3
v 2.4 4.6 -2.7
v 2.7 4.6 -2.7
v 2.3 4.6 -2.8
v 2.4 4.6 -2.8
v 2.7 4.6 -2.8
v 2.8 4.6 -2.8
v 2.5 4.7 -2.3
v 2.6 4.7 -2.3
v 2.5 4.7 -2.4
v 2.6 4.7 -2.4
v 2.5 4.7 -2.5
v 2.6 4.7 -2.5
v 2.5 4.7 -2.6
v 2.6 4.7 -2.6
v 2.5 4.7 -2.7
v 2.6 4.7 -2.7
v 2.5 4.7 -2.8
v 2.6 4.7 -2.8
v 2.5 4.4 -2.3
v 2.6 4.4 -2.3
v 2.5 4.4 -2.6
v 2.6 4.4 -2.6
v 2.5 4.4 -2.7
v 2.6 4.4 -2.7
v 2.5 4.4 -2.8
v 2.6 4.4 -2.8
v 2.3 4.5 -2.1
v 2.4 4.5 -2.1
v 2.3 4.5 -2.2
v 2.4 4.5 -2.2
v 2.4 4.6 -1.7
v 2.5 4.6 -1.7
v 2.6 4.6 -1.7
v 2.7 4.6 -1.7
v 2.4 4.6 -1.9
v 2.5 4.6 -1.9
v 2.6 4.6 -1.9
v 2.7 4.6 -1.9
v 2.5 4.7 -1.7
v 2.6 4.7 -1.7
v 2.2 4.7 -1.9
v 2.4 4.7 -1.9
v 2.5 4.7 -1.9
v 2.6 4.7 -1.9
v 2.7 4.7 -1.9
v 2.2 4.7 -2.2
v 2.3 4.7 -2.2
v 2.4 4.7 -2.2
v 2.5 4.7 -2.2
v 2.6 4.7 -2.2
v 2.7 4.7 -2.2
v 2.8 4.7 -2.2
v 2.5 4.7 -2.4
v 2.6 4.7 -2.4
v 2.5 4.7 -2.5
v 2.6 4.7 -2.5
v 2.3 4.7 -2.8
v 2.5 4.7 -2.8
v 2.6 4.7 -2.8
v 2.8 4.7 -2.8
v 2.5 4.8 -2.2
v 2.6 4.8 -2.2
v 2.5 4.8 -2.4
v 2.6 4.8 -2.4
v 2.5 4.8 -2.5
v 2.6 4.8 -2.5
v 2.5 4.8 -2.8
v 2.6 4.8 -2.8

# faces
f 3/3/1 2/3/1 1/3/1
f 4/3/1 2/3/1 3/3/1
f 7/3/1 6/3/1 5/3/1
f 8/3/1 6/3/1 7/3/1
f 14/3/1 10/3/1 9/3/1
f 15/3/1 10/3/1 14/3/1
f 16/3/1 10/3/1 15/3/1
f 17/4/1 12/4/1 11/4/1
f 18/4/1 12/4/1 17/4/1
f 19/4/1 14/4/1 13/4/1
f 20/3/1 15/3/1 14/3/1
f 20/4/1 14/4/1 19/4/1
f 21/1/1 16/1/1 15/1/1
f 21/3/1 15/3/1 20/3/1
f 22/3/1 10/3/1 16/3/1
f 22/1/1 16/1/1 21/1/1
f 23/3/1 10/3/1 22/3/1
f 28/3/1 25/3/1 24/3/1
f 29/3/1 25/3/1 28/3/1
f 30/4/1 27/4/1 26/4/1
f 31/4/1 27/4/1 30/4/1
f 34/4/1 33/4/1 32/4/1
f 35/4/1 33/4/1 34/4/1
f 40/3/1 37/3/1 36/3/1
f 41/1/1 38/1/1 37/1/1
f 41/3/1 37/3/1 40/3/1
f 42/3/1 39/3/1 38/3/1
f 42/1/1 38/1/1 41/1/1
f 43/3/1 39/3/1 42/3/1
f 48/3/1 45/3/1 44/3/1
f 49/3/1 45/3/1 48/3/1
f 50/1/1 49/1/1 48/1/1
f 51/1/1 49/1/1 50/1/1
f 52/3/1 51/3/1 50/3/1
f 53/3/1 51/3/1 52/3/1
f 54/3/1 51/3/1 53/3/1
f 55/3/1 51/3/1 54/3/1
f 56/3/1 47/3/1 46/3/1
f 57/3/1 47/3/1 56/3/1
f 58/3/2 59/3/2 60/3/2
f 60/3/2 59/3/2 61/3/2
f 62/3/2 63/3/2 66/3/2
f 66/3/2 63/3/2 67/3/2
f 66/1/2 67/1/2 68/1/2
f 68/1/2 67/1/2 69/1/2
f 68/3/2 69/3/2 70/3/2
f 70/3/2 69/3/2 71/3/2
f 71/3/2 69/3/2 72/3/2
f 72/3/2 69/3/2 73/3/2
f 64/3/2 65/3/2 74/3/2
f 74/3/2 65/3/2 75/3/2
f 76/3/2 77/3/2 80/3/2
f 80/3/2 77/3/2 81/3/2
f 78/4/2 79/4/2 82/4/2
f 82/4/2 79/4/2 83/4/2
f 84/4/2 85/4/2 86/4/2
f 86/4/2 85/4/2 87/4/2
f 88/3/2 89/3/2 92/3/2
f 89/1/2 90/1/2 93/1/2
f 92/3/2 89/3/2 93/3/2
f 90/3/2 91/3/2 94/3/2
f 93/1/2 90/1/2 94/1/2
f 94/3/2 91/3/2 95/3/2
f 96/4/2 97/4/2 100/4/2
f 97/3/2 98/3/2 101/3/2
f 101/3/2 98/3/2 102/3/2
f 99/4/2 100/4/2 103/4/2
f 100/4/2 97/4/2 104/4/2
f 103/4/2 100/4/2 104/4/2
f 97/3/2 101/3/2 105/3/2
f 104/4/2 97/4/2 105/4/2
f 101/1/2 102/1/2 106/1/2
f 105/3/2 101/3/2 106/3/2
f 102/3/2 98/3/2 107/3/2
f 106/1/2 102/1/2 107/1/2
f 107/3/2 98/3/2 108/3/2
f 104/4/2 105/4/2 109/4/2
f 109/4/2 105/4/2 110/4/2
f 111/3/2 112/3/2 113/3/2
f 113/3/2 112/3/2 114/3/2
f 118/4/3 116/4/3 115/4/3
f 119/4/3 116/4/3 118/4/3
f 121/4/3 118/4/3 117/4/3
f 121/4/3 120/4/3 119/4/3
f 121/4/3 119/4/3 118/4/3
f 122/4/3 120/4/3 121/4/3
f 123/4/3 120/4/3 122/4/3
f 124/4/3 120/4/3 123/4/3
f 125/4/3 123/4/3 122/4/3
f 126/4/3 123/4/3 125/4/3
f 129/3/3 128/3/3 127/3/3
f 130/3/3 128/3/3 129/3/3
f 131/3/3 128/3/3 130/3/3
f 132/3/3 128/3/3 131/3/3
f 133/4/3 130/4/3 129/4/3
f 134/4/3 130/4/3 133/4/3
f 135/4/3 132/4/3 131/4/3
f 136/4/3 132/4/3 135/4/3
f 141/4/3 138/4/3 137/4/3
f 142/4/3 138/4/3 141/4/3
f 143/4/3 140/4/3 139/4/3
f 144/4/3 140/4/3 143/4/3
f 149/3/3 146/3/3 145/3/3
f 150/3/3 146/3/3 149/3/3
f 151/3/3 148/3/3 147/3/3
f 152/3/3 148/3/3 151/3/3
f 155/3/3 154/3/3 153/3/3
f 156/3/3 154/3/3 155/3/3
f 161/1/3 158/1/3 157/1/3
f 161/1/3 160/1/3 159/1/3
f 161/1/3 159/1/3 158/1/3
f 162/1/3 160/1/3 161/1/3
f 163/1/3 160/1/3 162/1/3
f 164/1/3 160/1/3 163/1/3
f 165/2/4 166/2/4 167/2/4
f 167/2/4 166/2/4 168/2/4
f 169/3/4 170/3/4 171/3/4
f 171/3/4 170/3/4 172/3/4
f 172/3/4 170/3/4 173/3/4
f 169/3/4 171/3/4 174/3/4
f 174/3/4 171/3/4 175/3/4
f 176/3/4 177/3/4 180/3/4
f 178/3/4 179/3/4 180/3/4
f 177/3/4 178/3/4 180/3/4
f 180/3/4 179/3/4 181/3/4
f 181/3/4 179/3/4 182/3/4
f 182/3/4 179/3/4 183/3/4
f 184/1/4 185/1/4 186/1/4
f 186/1/4 185/1/4 187/1/4
f 188/3/4 189/3/4 191/3/4
f 190/3/4 191/3/4 193/3/4
f 191/3/4 189/3/4 194/3/4
f 193/3/4 191/3/4 194/3/4
f 192/3/4 193/3/4 196/3/4
f 196/3/4 193/3/4 197/3/4
f 194/3/4 195/3/4 198/3/4
f 198/3/4 195/3/4 199/3/4
f 197/3/4 198/3/4 200/3/4
f 200/3/4 198/3/4 201/3/4
f 201/3/4 198/3/4 202/3/4
f 202/3/4 198/3/4 203/3/4
f 206/3/5 205/3/5 204/3/5
f 207/3/5 205/3/5 206/3/5
f 212/4/5 209/4/5 208/4/5
f 213/4/5 209/4/5 212/4/5
f 215/3/5 211/3/5 210/3/5
f 216/4/5 214/4/5 213/4/5
f 216/3/5 211/3/5 215/3/5
f 216/4/5 212/4/5 211/4/5
f 216/4/5 213/4/5 212/4/5
f 217/4/5 214/4/5 216/4/5
f 218/4/5 214/4/5 217/4/5
f 219/4/5 214/4/5 218/4/5
f 220/3/5 217/3/5 216/3/5
f 221/3/5 217/3/5 220/3/5
f 222/3/5 219/3/5 218/3/5
f 223/3/5 219/3/5 222/3/5
f 228/4/5 225/4/5 224/4/5
f 229/4/5 225/4/5 228/4/5
f 230/4/5 227/4/5 226/4/5
f 231/4/5 227/4/5 230/4/5
f 234/3/5 233/3/5 232/3/5
f 235/3/5 233/3/5 234/3/5
f 238/3/5 235/3/5 234/3/5
f 239/3/5 237/3/5 236/3/5
f 240/3/5 238/3/5 234/3/5
f 241/3/5 237/3/5 239/3/5
f 242/3/5 240/3/5 234/3/5
f 243/3/5 240/3/5 242/3/5
f 244/3/5 237/3/5 241/3/5
f 245/3/5 237/3/5 244/3/5
f 248/3/5 247/3/5 246/3/5
f 249/3/5 247/3/5 248/3/5
f 250/1/5 249/1/5 248/1/5
f 251/1/5 249/1/5 250/1/5
f 252/3/5 251/3/5 250/3/5
f 253/3/5 251/3/5 252/3/5
f 256/3/5 255/3/5 254/3/5
f 257/3/5 255/3/5 256/3/5
f 258/3/6 259/3/6 260/3/6
f 260/3/6 259/3/6 261/3/6
f 262/3/6 263/3/6 264/3/6
f 264/3/6 263/3/6 265/3/6
f 266/3/6 267/3/6 268/3/6
f 268/3/6 267/3/6 269/3/6
f 270/4/6 271/4/6 274/4/6
f 274/4/6 271/4/6 275/4/6
f 272/4/6 273/4/6 276/4/6
f 276/4/6 273/4/6 277/4/6
f 278/4/6 279/4/6 282/4/6
f 282/4/6 279/4/6 283/4/6
f 280/3/6 281/3/6 285/3/6
f 285/3/6 281/3/6 286/3/6
f 283/4/6 284/4/6 287/4/6
f 286/3/6 281/3/6 287/3/6
f 281/4/6 282/4/6 287/4/6
f 282/4/6 283/4/6 287/4/6
f 287/4/6 284/4/6 288/4/6
f 288/4/6 284/4/6 289/4/6
f 289/4/6 284/4/6 290/4/6
f 286/3/6 287/3/6 292/3/6
f 287/3/6 288/3/6 292/3/6
f 290/3/6 291/3/6 293/3/6
f 289/3/6 290/3/6 293/3/6
f 286/3/6 292/3/6 294/3/6
f 293/3/6 291/3/6 295/3/6
f 286/3/6 294/3/6 296/3/6
f 296/3/6 294/3/6 297/3/6
f 295/3/6 291/3/6 298/3/6
f 298/3/6 291/3/6 299/3/6
f 300/3/6 301/3/6 302/3/6
f 302/3/6 301/3/6 303/3/6
f 302/1/6 303/1/6 304/1/6
f 304/1/6 303/1/6 305/1/6
f 304/3/6 305/3/6 306/3/6
f 306/3/6 305/3/6 307/3/6
